<?xml version="1.0" encoding="utf-8"?>
<!-- Generator: Adobe Illustrator 25.2.1, SVG Export Plug-In . SVG Version: 6.00 Build 0)  -->
<svg version="1.1" id="Capa_1" xmlns="http://www.w3.org/2000/svg" xmlns:xlink="http://www.w3.org/1999/xlink" x="0px" y="0px"
	 width="2500px" height="2500px" viewBox="0 0 2500 2500" style="enable-background:new 0 0 2500 2500;" xml:space="preserve">
<style type="text/css">
	.st0{fill:#CF649A;}
</style>
<path class="st0" d="M2053.6,1357.1c-78,0.4-145.5,19.2-202.1,47.1c-20.9-41.4-41.8-77.5-45.3-104.6c-3.9-31.4-8.7-50.5-3.9-88
	c4.8-37.5,26.6-90.6,26.6-95c-0.4-3.9-4.8-23.1-49.7-23.5c-44.9-0.4-83.6,8.7-88,20.5s-13.1,38.8-18.7,66.7
	c-7.8,41-89.7,186-136.4,262.3c-15.2-29.6-28.3-55.8-30.9-76.7c-3.9-31.4-8.7-50.5-3.9-88c4.8-37.5,26.6-90.6,26.6-95
	c-0.4-3.9-4.8-23.1-49.7-23.5c-44.9-0.4-83.6,8.7-88,20.5s-9.1,39.6-18.7,66.7c-9.2,27-118.1,269.2-146.4,332.4
	c-14.4,32.2-27,57.9-36.2,75.4c-9.1,17.4-0.4,1.3-1.3,3c-7.8,14.8-12.2,23.1-12.2,23.1v0.4c-6.1,10.9-12.6,21.3-15.7,21.3
	c-2.2,0-6.5-29.2,0.9-69.3c16.1-84.1,55.3-215.2,54.9-220c0-2.2,7.4-25.3-25.3-37c-31.8-11.8-43.1,7.8-45.7,7.8s-4.8,7-4.8,7
	s35.3-147.7-67.5-147.7c-64.5,0-153.3,70.1-197.3,134.2c-27.9,15.2-87.1,47.5-149.9,81.9c-24,13.1-48.8,27-72.3,39.6l-4.8-5.2
	c-124.6-132.9-355.1-227-345.5-405.6c3.5-64.9,26.1-236.1,442.6-443.5c341.1-169.9,614.3-123.3,661.7-19.6
	c67.5,148.1-145.9,423.4-500.6,463.1c-135.1,15.2-206.1-37-223.9-56.6c-18.7-20.5-21.3-21.3-28.3-17.4c-11.3,6.1-4.4,24.4,0,35.3
	c10.5,27.4,54,76.2,128.1,100.6c64.9,21.3,223.5,33.1,415.2-41c214.8-83.2,382.5-314.1,333.3-507.1c-50.1-196.5-376-261-684-151.6
	c-183.4,65.3-382.1,167.3-525,301c-169.9,158.6-196.9,297.1-185.6,354.6c39.6,205.2,322.4,338.9,435.6,437.8
	c-5.7,3-10.9,6.1-15.7,8.7c-56.6,27.9-272.3,140.7-326.3,260.1c-61,135.1,9.6,232.2,56.6,245.3c145.5,40.5,294.5-32.2,375.1-152
	c80.2-119.8,70.6-275.3,33.5-346.3l-1.3-2.6l44.4-26.1c28.8-17,57.1-32.7,81.9-46.2c-13.9,37.9-24,82.8-29.2,148.1
	c-6.1,76.7,25.3,176,66.7,215.2c18.3,17,40.1,17.4,53.6,17.4c47.9,0,69.7-39.6,93.7-87.1c29.6-57.9,55.8-125,55.8-125
	s-32.7,181.7,56.6,181.7c32.7,0,65.3-42.3,80.2-64v0.4c0,0,0.9-1.3,2.6-4.4c1.8-2.7,3.6-5.5,5.2-8.3v-0.9
	c13.1-22.7,42.3-74.5,85.8-160.3C1346.9,1486.5,1401,1348,1401,1348s5.2,34,21.3,89.7c9.6,33.1,30.5,69.3,46.6,104.6
	c-13.1,18.3-20.9,28.8-20.9,28.8l0.4,0.4c-10.5,13.9-22.2,28.8-34.4,43.6c-44.4,53.1-97.6,113.7-104.6,131.1
	c-8.3,20.5-6.5,35.7,9.6,47.9c11.8,8.7,32.7,10.5,54.9,8.7c40.1-2.6,68-12.6,81.9-18.7c21.8-7.8,46.6-19.6,70.6-37
	c43.6-32.2,70.1-78,67.5-139c-1.3-33.5-12.2-66.7-25.7-98c3.9-5.7,7.8-11.3,11.8-17.4c68.8-100.6,122-211.3,122-211.3
	s5.2,34,21.3,89.7c8.3,28.3,24.8,59.3,39.6,89.7c-64.5,52.7-105,113.7-118.9,153.8c-25.7,74.1-5.7,107.6,32.2,115.4
	c17,3.5,41.4-4.4,59.7-12.2c22.7-7.4,50.1-20,75.4-38.8c43.6-32.2,85.4-77.1,83.2-137.7c-1.3-27.9-8.7-55.3-18.7-81.5
	c54.9-22.7,125.9-35.7,216.1-24.8c193.9,22.7,232.2,143.8,224.8,194.3s-47.9,78.4-61.4,87.1c-13.5,8.3-17.9,11.3-16.6,17.4
	c1.7,9.2,7.8,8.7,19.6,7c16.1-2.6,101.9-41.4,105.4-134.6C2369,1486.5,2255.3,1355.8,2053.6,1357.1L2053.6,1357.1z M558.4,1861.2
	c-64,70.1-154.2,96.7-192.6,74.1c-41.4-24-25.3-127.2,53.6-201.7c47.9-45.3,110.2-87.1,151.2-112.8c9.1-5.7,23.1-13.9,39.6-24
	c2.6-1.7,4.4-2.6,4.4-2.6c3-1.7,6.5-3.9,10-6.1C653.8,1694.3,625.9,1787.5,558.4,1861.2L558.4,1861.2z M1026.7,1542.7
	c-22.2,54.5-69.3,194.3-97.6,186.5c-24.4-6.5-39.2-112.4-4.8-217c17.4-52.7,54.5-115.4,76.2-139.8c35.3-39.2,73.6-52.3,83.2-36.2
	C1095.1,1357.1,1040.7,1508.7,1026.7,1542.7z M1413.2,1727.4c-9.6,4.8-18.3,8.3-22.2,5.7c-3-1.7,3.9-8.3,3.9-8.3
	s48.4-51.8,67.5-75.8c10.9-13.9,24-30.1,37.9-48.4v5.2C1500.3,1668.6,1440.2,1710.4,1413.2,1727.4L1413.2,1727.4z M1711.1,1659.5
	c-7-5.2-6.1-21.3,17.4-71.9c9.2-20,30.1-53.6,66.2-85.4c4.4,13.1,7,25.7,6.5,37.5C1800.9,1618.1,1745.1,1647.3,1711.1,1659.5z"/>
</svg>
