<?xml version="1.0" encoding="utf-8"?>
<!-- Generator: Adobe Illustrator 25.2.1, SVG Export Plug-In . SVG Version: 6.00 Build 0)  -->
<svg version="1.1" id="Capa_1" xmlns="http://www.w3.org/2000/svg" xmlns:xlink="http://www.w3.org/1999/xlink" x="0px" y="0px"
	 width="2500px" height="2500px" viewBox="0 0 2500 2500" style="enable-background:new 0 0 2500 2500;" xml:space="preserve">
<style type="text/css">
	.st0{fill-rule:evenodd;clip-rule:evenodd;fill:#8E714E;}
	.st1{fill-rule:evenodd;clip-rule:evenodd;fill:#442D22;}
	.st2{fill-rule:evenodd;clip-rule:evenodd;fill:#FFFFFF;}
	.st3{fill-rule:evenodd;clip-rule:evenodd;fill:#A6A385;}
	.st4{fill-rule:evenodd;clip-rule:evenodd;fill:#499D4A;}
	.st5{fill-rule:evenodd;clip-rule:evenodd;fill:#58AA50;}
</style>
<path class="st0" d="M2231.5,1198.2c-2,0.4-4.1,4.5-4.1,6.8c-0.4,15.1-0.8,55.1-0.8,82.3c0,0.8,1.2,2.3,2.4,2.3
	c6.1,0.4,20.7,0.8,33.4,0.8c17.5,0,27.7-2.3,33.4-4.5c14.6-6.8,21.6-21.5,21.6-37.8c0-36.6-27.7-50.6-68.8-50.6
	C2245.7,1197.1,2237.6,1197.1,2231.5,1198.2L2231.5,1198.2z M2336.5,1367c0-37.4-29.7-58.1-83.4-58.1c-2.4,0-19.5-0.4-23.6,0.4
	c-1.2,0.4-2.8,1.1-2.8,2.3c0,26.8-0.4,69.5,0.8,86.1c0.8,7.2,6.5,17.4,13.4,20.4c7.3,3.8,24,4.5,35.4,4.5
	C2308.4,1422.5,2336.5,1405.9,2336.5,1367L2336.5,1367z M2148.5,1177.5c4.1,0,16.3,1.1,47.6,1.1c29.7,0,53.3-0.8,82.2-0.8
	c35.4,0,84.2,11.7,84.2,60.8c0,24.2-18.3,43.4-42.3,52.9c-1.2,0.4-1.2,1.1,0,1.5c34.2,7.9,64.3,27.6,64.3,64.6
	c0,36.2-24.4,59.3-59.8,73.6c-21.6,8.7-48.4,11.7-75.7,11.7c-20.8,0-76.5-2.3-107.4-1.5c-3.3-1.1,2.8-14.7,5.7-17
	c7.3-0.4,13-0.8,20.8-3c11-2.6,12.2-5.7,13.8-21.1c0.8-13.2,0.8-60,0.8-93.3c0-45.7,0.4-76.6,0-91.7c-0.4-11.7-4.9-15.5-13.8-17.7
	c-6.9-1.1-18.3-2.6-27.7-3.8C2139.2,1191.8,2146.1,1179,2148.5,1177.5L2148.5,1177.5z M1913.8,1412.3c9.8,7.2,28.9,10.2,46,10.2
	c22,0,43.9-3.8,65.1-21.5c21.6-18.1,36.6-46.1,36.6-90.6c0-42.7-17.5-77.4-53.3-97.8c-20.3-11.7-46.4-16.6-76.5-16.6
	c-8.9,0-17.5,0.4-22.8,2.6c-1.2,0.8-4.1,4.2-4.1,6c-0.8,7.6-0.8,65.7-0.8,99.7c0,35.1,0,84.2,0.8,89.9
	C1904.8,1399.8,1907.7,1408.5,1913.8,1412.3L1913.8,1412.3z M1821.4,1177.5c7.7,0,37.4,1.1,51.7,1.1c25.6,0,43.9-1.1,92.3-1.1
	c40.7,0,74.9,10.2,99.3,29.4c29.7,23.8,45.2,56.6,45.2,96.7c0,57-28.1,89.9-56.1,108.7c-28.1,19.3-64.7,30.6-116.8,30.6
	c-27.7,0-75.3-0.8-114.7-1.1h-0.4c-2-3.4,3.3-16.6,6.5-17c10.6-1.1,13.4-1.5,18.7-3.4c8.5-3,10.2-7.2,11.4-21.1
	c1.2-26.1,0.8-57.4,0.8-92.9c0-25.3,0.4-74.8-0.4-90.6c-1.2-13.2-7.3-16.6-19.5-18.9c-6.1-1.1-14.2-2.6-25.6-3.8
	C1812.1,1191.4,1819.4,1179.7,1821.4,1177.5L1821.4,1177.5z"/>
<path class="st1" d="M1329.2,1427c-10.2-1.1-17.5-2.6-26.4-6.4c-1.2-0.8-3.3-4.5-3.3-6c-0.8-13.2-0.8-51-0.8-76.3
	c0-20.4-3.7-38.1-13-50.6c-11-14.4-26.8-22.7-47.2-22.7c-17.9,0-41.9,11.3-61.8,27.2c-0.4,0.4-3.7,3-3.3-1.1
	c0-4.2,0.8-12.5,1.2-18.1c0.4-5.3-2.8-7.9-2.8-7.9c-13,6-49.6,14-63.1,15.1c-9.8,1.9-12.2,10.6-2,13.6h0.4c11,3,18.3,6.4,24,9.8
	c4.1,3,3.7,7.2,3.7,10.6c0.4,28.3,0.4,71.7-0.8,95.5c-0.4,9.4-3.3,12.8-10.6,14.3l0.8-0.4c-5.7,1.1-10.2,2.3-17.1,3
	c-2.4,2.3-2.4,14.3,0,17c4.5,0,28.1-1.1,47.6-1.1c26.8,0,40.7,1.1,47.6,1.1c2.8-3,3.7-14.3,2-17c-7.7-0.4-13.4-1.1-18.7-2.6
	c-7.3-1.5-9.4-4.9-9.8-12.8c-0.8-20-0.8-62.3-0.8-91c0-7.9,2.4-11.7,4.9-14c9.4-7.5,24.4-12.8,37.8-12.8c13,0,21.6,3.8,28.1,8.7
	c8.9,6.8,11.8,16.6,13,23.8c2,16.2,1.2,48.3,1.2,76.3c0,15.1-1.2,18.9-7.3,20.8c-2.9,1.1-10.2,2.6-18.7,3.4c-2.8,2.6-2,14.4,0,17
	c11.8,0,25.6-1.1,46-1.1c25.2,0,41.5,1.1,48,1.1C1330,1441,1330.8,1430,1329.2,1427L1329.2,1427z M1441.9,1282.8
	c-21.6,0-35,15.5-35,39.6c0,24.5,11.8,52.9,45.2,52.9c5.7,0,16.3-2.3,21.2-7.6c7.7-6.8,13-20.4,13-34.7
	C1486.2,1301.7,1469.5,1282.8,1441.9,1282.8L1441.9,1282.8z M1439,1449.7c-8.1,0-13.8,2.3-17.5,4.2c-17.1,10.2-24.8,20-24.8,31.7
	c0,10.9,4.5,19.6,14.2,27.2c11.8,9.4,28.1,14,48.8,14c41.5,0,59.8-20.8,59.8-41.2c0-14.4-7.7-23.8-23.6-29.1
	C1484.6,1451.9,1463.8,1449.7,1439,1449.7L1439,1449.7z M1441.9,1547.8c-24.8,0-42.7-4.9-58.2-15.9c-15.1-10.6-21.6-26.4-21.6-37.4
	c0-3,0.8-11.3,8.1-18.9c4.5-4.5,14.2-13.2,37.4-27.9c0.8-0.4,1.2-0.8,1.2-1.5c0-0.8-0.8-1.5-1.6-1.9c-19.1-6.8-24.8-17.7-26.4-23.8
	v-0.8c-0.4-2.3-1.2-4.5,2.4-6.8c2.8-1.9,6.9-4.2,11.4-6.8c6.9-3.8,14.2-7.9,18.7-11.3c0.8-0.8,0.8-1.5,0.8-2.3s-0.8-1.5-1.6-1.9
	c-28.5-8.7-42.7-28.3-42.7-57.8c0-19.3,9.4-36.6,26-47.6c11.4-8.3,39.9-18.5,58.6-18.5h1.2c19.1,0.4,29.7,4.2,44.7,9.1
	c8.1,2.6,15.9,3.8,26.5,3.8c15.9,0,22.8-4.5,28.5-9.8c0.4,0.8,1.2,2.6,1.6,7.5s-1.2,12.1-5.3,17.4c-3.3,4.2-10.6,7.2-17.9,7.2h-2
	c-7.3-0.8-10.6-1.5-10.6-1.5l-1.6,0.8c-0.4,0.8,0,1.5,0.4,2.6l0.4,0.8c0.8,3.4,2.4,13.6,2.4,16.2c0,31-13.4,44.5-27.7,54.7
	c-13.8,9.4-29.7,15.5-47.6,17c-0.4,0-2,0-5.7,0.4c-2,0-4.9,0.4-5.3,0.4h-0.4c-3.3,0.8-11.4,4.5-11.4,10.9c0,5.7,3.7,12.5,21.2,13.6
	c3.7,0.4,7.3,0.4,11.4,0.8c23.2,1.5,52.1,3.4,65.5,7.5c18.7,6.4,30.5,21.9,30.5,40.4c0,27.9-21.6,54-57.4,70.2
	C1478.5,1544.1,1461,1547.8,1441.9,1547.8L1441.9,1547.8z M1673.7,1284.7c-8.5,0-16.3,1.9-22,5.7c-15.9,9.1-24,27.2-24,53.6
	c0,49.5,26.8,84.2,65.1,84.2c11.4,0,20.3-3,28.1-9.1c11.8-9.1,17.9-27.2,17.9-52.5C1738.8,1317.5,1712.4,1284.7,1673.7,1284.7
	L1673.7,1284.7z M1681.1,1446.3c-69.2,0-94-47.2-94-91.4c0-31,13.4-54.7,40.3-71.7c19.1-10.9,41.9-17,62.2-17
	c52.9,0,89.9,35.1,89.9,85.7c0,34.4-14.6,61.5-42.7,78.2C1723.4,1438.3,1700.2,1446.3,1681.1,1446.3L1681.1,1446.3L1681.1,1446.3z
	 M956.1,1284.7c-8.5,0-16.3,1.9-22,5.7c-15.9,9.1-24,27.2-24,53.6c0,49.5,26.8,84.2,65.1,84.2c11.4,0,20.3-3,28.1-9.1
	c11.8-9.1,17.9-27.2,17.9-52.5C1021.2,1317.5,995.2,1284.7,956.1,1284.7L956.1,1284.7z M963.4,1446.3c-69.2,0-94-47.2-94-91.4
	c0-31,13.4-54.7,40.3-71.7c19.1-10.9,41.9-17,62.2-17c52.9,0,89.9,35.1,89.9,85.7c0,34.4-14.6,61.5-42.7,78.2
	C1006.2,1438.3,983,1446.3,963.4,1446.3L963.4,1446.3z M498.4,1442.5c-0.8-1.1-1.6-4.5-1.2-8.7c0-3,0.8-4.9,1.2-5.7
	c8.5-1.1,13-2.3,17.9-3.4c8.1-1.9,11.4-6,11.8-15.5c1.2-22.7,1.2-65.7,0.8-95.5v-0.8c0-3.4,0-7.6-4.5-10.6
	c-6.5-3.8-14.2-7.2-24.4-9.8c-3.7-1.1-6.1-3-5.7-5.3c0-2.3,2.4-4.9,7.7-5.7c13.4-1.1,48.4-9.1,62.2-14.7c0.8,0.8,2,3,2,6l-0.4,4.1
	c-0.4,4.2-0.8,9.1-0.8,14c0,1.5,1.6,2.6,3.3,2.6c0.8,0,1.6-0.4,2.4-0.8c26-18.9,49.6-25.7,61.8-25.7c19.9,0,35.4,8.7,47.2,26.8
	c0.8,1.1,1.6,1.5,2.8,1.5c0.8,0,2-0.4,2.4-1.1c24-17,48-27.2,63.9-27.2c37.8,0,60.2,26.1,60.2,70.2c0,12.5,0,28.7-0.4,43.4
	c0,13.2-0.4,25.3-0.4,34c0,1.9,2.8,7.9,7.3,9.1c5.7,2.6,13.4,3.8,23.6,5.3h0.4c0.8,2.6-0.8,12.5-2.4,14.3c-2.4,0-6.1,0-10.2-0.4
	c-10.3-0.5-20.6-0.8-30.9-0.8c-25.2,0-38.2,0.4-50.9,1.1c-0.8-3-1.2-12.1,0-14.3c7.3-1.1,11-2.3,15.5-3.4
	c8.1-2.3,10.2-5.7,10.6-15.5c0-7.2,1.6-68.3-0.8-83.1c-2.4-15.1-14.6-32.8-41.5-32.8c-10.2,0-26,3.8-41.5,14.7
	c-0.8,0.8-1.6,2.6-1.6,3.8v0.4c1.6,7.9,1.6,17,1.6,31v24.5c0,17-0.4,32.8,0,44.9c0,8.3,5.3,10.2,9.8,11.7c2.4,0.4,4.1,0.8,6.1,1.1
	c3.7,0.8,7.3,1.5,13,2.6c0.8,1.5,0.8,6.4-0.4,10.6c-0.4,2.3-1.2,3.4-1.6,3.8c-13.8-0.4-28.1-0.8-48.8-0.8c-6.1,0-16.7,0.4-25.6,0.4
	c-7.3,0-14.2,0.4-18.3,0.4c-0.4-0.8-1.2-3.4-1.2-7.6c0-3.4,0.8-6,1.6-6.8c2-0.4,3.7-0.8,5.7-0.8c4.9-0.8,8.9-1.5,13-2.3
	c6.9-1.9,9.4-5.3,9.8-13.6c1.2-18.9,2.4-72.9-0.4-86.5c-4.9-21.9-18.3-32.8-39.9-32.8c-12.6,0-28.5,5.7-41.5,14.7
	c-2,1.5-3.7,5.3-3.7,8.7v22.3c0,27.2,0,61.2,0.4,75.9c0.4,4.5,2,9.8,11.4,11.7c2,0.4,5.3,1.1,9.4,1.5l7.3,1.1
	c0.8,2.3,0.4,11.3-1.2,14.3c-4.1,0-8.9-0.4-14.6-0.4c-8.5-0.4-19.5-0.8-31.7-0.8c-14.2,0-24.4,0.4-32.5,0.8
	C507.8,1442.5,503.3,1442.5,498.4,1442.5L498.4,1442.5z"/>
<path class="st2" d="M284.5,1533.1l-16.7-5.3c0,0,2-78.9-28.5-84.6c-20.3-21.9,3.3-928.8,76.5-3c0,0-25.2,11.7-29.7,31.7
	C281.2,1491.6,284.5,1533.1,284.5,1533.1L284.5,1533.1z"/>
<path class="st3" d="M284.5,1533.1l-16.7-5.3c0,0,2-78.9-28.5-84.6c-20.3-21.9,3.3-928.8,76.5-3c0,0-25.2,11.7-29.7,31.7
	C281.2,1491.6,284.5,1533.1,284.5,1533.1L284.5,1533.1z"/>
<path class="st2" d="M293.4,1456.8c0,0,146.1-89.1,111.9-274.5c-32.9-134.8-110.7-179-119.2-195.9c-9.4-12.1-18.3-33.2-18.3-33.2
	l6.1,374.9C273.9,1328.5,261.3,1442.9,293.4,1456.8"/>
<path class="st4" d="M293.4,1456.8c0,0,146.1-89.1,111.9-274.5c-32.9-134.8-110.7-179-119.2-195.9c-9.4-12.1-18.3-33.2-18.3-33.2
	l6.1,374.9C273.9,1328.5,261.3,1442.9,293.4,1456.8"/>
<path class="st2" d="M259.2,1461.8c0,0-137.1-86.8-129-239.7c7.7-152.9,104.6-228,123.3-241.6c12.2-12.1,12.6-16.6,13.4-28.7
	c8.5,17,6.9,254.1,8.1,282C278.8,1341.3,268.6,1441.4,259.2,1461.8z"/>
<path class="st5" d="M259.2,1461.8c0,0-137.1-86.8-129-239.7c7.7-152.9,104.6-228,123.3-241.6c12.2-12.1,12.6-16.6,13.4-28.7
	c8.5,17,6.9,254.1,8.1,282C278.8,1341.3,268.6,1441.4,259.2,1461.8z"/>
</svg>
