<?xml version="1.0" encoding="utf-8"?>
<!-- Generator: Adobe Illustrator 25.2.1, SVG Export Plug-In . SVG Version: 6.00 Build 0)  -->
<svg version="1.1" id="Capa_1" xmlns="http://www.w3.org/2000/svg" xmlns:xlink="http://www.w3.org/1999/xlink" x="0px" y="0px"
	 width="2500px" height="2500px" viewBox="0 0 2500 2500" style="enable-background:new 0 0 2500 2500;" xml:space="preserve">
<style type="text/css">
	.st0{fill:#007ACC;}
	.st1{fill:#FFFFFF;}
</style>
<path class="st0" d="M261.3,1239.6V285.7h1978.1v1907.6H261.3"/>
<path class="st1" d="M715.9,1310.7v79.5h253.5v721.6h179.9v-721.6h253.5v-78c0-43.9,0-79.5-2-80.4c0-1.5-154.6-2-342.3-2l-341.3,1.5
	v80L715.9,1310.7L715.9,1310.7z M1855.3,1229.3c49.7,11.7,87.8,34.1,121.9,69.7c18,19.5,44.9,53.6,46.8,62.4
	c0,2.9-84.3,60-135.5,91.7c-2,1.5-9.8-6.8-17.6-19.5c-25.4-36.1-51.2-51.7-91.7-54.6c-58.5-3.9-97.5,26.8-97.5,78
	c0,15.6,2.9,24.4,8.8,37.1c13.2,26.8,37.5,42.9,113.1,76.1c139.4,60,199.9,99.5,236.5,156c41.4,63.4,50.7,162.8,22.9,237.4
	c-31.2,81.4-107.3,136.5-216,154.6c-34.1,5.9-112.1,4.9-148.7-1.5c-78-14.6-152.6-53.6-198.4-103.8c-18-19.5-52.7-71.7-50.7-75.1
	l18.5-11.7l73.1-42.4l55.1-32.2l12.7,17.1c16.1,25.4,52.2,59.5,73.1,71.2c63.4,32.7,148.2,28.3,190.1-9.8
	c18-16.6,25.8-34.1,25.8-58.5c0-22.4-3.4-32.7-14.6-49.7c-15.6-21.5-46.8-39-134.6-78c-100.9-42.9-143.8-70.2-183.8-112.1
	c-22.9-25.4-43.9-64.8-53.6-97.5c-7.3-28.3-9.8-97.5-2.9-125.3c21-97.5,94.6-165.8,199.9-185.3c34.1-6.8,114.6-3.9,148.2,4.9
	L1855.3,1229.3L1855.3,1229.3z"/>
</svg>
