<?xml version="1.0" encoding="utf-8"?>
<!-- Generator: Adobe Illustrator 25.2.1, SVG Export Plug-In . SVG Version: 6.00 Build 0)  -->
<svg version="1.1" id="Capa_1" xmlns="http://www.w3.org/2000/svg" xmlns:xlink="http://www.w3.org/1999/xlink" x="0px" y="0px"
	 width="2500px" height="2500px" viewBox="0 0 2500 2500" style="enable-background:new 0 0 2500 2500;" xml:space="preserve">
<style type="text/css">
	.st0{fill:#563D7C;}
	.st1{fill:#FFFFFF;}
</style>
<path class="st0" d="M369.3,1901.9c0,125.2,101.5,226.7,226.7,226.7l0,0h1304.8c125.2,0,226.7-101.5,226.7-226.7l0,0V597.2
	c-0.5-124.9-101.8-225.8-226.7-225.8H596c-124.9,0-226.2,101-226.7,225.8V1901.9z"/>
<path class="st1" d="M1114.5,1192.6V934.8h229c21,0,42,1.7,62.8,5.3c18.7,2.6,36.8,8.5,53.4,17.6c15.6,9.4,28.5,22.8,37.3,38.7
	c10,19.7,14.8,41.6,14,63.7c3.5,38.4-12.2,76-41.9,100.5c-31.3,21.8-68.9,32.8-107,31.1L1114.5,1192.6z M871.3,744.7v1106.2h536.2
	c48.9,0.1,97.7-6.1,145-18.6c44.9-11.6,87.4-31,125.5-57.5c36.7-25.8,66.7-60.1,87.5-99.9c22.6-44.8,33.8-94.6,32.5-144.7
	c1.8-62.9-15.8-124.9-50.4-177.5c-36.9-51.4-91-88-152.5-103.1c44.9-20.1,83.7-51.7,112.5-91.6c26.5-41.6,39.6-90.2,37.8-139.5
	c1.3-44.6-7.3-88.9-25.4-129.6c-16.1-34.1-41-63.2-72.1-84.5c-33.8-22.4-71.7-38-111.5-45.8c-47.8-9.8-96.4-14.5-145.2-14
	L871.3,744.7L871.3,744.7z M1114.5,1662.2v-303.7h265c45.2-2.1,89.9,10.6,127.1,36.4c32.1,24.3,48.1,64.8,48.1,121.6
	c1,24.6-4.1,49-14.7,71.2c-9.1,17.9-22.8,33.2-39.6,44.2c-17.5,11.1-36.9,18.9-57.3,22.9c-22.6,4.7-45.6,7-68.7,6.9L1114.5,1662.2z"
	/>
</svg>
