<?xml version="1.0" encoding="utf-8"?>
<!-- Generator: Adobe Illustrator 25.2.1, SVG Export Plug-In . SVG Version: 6.00 Build 0)  -->
<svg version="1.1" id="Capa_1" xmlns="http://www.w3.org/2000/svg" xmlns:xlink="http://www.w3.org/1999/xlink" x="0px" y="0px"
	 width="2500px" height="2500px" viewBox="0 0 2500 2500" style="enable-background:new 0 0 2500 2500;" xml:space="preserve">
<style type="text/css">
	.st0{fill:#E44D26;}
	.st1{fill:#F16529;}
	.st2{fill:#EBEBEB;}
	.st3{fill:#FFFFFF;}
</style>
<path class="st0" d="M637,2148.4L498.2,591.9h1524.9l-138.9,1556.2l-624.4,173.1L637,2148.4z"/>
<path class="st1" d="M1260.7,2188.9l504.6-139.9L1884,719.2h-623.3V2188.9z"/>
<path class="st2" d="M1260.7,1296.4H1008L990.6,1101h270V910.1H782l4.6,51.2l46.9,526.1h427.2V1296.4z M1260.7,1792.2l-0.8,0.2
	l-212.6-57.4l-13.6-152.2H842l26.7,299.7l391,108.6l0.9-0.2L1260.7,1792.2L1260.7,1792.2z"/>
<path d="M640.1,168.9h97v95.8h88.7v-95.8h97v290.2h-97V362h-88.7v97.2h-97V168.9z M1050.4,265.2H965v-96.3h267.9v96.3h-85.4v194h-97
	L1050.4,265.2L1050.4,265.2z M1275.4,168.9h101.2l62.2,102l62.2-102h101.2v290.2h-96.6V315.3l-66.7,103.2h-1.7l-66.8-103.2v143.9
	h-94.9L1275.4,168.9L1275.4,168.9z M1650.4,168.9h97v194.3h136.4v95.9h-233.5L1650.4,168.9L1650.4,168.9z"/>
<path class="st3" d="M1260,1296.4v190.9h235.1l-22.2,247.6l-212.9,57.5V1991l391.3-108.5l2.9-32.3l44.9-502.6l4.7-51.3h-51.4
	L1260,1296.4z M1260,910.1V1101h461.1l3.8-42.9l8.7-96.8l4.6-51.2H1260z"/>
</svg>
