<svg xmlns="http://www.w3.org/2000/svg" xmlns:xlink="http://www.w3.org/1999/xlink" width="498.23" height="380.04" viewBox="0 0 498.23 380.04"><defs><style>.cls-1,.cls-11,.cls-17,.cls-2,.cls-21{fill:#fff;}.cls-14,.cls-16,.cls-17,.cls-18,.cls-19,.cls-2,.cls-20,.cls-8{stroke:#263238;}.cls-14,.cls-2,.cls-5{stroke-miterlimit:10;}.cls-3,.cls-5,.cls-7{fill:#263238;}.cls-3,.cls-4{opacity:0.2;}.cls-5{stroke:#fff;}.cls-6,.cls-8{fill:#00bcd4;}.cls-16,.cls-17,.cls-18,.cls-19,.cls-20,.cls-8{stroke-linecap:round;stroke-linejoin:round;}.cls-9{clip-path:url(#clip-path);}.cls-10{fill:#92e3a9;}.cls-11,.cls-12{opacity:0.5;}.cls-13,.cls-14,.cls-16{fill:none;}.cls-15{clip-path:url(#clip-path-2);}.cls-18{fill:#757575;}.cls-19{fill:#999;}.cls-20{fill:#bfbfbf;}.cls-21{opacity:0.1;}.cls-22{clip-path:url(#clip-path-3);}</style><clipPath id="clip-path" transform="translate(-8.76 -15.11)"><path class="cls-1" d="M347.67,313.63l.12-44.21c.48-1.78.87-8.34,1.89-12.91,1.74-7.66-5.1-16.9-5.58-17.2-1.92-1.2-6-1.17-6-1.17s-4-4.57-7.57-6a17.87,17.87,0,0,0-7.66-1,36.61,36.61,0,0,0-9.1-5.51,7.49,7.49,0,0,0-7.66,1.44l-4.47,7a5.21,5.21,0,0,0,.61,6.52c2.14,2.1,4.88,1.12,6.26,1.12,1.91,0,2.63-2.16,2.63-2.16s.47,11.25,0,12.69h0c-.49,1.43-4.07,4.78-4.07,4.78l-12-15.83a115,115,0,0,1-10.77-17.78,8.75,8.75,0,0,0-1.35-2.1c-2.1-2.37-6.59-3.07-7.76,1.33a8.7,8.7,0,0,0,.19,4.24c5,14.78,11.38,26,17.19,37.59,3.45,6.91,2.17,6.83,3.89,9.95-.2.14-.1.4-.32.53-.84,3.36-1.43,6.73-2.28,10.09a46,46,0,0,0-3.83-12.18,27.5,27.5,0,0,0,.53-7.12,9.38,9.38,0,0,0-3-6.31,6.17,6.17,0,0,0-3.49-1.36,3.64,3.64,0,0,0-3.84,3.11,37.4,37.4,0,0,1-1,5.42,53.8,53.8,0,0,1-2.76,6.79c0,4.47,2.76,3.74,4.77,21.68,1.56,14,19.56,23.21,29.36,33.3l30.44,62.85c12.13-4.85,33.73,1.93,44.85-5.29Z"/></clipPath><clipPath id="clip-path-2" transform="translate(-8.76 -15.11)"><path class="cls-1" d="M237.2,261.57c-.43-2-3.24-1.69-3.24-1.69-9.45.56-10.72,15.36-10.72,15.36l-3.39,10.15-1-15.26.1-19.67s2.86-18.82,1.59-21.77a4.31,4.31,0,0,0-3.91-2.86c-5.5-1.38-5.82,6.55-5.82,6.55l-4.64,16.18L204.21,266l-1.58-.85s-.75-18.51-.43-18.82,2.22-12.8,2.22-12.8,1.05-2.32,2.33-5.28a6.42,6.42,0,0,0,0-5.29c-2.23-4.54-6.87-2.43-7.83,0a70.39,70.39,0,0,1-3.8,7.19l-5.3,14.49c.2,3.28-1.68,19.46-1.68,19.46l-1.91-.87-3.07-9.5L185.5,244s5.07-5.6,4.22-8.88-5.18-2.32-5.18-2.32l-8.66,10.35h-2.55l-6,7.62a48.27,48.27,0,0,0-1.38,25.29l1.38,6.43v41.56s-4.12,6.66-4.12,7.29c0,.29-27.7,47.54-30.07,54.09,10.37,6.1,25.3-1.18,31.63,1.31,3,1.18,6,2.3,9,3.37,3.8-10.67,28.24-52.09,30.69-54.75,4.86-5.29,14.38-15.44,14.38-15.44s10.81-17.37,12.08-23.15c1-4.74,3.58-13.34,4.46-16.29a5.8,5.8,0,0,0,.24-2.07c-.07-1.56-.22-4.59-.22-7.26C235.36,267.35,237.62,263.54,237.2,261.57Z"/></clipPath><clipPath id="clip-path-3" transform="translate(-8.76 -15.11)"><path class="cls-2" d="M470,242.27a71.82,71.82,0,0,1-1,11.86c-2.9,17.31-12,29.93-22.76,29.93a14.39,14.39,0,0,1-2.86-.3c-11.75-2.49-20.86-20.11-20.86-41.49,0-23.09,10.62-31.25,23.72-31.25S470,219.18,470,242.27Z"/></clipPath></defs><g id="Plants"><path class="cls-3" d="M12.14,187.41c-.2-.13-.15-.22,0,0Z" transform="translate(-8.76 -15.11)"/><path class="cls-4" d="M105.67,178.59A18.32,18.32,0,0,1,93.1,193.06l-2.48.81c-8.92,12.63-24.56,18-37.89,10.19l-3.9-2.29-10.92-13-.13,0c-3.46.72-7.37.19-9.93-2.25a3.57,3.57,0,0,1-5.07,2.3,3.57,3.57,0,0,1-.44-5.55c-2.2,1.94-5.6,1.05-7.72-1.07a66.7,66.7,0,0,1,2-17.29A69.72,69.72,0,0,1,20,154.71a72.21,72.21,0,0,1,3.59-7.34c.1-.2.22-.41.34-.61a87.87,87.87,0,0,1,6.65-10l1.26-1.14c1-.87,1.91-1.72,2.88-2.58l.18-.16q2.32-2,4.71-4c2.45-2.05,4.94-4.06,7.45-6.06l.25-.2c2.15-1.7,4.32-3.39,6.48-5.07L57.07,115a8.94,8.94,0,0,1,1.92.45c2.67.93,3.13,3.38,5,5.06,2.46,2.25,4.82-1.53,8.61-1.41,11.65.36,7.13,12.31,12.82,10.81,24.57-6.48,20.44,25,9.76,31.85C101.46,167,106.89,170.41,105.67,178.59Z" transform="translate(-8.76 -15.11)"/><ellipse class="cls-2" cx="44.08" cy="152.43" rx="41.44" ry="40.93"/><ellipse class="cls-5" cx="44.08" cy="150.77" rx="37.78" ry="37.32"/><path class="cls-6" d="M12.24,180.59c-2.38,1.48-3.06,6.45-1.19,8.61s5.46.48,6.19-2.87a1.12,1.12,0,0,0,2,.28,2.3,2.3,0,0,0,.14-2.1c-.18-.16-.11-.26,0,0,1.22,1,3.32-.09,3.61-2.16-.89,5.5,4.11,10.3,7.79,7.5-1.09,2.34.34,5.41,2.24,6s3.94-.53,5.76-1.78,3.69-2.66,5.68-2.75c1.73-.08,3.34.89,5,1.48,5.26,1.83,11.42-.6,15.44-6.11,2.66,4.55,9.21,2.87,11-2.8.37,2.66,2.18,4.68,4.21,4.7s4.06-1.94,4.76-4.57v0c0,2.51,2.28,3.74,3.88,2.13A9.4,9.4,0,0,0,91,177.3c2.72-.1,5.36-3.27,5.77-6.93s-1.43-7.33-4.06-8.05c4.52-1.87,8-8,8.22-14.29s-3.06-12.09-7.49-13.56a4.72,4.72,0,0,0-5.08,1.07c-.53-3.57-2.15-6.76-4.54-8.36-3.8-2.57-9.09-.81-11.92,4a9.41,9.41,0,0,0,.22-8.38c-1.26-2.34-3.76-3.27-5.88-2.17-.45-3.83-3.41-6.55-6.3-5.81s-5.22,4.84-5,8.71c-.27-3.12-3.95-3.89-5.28-1.27.11.23-.06.09,0,0-1.84-3.86-5.58-5.84-9-4.72-3.69,1.21-6.79,5.85-7.27,10.91a6.52,6.52,0,0,0-9,.24c-2.73,2.46-4.31,7.15-3.83,11.33-2.87-2.83-7.7-1.29-9.67,3.1s-.62,10.58,2.71,12.42c-2.29.34-4.31,3.39-4.31,6.47s2,5.72,4.33,5.64c-2.32.2-4.51,2.94-4.85,6S10,179.9,12.24,180.59Z" transform="translate(-8.76 -15.11)"/></g><g id="Keyboard"><polygon class="cls-7" points="136.93 183.42 141.75 181.81 364.46 181.81 367.63 183.4 136.93 183.42"/><rect class="cls-8" x="136.93" y="182.8" width="230.67" height="97.15"/><rect class="cls-2" x="141.75" y="188.68" width="21.7" height="12.01"/><rect class="cls-2" x="328.07" y="247.24" width="34.18" height="12.01"/><rect class="cls-2" x="341.16" y="203.68" width="21.1" height="12.01"/><rect class="cls-2" x="141.75" y="232.43" width="21.7" height="12.01"/><rect class="cls-2" x="141.75" y="217.96" width="17.57" height="12.01"/><rect class="cls-2" x="141.75" y="203.32" width="12.01" height="12.01"/><rect class="cls-2" x="157.08" y="203.32" width="12.01" height="12.01"/><rect class="cls-2" x="172.41" y="203.32" width="12.01" height="12.01"/><rect class="cls-2" x="187.75" y="203.32" width="12.01" height="12.01"/><rect class="cls-2" x="203.08" y="203.32" width="12.01" height="12.01"/><rect class="cls-2" x="218.41" y="203.32" width="12.01" height="12.01"/><rect class="cls-2" x="233.75" y="203.32" width="12.01" height="12.01"/><rect class="cls-2" x="249.08" y="203.32" width="12.01" height="12.01"/><rect class="cls-2" x="264.41" y="203.32" width="12.01" height="12.01"/><rect class="cls-2" x="279.75" y="203.32" width="12.01" height="12.01"/><rect class="cls-2" x="295.08" y="203.32" width="12.01" height="12.01"/><rect class="cls-2" x="310.42" y="203.32" width="12.01" height="12.01"/><rect class="cls-2" x="325.75" y="203.32" width="12.01" height="12.01"/><rect class="cls-2" x="141.75" y="262.05" width="12.01" height="12.01"/><rect class="cls-2" x="157.08" y="262.05" width="12.01" height="12.01"/><rect class="cls-2" x="172.41" y="262.05" width="12.01" height="12.01"/><rect class="cls-2" x="187.75" y="262.05" width="14.66" height="12.01"/><rect class="cls-2" x="205.72" y="262.05" width="73.35" height="12.01"/><rect class="cls-2" x="303.73" y="262.05" width="12.01" height="12.01"/><rect class="cls-2" x="319.07" y="262.05" width="12.01" height="12.01"/><rect class="cls-2" x="334.43" y="262.05" width="12.01" height="12.01"/><rect class="cls-2" x="282.07" y="262.05" width="18.65" height="12.01"/><rect class="cls-2" x="350.24" y="262.05" width="12.01" height="12.01"/><rect class="cls-2" x="162.72" y="217.96" width="12.01" height="12.01"/><rect class="cls-2" x="178.06" y="217.96" width="12.01" height="12.01"/><rect class="cls-2" x="193.39" y="217.96" width="12.01" height="12.01"/><rect class="cls-2" x="208.72" y="217.96" width="12.01" height="12.01"/><rect class="cls-2" x="224.06" y="217.96" width="12.01" height="12.01"/><rect class="cls-2" x="239.39" y="217.96" width="12.01" height="12.01"/><rect class="cls-2" x="254.73" y="217.96" width="12.01" height="12.01"/><rect class="cls-2" x="270.06" y="217.96" width="12.01" height="12.01"/><rect class="cls-2" x="285.39" y="217.96" width="12.01" height="12.01"/><rect class="cls-2" x="300.73" y="217.96" width="12.01" height="12.01"/><rect class="cls-2" x="316.06" y="217.96" width="12.01" height="12.01"/><rect class="cls-2" x="331.39" y="217.96" width="12.01" height="12.01"/><polygon class="cls-2" points="362.26 217.96 362.26 244.62 350.25 244.62 350.25 229.97 346.72 229.97 346.72 217.96 362.26 217.96"/><rect class="cls-2" x="166.24" y="232.6" width="12.01" height="12.01"/><rect class="cls-2" x="181.57" y="232.6" width="12.01" height="12.01"/><rect class="cls-2" x="196.91" y="232.6" width="12.01" height="12.01"/><rect class="cls-2" x="212.24" y="232.6" width="12.01" height="12.01"/><rect class="cls-2" x="227.57" y="232.6" width="12.01" height="12.01"/><rect class="cls-2" x="242.91" y="232.6" width="12.01" height="12.01"/><rect class="cls-2" x="258.24" y="232.6" width="12.01" height="12.01"/><rect class="cls-2" x="273.58" y="232.6" width="12.01" height="12.01"/><rect class="cls-2" x="288.91" y="232.6" width="12.01" height="12.01"/><rect class="cls-2" x="304.24" y="232.6" width="12.01" height="12.01"/><rect class="cls-2" x="319.58" y="232.6" width="12.01" height="12.01"/><rect class="cls-2" x="334.91" y="232.6" width="12.01" height="12.01"/><rect class="cls-2" x="159.72" y="247.24" width="12.01" height="12.01"/><rect class="cls-2" x="175.06" y="247.24" width="12.01" height="12.01"/><rect class="cls-2" x="190.39" y="247.24" width="12.01" height="12.01"/><rect class="cls-2" x="205.72" y="247.24" width="12.01" height="12.01"/><rect class="cls-2" x="221.06" y="247.24" width="12.01" height="12.01"/><rect class="cls-2" x="236.39" y="247.24" width="12.01" height="12.01"/><rect class="cls-2" x="251.73" y="247.24" width="12.01" height="12.01"/><rect class="cls-2" x="267.06" y="247.24" width="12.01" height="12.01"/><rect class="cls-2" x="282.39" y="247.24" width="12.01" height="12.01"/><rect class="cls-2" x="297.73" y="247.24" width="12.01" height="12.01"/><rect class="cls-2" x="313.06" y="247.24" width="12.01" height="12.01"/><rect class="cls-2" x="166.24" y="189.4" width="12.01" height="12.01"/><rect class="cls-2" x="181.57" y="189.4" width="12.01" height="12.01"/><rect class="cls-2" x="196.91" y="189.4" width="12.01" height="12.01"/><rect class="cls-2" x="212.24" y="189.4" width="12.01" height="12.01"/><rect class="cls-2" x="227.57" y="189.4" width="12.01" height="12.01"/><rect class="cls-2" x="242.91" y="189.4" width="12.01" height="12.01"/><rect class="cls-2" x="258.24" y="189.4" width="12.01" height="12.01"/><rect class="cls-2" x="273.58" y="189.4" width="12.01" height="12.01"/><rect class="cls-2" x="288.91" y="189.4" width="12.01" height="12.01"/><rect class="cls-2" x="304.24" y="189.4" width="12.01" height="12.01"/><rect class="cls-2" x="319.58" y="189.4" width="12.01" height="12.01"/><rect class="cls-2" x="334.91" y="189.4" width="12.01" height="12.01"/><rect class="cls-2" x="350.24" y="189.4" width="12.01" height="12.01"/><rect class="cls-2" x="141.75" y="247.24" width="14.55" height="12.01"/></g><g id="Hands"><path class="cls-4" d="M330.33,395.15,305.64,336.9a23.07,23.07,0,0,0-6.35-11.06c-9.33-9-21.66-18.24-22.19-30-.81-18-3.62-17.49-3.32-21.94a54.06,54.06,0,0,0,3.21-6.6,38.47,38.47,0,0,0,1.36-5.34,3.64,3.64,0,0,1,4-2.85,6.19,6.19,0,0,1,3.39,1.59,9.39,9.39,0,0,1,2.54,6.5,27.79,27.79,0,0,1-1,7.06,46.16,46.16,0,0,1,3,12.41c1.07-3.3,1.88-6.63,2.95-9.92.22-.12.14-.38.35-.5-1.51-3.24-.23-3.06-3.22-10.19-5-12-10.64-23.57-14.65-38.65a8.57,8.57,0,0,1,.09-4.24c1.45-4.31,5.89-3.32,7.83-.81a8.28,8.28,0,0,1,1.2,2.18A116.46,116.46,0,0,0,294.45,243l10.89,16.6s3.79-3.11,4.37-4.5h0c.57-1.4.85-12.67.85-12.67s-.86,2.11-2.77,2c-1.38-.1-4.18.7-6.17-1.54a5.21,5.21,0,0,1-.18-6.54l4.93-6.66a7.48,7.48,0,0,1,7.74-.93,36.82,36.82,0,0,1,8.71,6.1,17.81,17.81,0,0,1,7.58,1.46c3.49,1.68,7.15,6.5,7.15,6.5s4.07.25,5.9,1.58c.46.33,6.67,10,4.43,17.53-1.33,4.49-2.15,11-2.75,12.76l-3.05,44.09,36.15,72-23.15-5.67A94,94,0,0,1,340,391.82Z" transform="translate(-8.76 -15.11)"/><path class="cls-1" d="M347.67,313.63l.12-44.21c.48-1.78.87-8.34,1.89-12.91,1.74-7.66-5.1-16.9-5.58-17.2-1.92-1.2-6-1.17-6-1.17s-4-4.57-7.57-6a17.87,17.87,0,0,0-7.66-1,36.61,36.61,0,0,0-9.1-5.51,7.49,7.49,0,0,0-7.66,1.44l-4.47,7a5.21,5.21,0,0,0,.61,6.52c2.14,2.1,4.88,1.12,6.26,1.12,1.91,0,2.63-2.16,2.63-2.16s.47,11.25,0,12.69h0c-.49,1.43-4.07,4.78-4.07,4.78l-12-15.83a115,115,0,0,1-10.77-17.78,8.75,8.75,0,0,0-1.35-2.1c-2.1-2.37-6.59-3.07-7.76,1.33a8.7,8.7,0,0,0,.19,4.24c5,14.78,11.38,26,17.19,37.59,3.45,6.91,2.17,6.83,3.89,9.95-.2.14-.1.4-.32.53-.84,3.36-1.43,6.73-2.28,10.09a46,46,0,0,0-3.83-12.18,27.5,27.5,0,0,0,.53-7.12,9.38,9.38,0,0,0-3-6.31,6.17,6.17,0,0,0-3.49-1.36,3.64,3.64,0,0,0-3.84,3.11,37.4,37.4,0,0,1-1,5.42,53.8,53.8,0,0,1-2.76,6.79c0,4.47,2.76,3.74,4.77,21.68,1.56,14,19.56,23.21,29.36,33.3l30.44,62.85c12.13-4.85,33.73,1.93,44.85-5.29Z" transform="translate(-8.76 -15.11)"/><g class="cls-9"><path class="cls-10" d="M342.55,253.56a7.64,7.64,0,0,1,2.29-3.46,2.92,2.92,0,0,1,3.83.13q-1.12-3.43-2.38-6.83a10.56,10.56,0,0,0-2.78-4.68c-1.42-1.16-3.76-1.4-5,0a54,54,0,0,1,.28,15.8c-.37,2.84-.85,6.11,1.06,8.24.53.43,1.45-.34,1.11-.93-.16-.28-.72-.3-1-.28A50.82,50.82,0,0,1,342.55,253.56Z" transform="translate(-8.76 -15.11)"/><path class="cls-10" d="M342.55,253.56a7.64,7.64,0,0,1,2.29-3.46,2.92,2.92,0,0,1,3.83.13q-1.12-3.43-2.38-6.83a10.56,10.56,0,0,0-2.78-4.68c-1.42-1.16-3.76-1.4-5,0a54,54,0,0,1,.28,15.8c-.37,2.84-.85,6.11,1.06,8.24.53.43,1.45-.34,1.11-.93-.16-.28-.72-.3-1-.28A50.82,50.82,0,0,1,342.55,253.56Z" transform="translate(-8.76 -15.11)"/><path class="cls-11" d="M342.55,253.56a7.64,7.64,0,0,1,2.29-3.46,2.92,2.92,0,0,1,3.83.13q-1.12-3.43-2.38-6.83a10.56,10.56,0,0,0-2.78-4.68c-1.42-1.16-3.76-1.4-5,0a54,54,0,0,1,.28,15.8c-.37,2.84-.85,6.11,1.06,8.24.53.43,1.45-.34,1.11-.93-.16-.28-.72-.3-1-.28A50.82,50.82,0,0,1,342.55,253.56Z" transform="translate(-8.76 -15.11)"/><path class="cls-10" d="M326.59,248.82a28.1,28.1,0,0,0,.54,5.73,7.13,7.13,0,0,0,3.2,4.62c-1-3.73-.46-7.67.08-11.48l1-7a5.17,5.17,0,0,1,.71-2.32,1.8,1.8,0,0,1,2.11-.76c-1,.58-2.27-.2-2.87-1.18a29.42,29.42,0,0,0-1.53-3.08c-1.34-1.72-4.2-2.1-6.18-1.64C324.24,237.46,326.36,242.91,326.59,248.82Z" transform="translate(-8.76 -15.11)"/><path class="cls-10" d="M326.59,248.82a28.1,28.1,0,0,0,.54,5.73,7.13,7.13,0,0,0,3.2,4.62c-1-3.73-.46-7.67.08-11.48l1-7a5.17,5.17,0,0,1,.71-2.32,1.8,1.8,0,0,1,2.11-.76c-1,.58-2.27-.2-2.87-1.18a29.42,29.42,0,0,0-1.53-3.08c-1.34-1.72-4.2-2.1-6.18-1.64C324.24,237.46,326.36,242.91,326.59,248.82Z" transform="translate(-8.76 -15.11)"/><g class="cls-12"><path class="cls-1" d="M326.59,248.82a28.1,28.1,0,0,0,.54,5.73,7.13,7.13,0,0,0,3.2,4.62c-1-3.73-.46-7.67.08-11.48l1-7a5.17,5.17,0,0,1,.71-2.32,1.8,1.8,0,0,1,2.11-.76c-1,.58-2.27-.2-2.87-1.18a29.42,29.42,0,0,0-1.53-3.08c-1.34-1.72-4.2-2.1-6.18-1.64C324.24,237.46,326.36,242.91,326.59,248.82Z" transform="translate(-8.76 -15.11)"/></g><path class="cls-10" d="M310.27,233.4a3.51,3.51,0,0,1-1.06-2.1,3,3,0,0,0-1.17-2c-3.07,1.95-1.39,7.66-4.5,9.55-.6.37-1.37.58-1.7,1.2a1.58,1.58,0,0,0,.33,1.76,3,3,0,0,0,1.7.8,6.85,6.85,0,0,0,6.54-2.84c1.22-1.68,2.06-4.39,1.46-6.37A1.54,1.54,0,0,1,310.27,233.4Z" transform="translate(-8.76 -15.11)"/><path class="cls-10" d="M278.34,270.79c0,.21-.09.48.08.62s.61-.12.81-.4a5.35,5.35,0,0,1,5.95-1.93c.81,0,1.09-1.25.56-1.86a2.86,2.86,0,0,0-2.24-.72,4.46,4.46,0,0,1-2.36-.39,2.34,2.34,0,0,1-1-2.52C279.63,266,279,268.39,278.34,270.79Z" transform="translate(-8.76 -15.11)"/><g class="cls-12"><path class="cls-1" d="M310.27,233.4a3.51,3.51,0,0,1-1.06-2.1,3,3,0,0,0-1.17-2c-3.07,1.95-1.39,7.66-4.5,9.55-.6.37-1.37.58-1.7,1.2a1.58,1.58,0,0,0,.33,1.76,3,3,0,0,0,1.7.8,6.85,6.85,0,0,0,6.54-2.84c1.22-1.68,2.06-4.39,1.46-6.37A1.54,1.54,0,0,1,310.27,233.4Z" transform="translate(-8.76 -15.11)"/><path class="cls-1" d="M278.34,270.79c0,.21-.09.48.08.62s.61-.12.81-.4a5.35,5.35,0,0,1,5.95-1.93c.81,0,1.09-1.25.56-1.86a2.86,2.86,0,0,0-2.24-.72,4.46,4.46,0,0,1-2.36-.39,2.34,2.34,0,0,1-1-2.52C279.63,266,279,268.39,278.34,270.79Z" transform="translate(-8.76 -15.11)"/></g><path class="cls-10" d="M319.06,232.64c-1.75-.23-3.6-.28-5.13-1.17-1.9-1.12-3.21-3.51-5.42-3.6-2-.09-3.43,1.71-4.54,3.33a6.07,6.07,0,0,1,3.94-5.63,9.78,9.78,0,0,1,7.15.28,27.13,27.13,0,0,1,6.2,3.86,8.53,8.53,0,0,1,2.1,2C325.83,235.65,320.6,232.85,319.06,232.64Z" transform="translate(-8.76 -15.11)"/><path class="cls-11" d="M319.06,232.64c-1.75-.23-3.6-.28-5.13-1.17-1.9-1.12-3.21-3.51-5.42-3.6-2-.09-3.43,1.71-4.54,3.33a6.07,6.07,0,0,1,3.94-5.63,9.78,9.78,0,0,1,7.15.28,27.13,27.13,0,0,1,6.2,3.86,8.53,8.53,0,0,1,2.1,2C325.83,235.65,320.6,232.85,319.06,232.64Z" transform="translate(-8.76 -15.11)"/><path class="cls-10" d="M287.78,289.43c.12-.22.22-.44.32-.67A.76.76,0,0,0,287.78,289.43Z" transform="translate(-8.76 -15.11)"/><path class="cls-10" d="M290.75,273.94c-.2-2.46.15-4.94.05-7.41s-.75-5.07-2.55-6.77c-2.58-2.43-9.65-1.19-7.28,3.43a3,3,0,0,0,3.67,1.37,2.68,2.68,0,0,0,1.25-3.62,12.82,12.82,0,0,1-.61,14.57,11.62,11.62,0,0,1,2.82,13.25,1.46,1.46,0,0,1,1.65,0A5,5,0,0,1,291,291c.35.8,1,1.65,1.88,1.59,1.2-3,.81-6.3,0-9.38S291,277.11,290.75,273.94Z" transform="translate(-8.76 -15.11)"/><path class="cls-10" d="M316.62,227.57a10,10,0,0,0-4.73-2Z" transform="translate(-8.76 -15.11)"/><path class="cls-10" d="M328.38,258.86c-.38-1.7-1.17-3.28-1.64-5-1.09-3.91-.4-8.09-.9-12.12a20.92,20.92,0,0,0-7.43-13.45l-1.79-.76a10.05,10.05,0,0,1,3.6,5.24c1.39,4.77,1.82,9.76,2.44,14.7a197.5,197.5,0,0,0,4.15,22.61C328,266.47,329.21,262.6,328.38,258.86Z" transform="translate(-8.76 -15.11)"/><path class="cls-10" d="M309.34,241.08a6.29,6.29,0,0,0,2.11-4.11,17,17,0,0,0-.11-4.22,1.38,1.38,0,0,1-1.58.94,3.51,3.51,0,0,1-1.89-1.72l-.36,1.26-.15-.68-.48.61c.71,2,1.4,4.33.3,6.16a7.23,7.23,0,0,1-2.25,2.08A3.8,3.8,0,0,0,309.34,241.08Z" transform="translate(-8.76 -15.11)"/><path class="cls-10" d="M311.28,232.25l.06.5A.79.79,0,0,0,311.28,232.25Z" transform="translate(-8.76 -15.11)"/><path class="cls-10" d="M306.05,252.49c-3.5-6.89-7-13.78-10.87-20.48a66.25,66.25,0,0,0-7.64-11.17c-1.34-1.49-5.16-5-7.27-2.67-1.41,1.52.44,4.28-1.29,5.93.4,0,2.35-.19,2.56.06a30.46,30.46,0,0,1,6.71,19.4c1.41-1.11,3.35.43,4.45,1.84a328.24,328.24,0,0,1,19,27.11c-1.14-4.14-1.17-8.52-2.39-12.62A45,45,0,0,0,306.05,252.49Z" transform="translate(-8.76 -15.11)"/><path class="cls-10" d="M346.79,269.28a43.81,43.81,0,0,0,3.13-13.84,22.65,22.65,0,0,0-3.14-12.53c-.58-.94-3-4.77-4.29-4.46-2.35.56.73,4.64,1.27,5.66,2,3.85,4.11,7.92,4,12.27-.1,3.35-1.51,6.5-2.64,9.65a20.74,20.74,0,0,0-1.41,6.86c-.17.26-.33.53-.52.77a10.21,10.21,0,0,1-6.28,4.14c1-3,1.93-6,2.9-8.95.35-1.06.47-2.52-.15-3.26a2.8,2.8,0,0,0,.31-1.3,6.61,6.61,0,0,0-.85-2.3c-1.34-2.88-.89-6.23-.56-9.39.4-3.9.55-7.91-.59-11.66s-3.79-7.23-7.51-8.47l1,1-1.26-.91,2.34,4.87-.86,1.24c1.29-.68,2.94.3,3.53,1.63a8.58,8.58,0,0,1,.29,4.31,86.2,86.2,0,0,0,1.18,24.26,11.82,11.82,0,0,1-1.44,5.33,5.27,5.27,0,0,1-5,2.71,5.26,5.26,0,0,0-1.93-5.33c-2,2.8-.82,7.15-.52,10.34a112.45,112.45,0,0,0,2.33,14.36,46.42,46.42,0,0,1,2.55-12q1.62,5.92,3.26,11.85a6.94,6.94,0,0,1,.62-3.23,2.41,2.41,0,0,1,2.76-1.28,3.41,3.41,0,0,1,1.65,2.06,36.75,36.75,0,0,1,2,21.63c1.34.75,3.12-.15,3.87-1.5a9,9,0,0,0,.71-4.49Q347.13,289.29,346.79,269.28Z" transform="translate(-8.76 -15.11)"/><path class="cls-10" d="M312.89,273.51c-.64,1.12,2,5.58,2.41,6.64l6.61,16.14a76.47,76.47,0,0,0-5.12-20.67C316.34,274.51,314.16,271.28,312.89,273.51Z" transform="translate(-8.76 -15.11)"/><path class="cls-10" d="M316.31,245c-.38.57-.91,1.27-1.56,1.07s-.72-1-.71-1.63q.1-5.61.19-11.23c-3,2.17-2.64,5-2.85,8.24-.12,1.87.42,10.79-.86,11.89a33.33,33.33,0,0,0,7.44-9.06C317.44,243.84,316.68,244.42,316.31,245Z" transform="translate(-8.76 -15.11)"/><g class="cls-12"><path class="cls-1" d="M287.78,289.43c.12-.22.22-.44.32-.67A.76.76,0,0,0,287.78,289.43Z" transform="translate(-8.76 -15.11)"/><path class="cls-1" d="M290.75,273.94c-.2-2.46.15-4.94.05-7.41s-.75-5.07-2.55-6.77c-2.58-2.43-9.65-1.19-7.28,3.43a3,3,0,0,0,3.67,1.37,2.68,2.68,0,0,0,1.25-3.62,12.82,12.82,0,0,1-.61,14.57,11.62,11.62,0,0,1,2.82,13.25,1.46,1.46,0,0,1,1.65,0A5,5,0,0,1,291,291c.35.8,1,1.65,1.88,1.59,1.2-3,.81-6.3,0-9.38S291,277.11,290.75,273.94Z" transform="translate(-8.76 -15.11)"/><path class="cls-1" d="M316.62,227.57a10,10,0,0,0-4.73-2Z" transform="translate(-8.76 -15.11)"/><path class="cls-1" d="M328.38,258.86c-.38-1.7-1.17-3.28-1.64-5-1.09-3.91-.4-8.09-.9-12.12a20.92,20.92,0,0,0-7.43-13.45l-1.79-.76a10.05,10.05,0,0,1,3.6,5.24c1.39,4.77,1.82,9.76,2.44,14.7a197.5,197.5,0,0,0,4.15,22.61C328,266.47,329.21,262.6,328.38,258.86Z" transform="translate(-8.76 -15.11)"/><path class="cls-1" d="M309.34,241.08a6.29,6.29,0,0,0,2.11-4.11,17,17,0,0,0-.11-4.22,1.38,1.38,0,0,1-1.58.94,3.51,3.51,0,0,1-1.89-1.72l-.36,1.26-.15-.68-.48.61c.71,2,1.4,4.33.3,6.16a7.23,7.23,0,0,1-2.25,2.08A3.8,3.8,0,0,0,309.34,241.08Z" transform="translate(-8.76 -15.11)"/><path class="cls-1" d="M311.28,232.25l.06.5A.79.79,0,0,0,311.28,232.25Z" transform="translate(-8.76 -15.11)"/><path class="cls-1" d="M306.05,252.49c-3.5-6.89-7-13.78-10.87-20.48a66.25,66.25,0,0,0-7.64-11.17c-1.34-1.49-5.16-5-7.27-2.67-1.41,1.52.44,4.28-1.29,5.93.4,0,2.35-.19,2.56.06a30.46,30.46,0,0,1,6.71,19.4c1.41-1.11,3.35.43,4.45,1.84a328.24,328.24,0,0,1,19,27.11c-1.14-4.14-1.17-8.52-2.39-12.62A45,45,0,0,0,306.05,252.49Z" transform="translate(-8.76 -15.11)"/><path class="cls-1" d="M346.79,269.28a43.81,43.81,0,0,0,3.13-13.84,22.65,22.65,0,0,0-3.14-12.53c-.58-.94-3-4.77-4.29-4.46-2.35.56.73,4.64,1.27,5.66,2,3.85,4.11,7.92,4,12.27-.1,3.35-1.51,6.5-2.64,9.65a20.74,20.74,0,0,0-1.41,6.86c-.17.26-.33.53-.52.77a10.21,10.21,0,0,1-6.28,4.14c1-3,1.93-6,2.9-8.95.35-1.06.47-2.52-.15-3.26a2.8,2.8,0,0,0,.31-1.3,6.61,6.61,0,0,0-.85-2.3c-1.34-2.88-.89-6.23-.56-9.39.4-3.9.55-7.91-.59-11.66s-3.79-7.23-7.51-8.47l1,1-1.26-.91,2.34,4.87-.86,1.24c1.29-.68,2.94.3,3.53,1.63a8.58,8.58,0,0,1,.29,4.31,86.2,86.2,0,0,0,1.18,24.26,11.82,11.82,0,0,1-1.44,5.33,5.27,5.27,0,0,1-5,2.71,5.26,5.26,0,0,0-1.93-5.33c-2,2.8-.82,7.15-.52,10.34a112.45,112.45,0,0,0,2.33,14.36,46.42,46.42,0,0,1,2.55-12q1.62,5.92,3.26,11.85a6.94,6.94,0,0,1,.62-3.23,2.41,2.41,0,0,1,2.76-1.28,3.41,3.41,0,0,1,1.65,2.06,36.75,36.75,0,0,1,2,21.63c1.34.75,3.12-.15,3.87-1.5a9,9,0,0,0,.71-4.49Q347.13,289.29,346.79,269.28Z" transform="translate(-8.76 -15.11)"/><path class="cls-1" d="M312.89,273.51c-.64,1.12,2,5.58,2.41,6.64l6.61,16.14a76.47,76.47,0,0,0-5.12-20.67C316.34,274.51,314.16,271.28,312.89,273.51Z" transform="translate(-8.76 -15.11)"/><path class="cls-1" d="M316.31,245c-.38.57-.91,1.27-1.56,1.07s-.72-1-.71-1.63q.1-5.61.19-11.23c-3,2.17-2.64,5-2.85,8.24-.12,1.87.42,10.79-.86,11.89a33.33,33.33,0,0,0,7.44-9.06C317.44,243.84,316.68,244.42,316.31,245Z" transform="translate(-8.76 -15.11)"/></g></g><path class="cls-13" d="M324,232.74a78.74,78.74,0,0,1,2.72,20,10.81,10.81,0,0,0,.36,3.36,3.31,3.31,0,0,0,2.29,2.28" transform="translate(-8.76 -15.11)"/><path class="cls-13" d="M338.11,239.31c3,6.26-.07,20.24.15,21.23a3.55,3.55,0,0,0,1.69,2.4" transform="translate(-8.76 -15.11)"/><path class="cls-13" d="M312.33,231.88c-.35,2-.64,4.3-1,6.29a11.58,11.58,0,0,1-4-8" transform="translate(-8.76 -15.11)"/><path class="cls-13" d="M293.17,285.24l-2.16.95" transform="translate(-8.76 -15.11)"/><path class="cls-13" d="M293.72,287a12.5,12.5,0,0,0,0,5.06" transform="translate(-8.76 -15.11)"/><path class="cls-13" d="M306.36,268.28c.8,1.44,1.59,2.88,2.39,4.31" transform="translate(-8.76 -15.11)"/><path class="cls-13" d="M311,252.51l2.38-3.36" transform="translate(-8.76 -15.11)"/><path class="cls-13" d="M344.43,268.28l-.72,2.64" transform="translate(-8.76 -15.11)"/><path class="cls-13" d="M338.61,261.08q1-3.36,2.11-6.72" transform="translate(-8.76 -15.11)"/><path class="cls-13" d="M345.65,249.16a2.7,2.7,0,0,1,3.64,1.13" transform="translate(-8.76 -15.11)"/><path class="cls-13" d="M331.28,237.68a5.17,5.17,0,0,1,4.81,1.1" transform="translate(-8.76 -15.11)"/><path class="cls-13" d="M286.74,244.35a7.31,7.31,0,0,1,6.2-2.34" transform="translate(-8.76 -15.11)"/><path class="cls-13" d="M277.71,225.49a6.7,6.7,0,0,1,5-1.18" transform="translate(-8.76 -15.11)"/><path class="cls-1" d="M279.57,270.24a12.6,12.6,0,0,0-2.93,3.29Z" transform="translate(-8.76 -15.11)"/><path class="cls-13" d="M280.53,265.7c1.58-1.13,4.1,1.39,5.55.1a2.3,2.3,0,0,0,.49-2.16,7.54,7.54,0,0,1-.29-2.29" transform="translate(-8.76 -15.11)"/><path class="cls-13" d="M325.12,258.76a18.1,18.1,0,0,1,1.1,12.82" transform="translate(-8.76 -15.11)"/><path class="cls-13" d="M336.74,264.93a8.29,8.29,0,0,1-1,5.49" transform="translate(-8.76 -15.11)"/><path class="cls-14" d="M341.11,391.23l-30.44-62.85c-9.8-10.09-27.8-19.32-29.36-33.3-2-17.94-4.77-17.21-4.77-21.68a53.8,53.8,0,0,0,2.76-6.79,37.4,37.4,0,0,0,1-5.42,3.64,3.64,0,0,1,3.84-3.11,6.17,6.17,0,0,1,3.49,1.36,9.38,9.38,0,0,1,3,6.31,27.5,27.5,0,0,1-.53,7.12,46,46,0,0,1,3.83,12.18c.85-3.36,1.44-6.73,2.28-10.09.22-.13.12-.39.32-.53-1.72-3.12-.44-3-3.89-9.95-5.81-11.64-12.18-22.81-17.19-37.59a8.7,8.7,0,0,1-.19-4.24c1.17-4.4,5.66-3.7,7.76-1.33a8.75,8.75,0,0,1,1.35,2.1,115,115,0,0,0,10.77,17.78l12,15.83s3.58-3.35,4.07-4.78h0c.47-1.44,0-12.69,0-12.69s-.72,2.16-2.63,2.16c-1.38,0-4.12,1-6.26-1.12a5.21,5.21,0,0,1-.61-6.52l4.47-7a7.49,7.49,0,0,1,7.66-1.44,36.61,36.61,0,0,1,9.1,5.51,17.87,17.87,0,0,1,7.66,1c3.6,1.45,7.57,6,7.57,6s4.07,0,6,1.17c.48.3,7.32,9.54,5.58,17.2-1,4.57-1.41,11.13-1.89,12.91l-.12,44.21L386,385.94" transform="translate(-8.76 -15.11)"/><path class="cls-14" d="M324,232.74a78.74,78.74,0,0,1,2.72,20,10.81,10.81,0,0,0,.36,3.36,3.31,3.31,0,0,0,2.29,2.28" transform="translate(-8.76 -15.11)"/><path class="cls-14" d="M338.11,239.31c3,6.26-.07,20.24.15,21.23a3.55,3.55,0,0,0,1.69,2.4" transform="translate(-8.76 -15.11)"/><path class="cls-14" d="M312.33,231.88c-.35,2-.64,4.3-1,6.29a11.58,11.58,0,0,1-4-8" transform="translate(-8.76 -15.11)"/><path class="cls-14" d="M293.17,285.24l-2.16.95" transform="translate(-8.76 -15.11)"/><path class="cls-14" d="M293.72,287a12.5,12.5,0,0,0,0,5.06" transform="translate(-8.76 -15.11)"/><path class="cls-14" d="M306.36,268.28c.8,1.44,1.59,2.88,2.39,4.31" transform="translate(-8.76 -15.11)"/><path class="cls-14" d="M311,252.51l2.38-3.36" transform="translate(-8.76 -15.11)"/><path class="cls-14" d="M344.43,268.28l-.72,2.64" transform="translate(-8.76 -15.11)"/><path class="cls-14" d="M338.61,261.08q1-3.36,2.11-6.72" transform="translate(-8.76 -15.11)"/><path class="cls-14" d="M345.65,249.16a2.7,2.7,0,0,1,3.64,1.13" transform="translate(-8.76 -15.11)"/><path class="cls-14" d="M331.28,237.68a5.17,5.17,0,0,1,4.81,1.1" transform="translate(-8.76 -15.11)"/><path class="cls-14" d="M286.74,244.35a7.31,7.31,0,0,1,6.2-2.34" transform="translate(-8.76 -15.11)"/><path class="cls-14" d="M277.71,225.49a6.7,6.7,0,0,1,5-1.18" transform="translate(-8.76 -15.11)"/><path class="cls-14" d="M279.57,270.24a12.6,12.6,0,0,0-2.93,3.29" transform="translate(-8.76 -15.11)"/><path class="cls-14" d="M280.53,265.7c1.58-1.13,4.1,1.39,5.55.1a2.3,2.3,0,0,0,.49-2.16,7.54,7.54,0,0,1-.29-2.29" transform="translate(-8.76 -15.11)"/><path class="cls-14" d="M325.12,258.76a18.1,18.1,0,0,1,1.1,12.82" transform="translate(-8.76 -15.11)"/><path class="cls-14" d="M336.74,264.93a8.29,8.29,0,0,1-1,5.49" transform="translate(-8.76 -15.11)"/><path class="cls-4" d="M240.05,279.94A6.06,6.06,0,0,1,240,282c-.65,3-2.53,11.78-3.22,16.58-.82,5.86-10.29,24-10.29,24s-8.72,10.84-13.16,16.48c-2.18,2.77-25.63,44-28.56,54.66q-5.55-1.68-11-3.62c-3-1.07-6-2.2-9-3.37-4.18-1.65,10.49-4.27,4.37-7.62,1.66-6,2.77-40.67,2.75-40.94-.05-.63,3.56-7.58,3.56-7.58l-3.15-41.44-1.86-6.31a47.39,47.39,0,0,1-1.83-10,48.34,48.34,0,0,1,1.29-15.33l5.43-8.06,2.54-.19,7.86-11S190,237,191,240.24s-3.54,9.18-3.54,9.18l-1.59,9.87,3.78,9.24,2,.72s.66-16.27.21-19.52L196,234.88a70.54,70.54,0,0,0,3.26-7.46c.76-2.49,5.23-5,7.8-.59a6.43,6.43,0,0,1,.4,5.27c-1.05,3.05-1.92,5.45-1.92,5.45s-1,12.58-1.25,12.93,1.85,18.73,1.85,18.73l1.64.73.58-17.55,3.41-16.49s-.28-7.93,5.31-7a4.32,4.32,0,0,1,4.11,2.56c1.49,2.85.07,21.83.07,21.83l1.38,19.62,2.21,15.13,2.6-10.37s.15-14.86,9.53-16.13c0,0,2.79-.5,3.36,1.44s-1.39,5.9-1.11,9.7C239.48,275.38,239.86,278.39,240.05,279.94Z" transform="translate(-8.76 -15.11)"/><path class="cls-1" d="M237.2,261.57c-.43-2-3.24-1.69-3.24-1.69-9.45.56-10.72,15.36-10.72,15.36l-3.39,10.15-1-15.26.1-19.67s2.86-18.82,1.59-21.77a4.31,4.31,0,0,0-3.91-2.86c-5.5-1.38-5.82,6.55-5.82,6.55l-4.64,16.18L204.21,266l-1.58-.85s-.75-18.51-.43-18.82,2.22-12.8,2.22-12.8,1.05-2.32,2.33-5.28a6.42,6.42,0,0,0,0-5.29c-2.23-4.54-6.87-2.43-7.83,0a70.39,70.39,0,0,1-3.8,7.19l-5.3,14.49c.2,3.28-1.68,19.46-1.68,19.46l-1.91-.87-3.07-9.5L185.5,244s5.07-5.6,4.22-8.88-5.18-2.32-5.18-2.32l-8.66,10.35h-2.55l-6,7.62a48.27,48.27,0,0,0-1.38,25.29l1.38,6.43v41.56s-4.12,6.66-4.12,7.29c0,.29-27.7,47.54-30.07,54.09,10.37,6.1,25.3-1.18,31.63,1.31,3,1.18,6,2.3,9,3.37,3.8-10.67,28.24-52.09,30.69-54.75,4.86-5.29,14.38-15.44,14.38-15.44s10.81-17.37,12.08-23.15c1-4.74,3.58-13.34,4.46-16.29a5.8,5.8,0,0,0,.24-2.07c-.07-1.56-.22-4.59-.22-7.26C235.36,267.35,237.62,263.54,237.2,261.57Z" transform="translate(-8.76 -15.11)"/><g class="cls-15"><path class="cls-10" d="M172.3,257.39c1.62-2,4.94-2.79,6.82-1a7.14,7.14,0,0,1,1.71,4,8.53,8.53,0,0,0,1.51,4.12c1,1.12,2.89,1.56,3.9.49.14,2.19.27,4.38.41,6.57a26.05,26.05,0,0,0,3.44-13.44c0-2.27-.39-4.59.14-6.8s2.24-4.36,4.52-4.47c2.52-.11,4.51,2.34,5,4.82s-.08,5-.23,7.54a22.94,22.94,0,0,0,2.16,11.21l1.59-3.22c.48,2.15,1,4.31,1.43,6.46q.62-7.11,1.24-14.21a10.32,10.32,0,0,1,.87-3.9,3.48,3.48,0,0,1,3.21-2c1.8.18,2.84,2.11,3.44,3.81,4.51,12.74,2.65,26.74.74,40.12,1.25.23,2.31-1,2.62-2.27a29,29,0,0,1,.67-3.74c.47-1.19,1.91-2.16,3-1.49,1.58,1,.48,4.07,2.13,4.92a22.82,22.82,0,0,1,4.53-10.93c1.11-1.44,2.77-2.87,4.53-2.42a3.57,3.57,0,0,1,2.37,3c.19,1.34,2.13-4.2,1.79-2.89.76-7.71-.76-8.53,0-16.24.14-1.39,2.39-3.81,1.43-4.83s-3.63-2.39-4.84-1.83-5.13,2.51-5.91,3.59c-4.92,6.79-4.58,16.61-6.11,24.85-1.31-12.56-2.6-25.33-.3-37.75,1.27-6.84,3.61-14,1.4-20.58-1-3-3.69-6-6.82-5.46-2.52.46-4,3-5.07,5.36-3.44,7.9-5,16.48-6.48,25l5.64-25.63a17.35,17.35,0,0,0,.58-6.74c-.41-2.24-1.94-4.43-4.16-4.9s-4.4.84-6.06,2.36c-6,5.44-8.16,13.74-10.1,21.56a15.52,15.52,0,0,0,1.16-6.31c-.21-2.14-1.57-4.33-3.67-4.79-2.73-.6-5.2,1.84-6.4,4.35s-1.78,5.42-3.69,7.45c-1.39-1.56-4-1.47-5.74-.32a11.14,11.14,0,0,0-3.65,5,46.58,46.58,0,0,0-3.87,22.49,8.23,8.23,0,0,1,8.21-4.68c-.2-1.7-.39-3.41-.59-5.11" transform="translate(-8.76 -15.11)"/><path class="cls-10" d="M178.89,273.66c-.09,1.26-.17,2.52-.26,3.78a1.82,1.82,0,0,1,2.77-.7,4.14,4.14,0,0,1,.63-2.34c.32-.76.35-1.84-.39-2.2s-1.74.58-2.21,1.44c0-.31-.07-.62-.11-.94Z" transform="translate(-8.76 -15.11)"/><path class="cls-10" d="M193.23,271.39a8.87,8.87,0,0,0-2,4.19,4.31,4.31,0,0,1,1.47-1.08,1.47,1.47,0,0,1,1.66.37c.22.31.3.75.64.92a.79.79,0,0,0,1-.36,2.28,2.28,0,0,0,.25-1.1,6.06,6.06,0,0,0-.12-2.17,2.11,2.11,0,0,0-1.44-1.51,1.3,1.3,0,0,0-1.57,1.1Z" transform="translate(-8.76 -15.11)"/><path class="cls-10" d="M207.12,274.84a11.31,11.31,0,0,0-2.1,5,4.38,4.38,0,0,0,1.95-1.05,3.78,3.78,0,0,1,2-1,1.38,1.38,0,0,1,1.55,1.22,9.41,9.41,0,0,1,.08-2.54,5.35,5.35,0,0,0-.18-2.52,2.13,2.13,0,0,0-1.93-1.42,1.34,1.34,0,0,0-1.18,1.79Z" transform="translate(-8.76 -15.11)"/><path class="cls-10" d="M168.91,279.86a10,10,0,0,0-1.17,4.7,1.64,1.64,0,0,1,1.47-1.46,3.33,3.33,0,0,1,2.13.56,5.72,5.72,0,0,0,.14-2.29,2,2,0,0,0-1.46-1.6c-.77-.13-1.61.61-1.4,1.35l-.23-.58Z" transform="translate(-8.76 -15.11)"/><path class="cls-11" d="M172.3,257.39c1.62-2,4.94-2.79,6.82-1a7.14,7.14,0,0,1,1.71,4,8.53,8.53,0,0,0,1.51,4.12c1,1.12,2.89,1.56,3.9.49.14,2.19.27,4.38.41,6.57a26.05,26.05,0,0,0,3.44-13.44c0-2.27-.39-4.59.14-6.8s2.24-4.36,4.52-4.47c2.52-.11,4.51,2.34,5,4.82s-.08,5-.23,7.54a22.94,22.94,0,0,0,2.16,11.21l1.59-3.22c.48,2.15,1,4.31,1.43,6.46q.62-7.11,1.24-14.21a10.32,10.32,0,0,1,.87-3.9,3.48,3.48,0,0,1,3.21-2c1.8.18,2.84,2.11,3.44,3.81,4.51,12.74,2.65,26.74.74,40.12,1.25.23,2.31-1,2.62-2.27a29,29,0,0,1,.67-3.74c.47-1.19,1.91-2.16,3-1.49,1.58,1,.48,4.07,2.13,4.92a22.82,22.82,0,0,1,4.53-10.93c1.11-1.44,2.77-2.87,4.53-2.42a3.57,3.57,0,0,1,2.37,3c.19,1.34,2.13-4.2,1.79-2.89.76-7.71-.76-8.53,0-16.24.14-1.39,2.39-3.81,1.43-4.83s-3.63-2.39-4.84-1.83-5.13,2.51-5.91,3.59c-4.92,6.79-4.58,16.61-6.11,24.85-1.31-12.56-2.6-25.33-.3-37.75,1.27-6.84,3.61-14,1.4-20.58-1-3-3.69-6-6.82-5.46-2.52.46-4,3-5.07,5.36-3.44,7.9-5,16.48-6.48,25l5.64-25.63a17.35,17.35,0,0,0,.58-6.74c-.41-2.24-1.94-4.43-4.16-4.9s-4.4.84-6.06,2.36c-6,5.44-8.16,13.74-10.1,21.56a15.52,15.52,0,0,0,1.16-6.31c-.21-2.14-1.57-4.33-3.67-4.79-2.73-.6-5.2,1.84-6.4,4.35s-1.78,5.42-3.69,7.45c-1.39-1.56-4-1.47-5.74-.32a11.14,11.14,0,0,0-3.65,5,46.58,46.58,0,0,0-3.87,22.49,8.23,8.23,0,0,1,8.21-4.68c-.2-1.7-.39-3.41-.59-5.11" transform="translate(-8.76 -15.11)"/><g class="cls-12"><path class="cls-1" d="M178.89,273.66c-.09,1.26-.17,2.52-.26,3.78a1.82,1.82,0,0,1,2.77-.7,4.14,4.14,0,0,1,.63-2.34c.32-.76.35-1.84-.39-2.2s-1.74.58-2.21,1.44c0-.31-.07-.62-.11-.94Z" transform="translate(-8.76 -15.11)"/><path class="cls-1" d="M193.23,271.39a8.87,8.87,0,0,0-2,4.19,4.31,4.31,0,0,1,1.47-1.08,1.47,1.47,0,0,1,1.66.37c.22.31.3.75.64.92a.79.79,0,0,0,1-.36,2.28,2.28,0,0,0,.25-1.1,6.06,6.06,0,0,0-.12-2.17,2.11,2.11,0,0,0-1.44-1.51,1.3,1.3,0,0,0-1.57,1.1Z" transform="translate(-8.76 -15.11)"/><path class="cls-1" d="M207.12,274.84a11.31,11.31,0,0,0-2.1,5,4.38,4.38,0,0,0,1.95-1.05,3.78,3.78,0,0,1,2-1,1.38,1.38,0,0,1,1.55,1.22,9.41,9.41,0,0,1,.08-2.54,5.35,5.35,0,0,0-.18-2.52,2.13,2.13,0,0,0-1.93-1.42,1.34,1.34,0,0,0-1.18,1.79Z" transform="translate(-8.76 -15.11)"/><path class="cls-1" d="M168.91,279.86a10,10,0,0,0-1.17,4.7,1.64,1.64,0,0,1,1.47-1.46,3.33,3.33,0,0,1,2.13.56,5.72,5.72,0,0,0,.14-2.29,2,2,0,0,0-1.46-1.6c-.77-.13-1.61.61-1.4,1.35l-.23-.58Z" transform="translate(-8.76 -15.11)"/></g></g><path class="cls-14" d="M133.11,385.44c2.37-6.55,30.07-53.8,30.07-54.09,0-.63,4.12-7.29,4.12-7.29V282.5l-1.38-6.43a48.27,48.27,0,0,1,1.38-25.29l6-7.62h2.55l8.66-10.35s4.34-1,5.18,2.32S185.5,244,185.5,244l-2.34,9.73,3.07,9.5,1.91.87s1.88-16.18,1.68-19.46l5.3-14.49a70.39,70.39,0,0,0,3.8-7.19c1-2.43,5.6-4.54,7.83,0a6.42,6.42,0,0,1,0,5.29c-1.28,3-2.33,5.28-2.33,5.28s-1.9,12.48-2.22,12.8.43,18.82.43,18.82l1.58.85,1.91-17.45,4.64-16.18s.32-7.93,5.82-6.55a4.31,4.31,0,0,1,3.91,2.86c1.27,2.95-1.59,21.77-1.59,21.77l-.1,19.67,1,15.26,3.39-10.15s1.27-14.8,10.72-15.36c0,0,2.81-.29,3.24,1.69s-1.84,5.78-1.84,9.59c0,2.67.15,5.7.22,7.26a5.8,5.8,0,0,1-.24,2.07c-.88,2.95-3.42,11.55-4.46,16.29-1.27,5.78-12.08,23.15-12.08,23.15s-9.52,10.15-14.38,15.44c-2.45,2.67-26.89,44.08-30.69,54.75" transform="translate(-8.76 -15.11)"/><path class="cls-2" d="M188,265.67a6,6,0,0,1-1.42,5.7" transform="translate(-8.76 -15.11)"/><path class="cls-2" d="M171.84,279.65c1.37-2.13,2.71-5,2.34-7.55-.72-4.91-3-10.56-2-15.42.64-3.1,1.28-6.21,1.93-9.31" transform="translate(-8.76 -15.11)"/><path class="cls-14" d="M211.71,233.27a9.7,9.7,0,0,1,5,0c0-.47,0-.93.05-1.4" transform="translate(-8.76 -15.11)"/><path class="cls-14" d="M198.58,227a3.19,3.19,0,0,0,5-2.66" transform="translate(-8.76 -15.11)"/><path class="cls-14" d="M234.72,261.74a6.13,6.13,0,0,0-4.59,6.33l2.45.73" transform="translate(-8.76 -15.11)"/><path class="cls-2" d="M202.54,263c.11,1.68-.1,5.69,0,7.37" transform="translate(-8.76 -15.11)"/><path class="cls-2" d="M204.38,265.28q-.3,4.13-.61,8.25c0-.35,0-.7,0-1" transform="translate(-8.76 -15.11)"/><path class="cls-2" d="M219.64,288.46a13.74,13.74,0,0,1-.94,9.06" transform="translate(-8.76 -15.11)"/><path class="cls-14" d="M194.29,274.05c-2.18,2.39-1.86,8.12-.32,11.28" transform="translate(-8.76 -15.11)"/><path class="cls-14" d="M210.4,278a11.26,11.26,0,0,1-2.67,7.34" transform="translate(-8.76 -15.11)"/><path class="cls-14" d="M178.41,275.19a10.23,10.23,0,0,0,1.49,7" transform="translate(-8.76 -15.11)"/><path class="cls-14" d="M169.13,282.66a8.55,8.55,0,0,0,1.54,5.34" transform="translate(-8.76 -15.11)"/><path class="cls-14" d="M181.85,236.56a3.17,3.17,0,0,1,3.5.56l1.23-1.64" transform="translate(-8.76 -15.11)"/><path class="cls-14" d="M192.11,243.9a4.15,4.15,0,0,1,5.29.89" transform="translate(-8.76 -15.11)"/><path class="cls-14" d="M208.13,248.9a6.7,6.7,0,0,1,5.69.12" transform="translate(-8.76 -15.11)"/><path class="cls-14" d="M172.48,257.29a5.41,5.41,0,0,1,5.24-2.6" transform="translate(-8.76 -15.11)"/><path class="cls-14" d="M165.77,266.85a2.84,2.84,0,0,1,2.37-2.66" transform="translate(-8.76 -15.11)"/></g><g id="Coffee"><circle class="cls-16" cx="444.68" cy="138.43" r="41.45"/><path class="cls-4" d="M500.36,154.63c-8.84,14.49-12,12.53-42.12,27-15.31,7.33-30.1-16.23-20.09-40.42C438.64,140,443,134,443,134a22.08,22.08,0,0,1,38.58-9.12,23.84,23.84,0,0,1,21.18-5.06c.35,1,.68,2,1,3,.12.38.25.75.36,1.13.38,1.17.74,2.34,1.07,3.52q1,3.36,1.84,6.76a13.55,13.55,0,0,0-9.84.59c-2.21,1.08-4.06,2.86-6.36,3.74s-5.48.38-6.36-1.92c1.11,4.62,6,3.24,10.62,4.15C502.25,142.24,504.08,148.53,500.36,154.63Z" transform="translate(-8.76 -15.11)"/><path class="cls-17" d="M486.75,147.48s7.42-1,10.94-.48a6.8,6.8,0,0,1,4.27,2.45,2.37,2.37,0,0,1,.51,1.33l.4,5.79a2.38,2.38,0,0,1-.64,1.8c-1.45,1.51-5.82,4.26-18.76,5.25C465.28,165,486.75,147.48,486.75,147.48Z" transform="translate(-8.76 -15.11)"/><path class="cls-17" d="M481.32,132.49a27.69,27.69,0,0,1,6.08,17.63c0,6.91-8,30.51-28.49,33.39-21.69,3-39.13-15.53-35.41-37.86C426.08,130.2,463.91,110.85,481.32,132.49Z" transform="translate(-8.76 -15.11)"/><ellipse class="cls-1" cx="446.07" cy="133.45" rx="31.47" ry="29.79"/><ellipse class="cls-7" cx="446" cy="135.01" rx="25.84" ry="24.45"/><path class="cls-16" d="M486.29,148.56c0-16.45-14.09-29.78-31.47-29.78s-31.47,13.33-31.47,29.78" transform="translate(-8.76 -15.11)"/><path class="cls-16" d="M478,168.72a28.79,28.79,0,0,0,8.3-20.16" transform="translate(-8.76 -15.11)"/><path class="cls-16" d="M432.78,169.82a32.28,32.28,0,0,0,22,8.53,32.72,32.72,0,0,0,14.61-3.4" transform="translate(-8.76 -15.11)"/><path class="cls-16" d="M428.24,164.51c.41.61.85,1.21,1.3,1.8" transform="translate(-8.76 -15.11)"/><path class="cls-16" d="M423.35,148.56a28.39,28.39,0,0,0,3,12.71" transform="translate(-8.76 -15.11)"/><path class="cls-17" d="M501,156.71s-5.61-3.92-14.72-.36" transform="translate(-8.76 -15.11)"/><path class="cls-17" d="M496.18,159.44a57.84,57.84,0,0,1-11.64,1.83" transform="translate(-8.76 -15.11)"/><path class="cls-17" d="M499.09,158.2a5.44,5.44,0,0,1-1.4.73" transform="translate(-8.76 -15.11)"/><path class="cls-1" d="M504.08,124c-.11-.38-.24-.75-.36-1.13-1.91-5.92-4.37-12.42-7.36-19.28-.55-1.27-1.13-2.56-1.71-3.86l-.67.06c-2.87.29-5.89.65-8.25,2.28s-3.77,5.07-2.24,7.52,5.43,3.78,4.81,6.55c-6.41,3.61-14.23,3.19-21.36,5A34.78,34.78,0,0,0,455,126.75h0a36.71,36.71,0,0,0-3.24,2.72,12.81,12.81,0,0,0-1.32,1.42v0a4.89,4.89,0,0,0-1.13,2.54c-.25,2.67,2.18,4.49,4.77,5.65a.58.58,0,0,1,0,1.08,14.9,14.9,0,0,0-4.67,2.7l0,0a1.16,1.16,0,0,0,1,2l.4,0a7.55,7.55,0,0,1,3,.36,3.63,3.63,0,0,1,2.71,2.86c.16,2-2.15,3.86-5.15,4.09-.73.07-.17.94.9,1.12a16,16,0,0,0,6.4-.52c2.51-.6,5.19-1.47,6.61-3.62a4.52,4.52,0,0,0,.6-3.18,3.22,3.22,0,0,0-2.66-2.92,87.49,87.49,0,0,0,13.72-2.75h0l1.41-.43a13.16,13.16,0,0,0,3.87-1.69,5.39,5.39,0,0,0,1.69-1.86c1-2-.43-5.19-2.65-4.77,6.45-2.53,13.27-4,19.79-6.34C502,124.82,503.06,124.42,504.08,124Z" transform="translate(-8.76 -15.11)"/></g><g id="Monitor"><path class="cls-17" d="M428.58,27.53,93.11,29.07l5.07-7.61a13.17,13.17,0,0,1,10.94-5.85H412.68a13.11,13.11,0,0,1,10.24,4.91Z" transform="translate(-8.76 -15.11)"/><rect class="cls-18" x="205.4" y="62.71" width="86.68" height="86.68" rx="34.15"/><path class="cls-19" d="M229.91,128.49v12.32a7,7,0,0,0,7,7h42.27a7,7,0,0,0,7-6.95c.05-5.55.35-12.37.35-12.37Z" transform="translate(-8.76 -15.11)"/><path class="cls-20" d="M384.62,132.6H137.41a6.33,6.33,0,0,1-5.9-4L93.38,30.71A3.9,3.9,0,0,1,97,25.39H425a3.9,3.9,0,0,1,3.64,5.32l-38.13,97.86A6.33,6.33,0,0,1,384.62,132.6Z" transform="translate(-8.76 -15.11)"/><polygon class="cls-7" points="377.69 108.96 126.22 108.96 91.62 16.48 412.13 16.48 377.69 108.96"/><rect class="cls-7" x="221.43" y="117.36" width="56.06" height="3.84"/><path class="cls-1" d="M162.57,42.49a2.13,2.13,0,0,1-2.1,2.95,4.46,4.46,0,0,1-3.94-2.95,2.13,2.13,0,0,1,2.08-3A4.42,4.42,0,0,1,162.57,42.49Z" transform="translate(-8.76 -15.11)"/><path class="cls-1" d="M170.71,42.54a2.2,2.2,0,0,1-2.2,3,4.27,4.27,0,0,1-3.84-3,2.21,2.21,0,0,1,2.18-3A4.24,4.24,0,0,1,170.71,42.54Z" transform="translate(-8.76 -15.11)"/><path class="cls-1" d="M178.94,42.49a2.27,2.27,0,0,1-2.29,2.95,4.1,4.1,0,0,1-3.75-2.95,2.28,2.28,0,0,1,2.28-3A4.06,4.06,0,0,1,178.94,42.49Z" transform="translate(-8.76 -15.11)"/><polygon class="cls-21" points="91.62 16.48 118.57 88.51 151.08 16.48 91.62 16.48"/><polygon class="cls-21" points="137.09 108.96 191.02 16.48 247.47 16.48 168.1 108.96 137.09 108.96"/><polygon class="cls-21" points="271.8 16.02 187.75 108.96 200.69 108.96 287.76 16.48 271.8 16.02"/><polygon class="cls-21" points="288.4 108.96 380.78 16.48 393.82 16.48 298.57 108.96 288.4 108.96"/><path class="cls-6" d="M349.72,120.1H172.14c-1,0-1.9-.44-2.08-1L144.8,38.86c-.28-.9.51-1.63,1.77-1.63H375.29c1.26,0,2,.73,1.76,1.63L351.8,119.11C351.62,119.66,350.69,120.1,349.72,120.1Z" transform="translate(-8.76 -15.11)"/><polygon class="cls-7" points="340.31 103.17 164.04 103.17 142.57 32.66 361.77 32.66 340.31 103.17"/><path class="cls-1" d="M198.1,65.28H164.73c-.83,0-1.37.44-1.21,1a1.82,1.82,0,0,0,1.76,1h33.18c.82,0,1.4-.44,1.31-1S198.92,65.28,198.1,65.28Z" transform="translate(-8.76 -15.11)"/><path class="cls-1" d="M199.21,71.37H170.83c-.81,0-1.35.43-1.2,1a1.77,1.77,0,0,0,1.71,1h28.22c.81,0,1.38-.43,1.29-1S200,71.37,199.21,71.37Z" transform="translate(-8.76 -15.11)"/><path class="cls-11" d="M200.29,77.25h-32.2c-.8,0-1.32.41-1.18.92a1.76,1.76,0,0,0,1.7.92h32c.79,0,1.36-.41,1.27-.92S201.09,77.25,200.29,77.25Z" transform="translate(-8.76 -15.11)"/><path class="cls-1" d="M201.33,82.93H182.42c-.78,0-1.32.4-1.2.89s.85.89,1.63.89h18.81c.78,0,1.34-.4,1.25-.89S202.11,82.93,201.33,82.93Z" transform="translate(-8.76 -15.11)"/><path class="cls-1" d="M202.34,88.41H171.22c-.76,0-1.28.39-1.14.87s.86.85,1.63.85h30.94c.77,0,1.32-.38,1.24-.85S203.11,88.41,202.34,88.41Z" transform="translate(-8.76 -15.11)"/><path class="cls-1" d="M203.31,93.72H178.19c-.76,0-1.27.37-1.15.83s.83.83,1.58.83h25c.75,0,1.29-.37,1.21-.83S204.07,93.72,203.31,93.72Z" transform="translate(-8.76 -15.11)"/><path class="cls-1" d="M204.25,98.85H179.54c-.75,0-1.25.36-1.13.8s.81.81,1.55.81h24.59c.74,0,1.27-.36,1.19-.81S205,98.85,204.25,98.85Z" transform="translate(-8.76 -15.11)"/><path class="cls-1" d="M205.16,103.81h-27c-.73,0-1.23.35-1.11.78s.8.78,1.53.78h26.83c.73,0,1.26-.35,1.18-.78S205.9,103.81,205.16,103.81Z" transform="translate(-8.76 -15.11)"/><path class="cls-11" d="M206.05,108.62H188.63c-.72,0-1.22.34-1.12.76s.77.75,1.48.75h17.33c.72,0,1.24-.34,1.17-.75S206.77,108.62,206.05,108.62Z" transform="translate(-8.76 -15.11)"/><path class="cls-11" d="M196.94,59H172.07c-.84,0-1.4.46-1.25,1a1.81,1.81,0,0,0,1.77,1h24.72c.84,0,1.43-.46,1.33-1A1.66,1.66,0,0,0,196.94,59Z" transform="translate(-8.76 -15.11)"/><path class="cls-1" d="M195.73,52.41H161.11c-.85,0-1.41.48-1.24,1.06a1.9,1.9,0,0,0,1.84,1.06h34.41c.85,0,1.46-.47,1.35-1.06A1.7,1.7,0,0,0,195.73,52.41Z" transform="translate(-8.76 -15.11)"/><path class="cls-1" d="M206.9,113.28H178.21c-.71,0-1.19.33-1.08.73s.78.73,1.49.73h28.55c.7,0,1.22-.32,1.15-.73S207.61,113.28,206.9,113.28Z" transform="translate(-8.76 -15.11)"/><polygon class="cls-11" points="201.06 52.39 207.53 52.39 207.21 49.92 200.69 49.92 201.06 52.39"/><polygon class="cls-11" points="201.96 58.4 208.32 58.4 208.01 56.02 201.6 56.02 201.96 58.4"/><polygon class="cls-11" points="202.84 64.21 209.08 64.21 208.78 61.91 202.49 61.91 202.84 64.21"/><polygon class="cls-11" points="203.68 69.82 209.82 69.82 209.53 67.59 203.34 67.59 203.68 69.82"/><polygon class="cls-11" points="204.49 75.23 210.53 75.23 210.25 73.09 204.17 73.09 204.49 75.23"/><polygon class="cls-11" points="205.28 80.47 211.22 80.47 210.94 78.4 204.97 78.4 205.28 80.47"/><polygon class="cls-11" points="206.04 85.55 211.88 85.55 211.62 83.53 205.74 83.53 206.04 85.55"/><polygon class="cls-11" points="206.78 90.45 212.53 90.45 212.27 88.51 206.48 88.51 206.78 90.45"/><polygon class="cls-11" points="207.49 95.21 213.15 95.21 212.9 93.32 207.21 93.32 207.49 95.21"/><polygon class="cls-11" points="200.12 46.16 206.72 46.16 206.38 43.59 199.74 43.59 200.12 46.16"/><polygon class="cls-11" points="199.15 39.69 205.87 39.69 205.52 37.03 198.75 37.03 199.15 39.69"/><polygon class="cls-11" points="208.18 99.81 213.75 99.81 213.51 97.98 207.91 97.98 208.18 99.81"/><path class="cls-1" d="M251.05,104.59c0-.43.56-.78,1.29-.78h95.82c.73,0,1.22.35,1.1.78a1.62,1.62,0,0,1-1.54.78H252.39C251.66,105.37,251.06,105,251.05,104.59Z" transform="translate(-8.76 -15.11)"/><path class="cls-1" d="M349.13,100.46H296.07c-.74,0-1.3-.36-1.25-.81s.69-.8,1.44-.8h53.33c.74,0,1.24.36,1.11.8A1.63,1.63,0,0,1,349.13,100.46Z" transform="translate(-8.76 -15.11)"/><path class="cls-11" d="M283.48,100.46H267c-.74,0-1.34-.36-1.33-.81s.61-.8,1.36-.8H283.6c.74,0,1.32.36,1.28.8S284.22,100.46,283.48,100.46Z" transform="translate(-8.76 -15.11)"/><path class="cls-1" d="M317.92,95.38H243.08c-.75,0-1.38-.37-1.41-.83s.56-.83,1.32-.83h75.24c.75,0,1.3.37,1.21.83S318.68,95.38,317.92,95.38Z" transform="translate(-8.76 -15.11)"/><path class="cls-11" d="M227.43,93.72h5.34c.75,0,1.4.37,1.44.83s-.54.83-1.29.83h-5.31c-.75,0-1.4-.37-1.45-.83S226.68,93.72,227.43,93.72Z" transform="translate(-8.76 -15.11)"/><path class="cls-1" d="M328.75,89.27c-.1.48-.8.86-1.57.86H256.66c-.77,0-1.39-.38-1.4-.86s.61-.86,1.37-.86h70.91C328.31,88.41,328.85,88.8,328.75,89.27Z" transform="translate(-8.76 -15.11)"/><path class="cls-1" d="M226.87,88.41h20c.77,0,1.41.39,1.43.86s-.59.86-1.35.86H227.05c-.76,0-1.42-.38-1.48-.86S226.1,88.41,226.87,88.41Z" transform="translate(-8.76 -15.11)"/><path class="cls-1" d="M226.28,82.93h76.94c.78,0,1.36.4,1.29.89s-.75.89-1.53.89H226.47c-.77,0-1.45-.4-1.5-.89S225.5,82.93,226.28,82.93Z" transform="translate(-8.76 -15.11)"/><path class="cls-1" d="M276.23,79.09c-.79,0-1.41-.41-1.39-.92s.68-.92,1.48-.92h40.59c.8,0,1.37.41,1.28.92s-.8.92-1.59.92Z" transform="translate(-8.76 -15.11)"/><path class="cls-1" d="M225.68,77.25h35.13c.8,0,1.44.41,1.44.92s-.65.92-1.44.92H225.88c-.8,0-1.48-.41-1.54-.92S224.88,77.25,225.68,77.25Z" transform="translate(-8.76 -15.11)"/><path class="cls-1" d="M356.93,73.28H260.22c-.8,0-1.46-.43-1.46-1s.65-1,1.46-1h97.25c.81,0,1.34.43,1.19,1A1.81,1.81,0,0,1,356.93,73.28Z" transform="translate(-8.76 -15.11)"/><path class="cls-1" d="M358.65,67.25H273.56c-.82,0-1.47-.44-1.45-1s.7-1,1.52-1h85.59c.82,0,1.36.44,1.2,1A1.84,1.84,0,0,1,358.65,67.25Z" transform="translate(-8.76 -15.11)"/><path class="cls-11" d="M360.45,61H342.63c-.84,0-1.41-.46-1.28-1a1.77,1.77,0,0,1,1.76-1H361c.84,0,1.39.46,1.22,1A1.88,1.88,0,0,1,360.45,61Z" transform="translate(-8.76 -15.11)"/><path class="cls-1" d="M330.16,61H264.73c-.83,0-1.51-.46-1.5-1s.68-1,1.52-1h65.82c.84,0,1.42.46,1.31,1A1.72,1.72,0,0,1,330.16,61Z" transform="translate(-8.76 -15.11)"/><path class="cls-1" d="M229,108.62h60.43c.72,0,1.27.34,1.22.76s-.65.75-1.37.75H229.19c-.72,0-1.34-.34-1.39-.75S228.3,108.62,229,108.62Z" transform="translate(-8.76 -15.11)"/><path class="cls-1" d="M229.52,113.28h92.84c.7,0,1.21.33,1.12.73s-.72.73-1.43.73H229.68c-.71,0-1.32-.32-1.36-.73S228.81,113.28,229.52,113.28Z" transform="translate(-8.76 -15.11)"/><path class="cls-1" d="M326.91,54.53H279.65c-.85,0-1.51-.47-1.48-1.06s.74-1.06,1.6-1.06h47.54c.86,0,1.46.48,1.35,1.06A1.73,1.73,0,0,1,326.91,54.53Z" transform="translate(-8.76 -15.11)"/><path class="cls-11" d="M266.25,54.53h-43c-.85,0-1.6-.47-1.66-1.06s.57-1.06,1.43-1.06h43.25c.85,0,1.54.48,1.53,1.06S267.1,54.53,266.25,54.53Z" transform="translate(-8.76 -15.11)"/><path class="cls-11" d="M302.85,108.62c.72,0,1.26.34,1.2.76s-.69.75-1.41.75H298c-.71,0-1.25-.34-1.2-.75s.67-.76,1.39-.76Z" transform="translate(-8.76 -15.11)"/><path class="cls-11" d="M245.54,104.59c0,.43-.55.78-1.28.78H237.9c-.73,0-1.35-.35-1.38-.78s.53-.78,1.26-.78h6.39C244.9,103.81,245.52,104.16,245.54,104.59Z" transform="translate(-8.76 -15.11)"/><path class="cls-11" d="M322.29,83.82c-.09.49-.8.89-1.57.89h-7.44c-.78,0-1.34-.4-1.27-.89s.78-.89,1.56-.89h7.48C321.83,82.93,322.39,83.33,322.29,83.82Z" transform="translate(-8.76 -15.11)"/><path class="cls-11" d="M345.5,88.41c.77,0,1.29.39,1.16.86a1.65,1.65,0,0,1-1.61.86h-5.93c-.77,0-1.29-.38-1.18-.86a1.63,1.63,0,0,1,1.6-.86Z" transform="translate(-8.76 -15.11)"/><path class="cls-11" d="M248.51,73.28c-.8,0-1.47-.43-1.5-1s.62-1,1.43-1h6.31c.81,0,1.47.43,1.48,1s-.64,1-1.44,1Z" transform="translate(-8.76 -15.11)"/></g><g id="Code"><path class="cls-17" d="M171.9,164.22H150.81a5,5,0,0,0-5,4.95v10.27a5,5,0,0,0,5,5h5.51l4.18,9.47,5.89-9.47h5.51a5,5,0,0,0,5-5V169.17A5,5,0,0,0,171.9,164.22Z" transform="translate(-8.76 -15.11)"/><path class="cls-7" d="M158.42,170.09a1,1,0,0,1,1-1,1,1,0,0,1,1,.93,1,1,0,0,1-1,1A1,1,0,0,1,158.42,170.09Zm.22,2.09h1.61V179h-1.61Z" transform="translate(-8.76 -15.11)"/><path class="cls-7" d="M164.12,171.82v.41H166v1.29h-1.83V179h-1.61v-5.52h-1.13v-1.29h1.13v-.43a2.22,2.22,0,0,1,2.45-2.38,2.56,2.56,0,0,1,1.46.37L166,171a1.59,1.59,0,0,0-.89-.28C164.47,170.72,164.12,171.09,164.12,171.82Z" transform="translate(-8.76 -15.11)"/><path class="cls-17" d="M236.12,165.65H215a5,5,0,0,0-5,5v10.27a5,5,0,0,0,5,5h5.52l4.17,9.47,5.89-9.47h5.52a5,5,0,0,0,5-5V170.61A5,5,0,0,0,236.12,165.65Z" transform="translate(-8.76 -15.11)"/><path class="cls-7" d="M219.46,177.56h-5.39a2.09,2.09,0,0,0,2.23,1.65,2.46,2.46,0,0,0,1.86-.75l.86,1a3.85,3.85,0,0,1-6.55-2.4,3.41,3.41,0,0,1,3.54-3.51,3.34,3.34,0,0,1,3.47,3.55C219.48,177.21,219.47,177.41,219.46,177.56Zm-5.4-1.06H218a1.86,1.86,0,0,0-1.94-1.67A1.88,1.88,0,0,0,214.06,176.5Z" transform="translate(-8.76 -15.11)"/><path class="cls-7" d="M221,171h1.6v9.53H221Z" transform="translate(-8.76 -15.11)"/><path class="cls-7" d="M224,179.8l.61-1.22a4.62,4.62,0,0,0,2.39.68c1,0,1.44-.28,1.44-.76,0-1.31-4.24-.08-4.24-2.81,0-1.3,1.17-2.15,3-2.15a5.51,5.51,0,0,1,2.57.59l-.62,1.22a3.78,3.78,0,0,0-2-.51c-1,0-1.44.32-1.44.77,0,1.39,4.24.15,4.24,2.84,0,1.28-1.18,2.12-3.11,2.12A5.49,5.49,0,0,1,224,179.8Z" transform="translate(-8.76 -15.11)"/><path class="cls-7" d="M237.77,177.56h-5.39a2.09,2.09,0,0,0,2.23,1.65,2.46,2.46,0,0,0,1.86-.75l.86,1a3.85,3.85,0,0,1-6.55-2.4,3.41,3.41,0,0,1,3.54-3.51,3.34,3.34,0,0,1,3.47,3.55C237.79,177.21,237.78,177.41,237.77,177.56Zm-5.4-1.06h3.89a1.86,1.86,0,0,0-1.94-1.67A1.88,1.88,0,0,0,232.37,176.5Z" transform="translate(-8.76 -15.11)"/><path class="cls-17" d="M298.38,165h-21.1a5,5,0,0,0-5,5v10.27a5,5,0,0,0,5,5h5.52L287,194.7l5.89-9.47h5.52a5,5,0,0,0,5-5V170A5,5,0,0,0,298.38,165Z" transform="translate(-8.76 -15.11)"/><path class="cls-7" d="M282.12,172.65v.41H284v1.29h-1.84v5.52h-1.6v-5.52h-1.13v-1.29h1.13v-.44a2.21,2.21,0,0,1,2.45-2.37,2.54,2.54,0,0,1,1.45.37l-.45,1.21a1.54,1.54,0,0,0-.88-.28C282.47,171.55,282.12,171.92,282.12,172.65Z" transform="translate(-8.76 -15.11)"/><path class="cls-7" d="M284.42,176.44a3.66,3.66,0,1,1,3.65,3.52A3.45,3.45,0,0,1,284.42,176.44Zm5.69,0a2,2,0,1,0-2,2.15A2,2,0,0,0,290.11,176.44Z" transform="translate(-8.76 -15.11)"/><path class="cls-7" d="M297.23,172.93v1.53a2.6,2.6,0,0,0-.37,0,1.87,1.87,0,0,0-2,2.12v3.33h-1.61V173h1.53v1A2.71,2.71,0,0,1,297.23,172.93Z" transform="translate(-8.76 -15.11)"/><path class="cls-17" d="M359.74,164.22h-21.1a5,5,0,0,0-5,4.95v10.27a5,5,0,0,0,5,5h5.52l4.17,9.47,5.89-9.47h5.52a5,5,0,0,0,5-5V169.17A5,5,0,0,0,359.74,164.22Z" transform="translate(-8.76 -15.11)"/><path class="cls-7" d="M346.45,171.84h5.92v1.29h-5.92Zm0,3.11h5.92v1.29h-5.92Z" transform="translate(-8.76 -15.11)"/><path class="cls-17" d="M204.06,152.34H183a5,5,0,0,0-5,5v10.26a5,5,0,0,0,5,5h5.52l4.17,9.47,5.89-9.47h5.52a5,5,0,0,0,5-5V157.3A5,5,0,0,0,204.06,152.34Z" transform="translate(-8.76 -15.11)"/><path class="cls-7" d="M188.55,156.6h3.07v1.29h-1.47v9.45h1.47v1.29h-3.07Z" transform="translate(-8.76 -15.11)"/><path class="cls-7" d="M195.6,168.63v-1.29h1.45v-9.45H195.6V156.6h3.05v12Z" transform="translate(-8.76 -15.11)"/><path class="cls-17" d="M266.78,151.29h-21.1a5,5,0,0,0-5,5v10.26a5,5,0,0,0,5,5h5.52l4.18,9.47,5.89-9.47h5.51a5,5,0,0,0,5-5V156.25A5,5,0,0,0,266.78,151.29Z" transform="translate(-8.76 -15.11)"/><path class="cls-7" d="M251.94,161.52c.51.17.76.52.76,1.31v2.45a.86.86,0,0,0,1,1h.27v1.29h-.65a1.91,1.91,0,0,1-2.18-2.1V162.8c0-.43-.22-.62-.58-.62h-.42v-1.31h.42c.36,0,.58-.19.58-.62v-2.64a1.91,1.91,0,0,1,2.18-2.1h.65v1.29h-.27a.86.86,0,0,0-1,1v2.44C252.7,161,252.45,161.36,251.94,161.52Z" transform="translate(-8.76 -15.11)"/><path class="cls-7" d="M261.74,160.87v1.31h-.44c-.35,0-.57.19-.57.62v2.64a1.92,1.92,0,0,1-2.19,2.1h-.65v-1.29h.27a.87.87,0,0,0,1-1v-2.45c0-.79.23-1.14.74-1.31-.51-.16-.74-.51-.74-1.31v-2.44a.87.87,0,0,0-1-1h-.27v-1.29h.65a1.91,1.91,0,0,1,2.19,2.1v2.64c0,.43.22.62.57.62Z" transform="translate(-8.76 -15.11)"/><path class="cls-17" d="M328.84,149.21h-21.1a5,5,0,0,0-5,5v10.26a5,5,0,0,0,5,5h5.51l4.18,9.47,5.89-9.47h5.52a5,5,0,0,0,5-5V154.17A5,5,0,0,0,328.84,149.21Z" transform="translate(-8.76 -15.11)"/><path class="cls-7" d="M317.45,156.8a1.06,1.06,0,1,1,2.11,0,1.06,1.06,0,1,1-2.11,0Zm2.11,4.9a2.94,2.94,0,0,1-.3,1.1l-.66,1.82h-1l.52-2a1,1,0,0,1-.61-1,1,1,0,1,1,2.09,0Z" transform="translate(-8.76 -15.11)"/><path class="cls-17" d="M246.36,328.65h21.09a5,5,0,0,0,5-5V313.42a5,5,0,0,0-5-4.95h-5.51L260.33,299l-8.46,9.47h-5.51a5,5,0,0,0-5,4.95v10.27A5,5,0,0,0,246.36,328.65Z" transform="translate(-8.76 -15.11)"/><path class="cls-7" d="M253.77,316.45l-4.43,1.65,4.43,1.66v1.34l-5.92-2.3v-1.39l5.92-2.3Z" transform="translate(-8.76 -15.11)"/><path class="cls-7" d="M258.45,311.78h1.43l-4.24,12.11h-1.43Z" transform="translate(-8.76 -15.11)"/><path class="cls-7" d="M266.11,317.41v1.39l-5.92,2.3v-1.34l4.43-1.66-4.43-1.65v-1.34Z" transform="translate(-8.76 -15.11)"/><path class="cls-17" d="M112.24,253.9h21.09a5,5,0,0,0,5-5V238.68a5,5,0,0,0-5-5h-5.51l1.2-9.47-11.27,9.47h-5.51a5,5,0,0,0-5,5v10.26A5,5,0,0,0,112.24,253.9Z" transform="translate(-8.76 -15.11)"/><path class="cls-7" d="M118.49,247.39a1,1,0,0,1,1-1,1,1,0,0,1,1,1,1,1,0,0,1-1,1A1,1,0,0,1,118.49,247.39Zm.09-8.08h1.9l-.32,6h-1.27Z" transform="translate(-8.76 -15.11)"/><path class="cls-7" d="M122.14,241.61h5.92v1.29h-5.92Zm0,3.11h5.92V246h-5.92Z" transform="translate(-8.76 -15.11)"/></g><g id="Mouse"><path class="cls-1" d="M470,242.27a71.82,71.82,0,0,1-1,11.86c-2.9,17.31-12,29.93-22.76,29.93a14.39,14.39,0,0,1-2.86-.3c-11.75-2.49-20.86-20.11-20.86-41.49,0-23.09,10.62-31.25,23.72-31.25S470,219.18,470,242.27Z" transform="translate(-8.76 -15.11)"/><g class="cls-22"><path class="cls-10" d="M461.43,242.53c.88,12.38-1.24,24.82-4.81,36.7,8.94-7.33,13.05-18.87,16.77-29.82,2.7-7.95,5.43-16.15,4.94-24.53s-5-17.11-12.84-20a17.13,17.13,0,0,0-12.13.2c-6.59,2.65-3,4.79-.21,9.53A64.56,64.56,0,0,1,461.43,242.53Z" transform="translate(-8.76 -15.11)"/><path class="cls-11" d="M461.43,242.53c.88,12.38-1.24,24.82-4.81,36.7,8.94-7.33,13.05-18.87,16.77-29.82,2.7-7.95,5.43-16.15,4.94-24.53s-5-17.11-12.84-20a17.13,17.13,0,0,0-12.13.2c-6.59,2.65-3,4.79-.21,9.53A64.56,64.56,0,0,1,461.43,242.53Z" transform="translate(-8.76 -15.11)"/></g><path class="cls-14" d="M470,242.27a71.82,71.82,0,0,1-1,11.86c-2.9,17.31-12,29.93-22.76,29.93a14.39,14.39,0,0,1-2.86-.3c-11.75-2.49-20.86-20.11-20.86-41.49,0-23.09,10.62-31.25,23.72-31.25S470,219.18,470,242.27Z" transform="translate(-8.76 -15.11)"/><path class="cls-2" d="M459.05,263.5a41,41,0,0,1-7.79,14.6" transform="translate(-8.76 -15.11)"/><path class="cls-14" d="M459.8,260.59c-.12.57-.26,1.13-.41,1.69" transform="translate(-8.76 -15.11)"/><path class="cls-2" d="M459.74,242.21a40.77,40.77,0,0,1,.47,16.28" transform="translate(-8.76 -15.11)"/><path class="cls-14" d="M422.57,242.27s27-10.67,47.46,0" transform="translate(-8.76 -15.11)"/><path class="cls-2" d="M446.3,211s2.7,10,3,26.26" transform="translate(-8.76 -15.11)"/><path class="cls-20" d="M450.07,223.19c.34,3.1-.2,5.75-1.21,5.91s-2.11-2.23-2.45-5.34.19-5.75,1.2-5.91S449.72,220.08,450.07,223.19Z" transform="translate(-8.76 -15.11)"/><path class="cls-14" d="M435.66,292.06H404a7.75,7.75,0,0,1-7.69-6.71,5.33,5.33,0,0,1-.09-1.07V209.69a5.63,5.63,0,0,1,.09-1.08,7.74,7.74,0,0,1,7.69-6.7h89.72a7.66,7.66,0,0,1,3.73,1" transform="translate(-8.76 -15.11)"/></g></svg>