<?xml version="1.0" encoding="utf-8"?>
<!-- Generator: Adobe Illustrator 25.2.3, SVG Export Plug-In . SVG Version: 6.00 Build 0)  -->
<svg version="1.1" id="icon" xmlns="http://www.w3.org/2000/svg" xmlns:xlink="http://www.w3.org/1999/xlink" x="0px" y="0px"
	 width="32px" height="32px" viewBox="0 0 32 32" style="enable-background:new 0 0 32 32;" xml:space="preserve">
<style type="text/css">
	.st0{fill:#FFFFFF;}
	.st1{fill:none;}
</style>
<path class="st0" d="M16,2C8.3,2,2,8.3,2,16s6.3,14,14,14s14-6.3,14-14S23.7,2,16,2z M28,15h-6c-0.1-3.7-1.1-7.3-2.8-10.6
	C24.1,5.8,27.6,10,28,15z M16,28c-0.2,0-0.4,0-0.7,0c-2.1-3.3-3.2-7.1-3.3-11h8c-0.1,3.9-1.2,7.7-3.3,11C16.5,28,16.2,28,16,28z
	 M12,15c0.1-3.9,1.2-7.7,3.3-11c0.4-0.1,0.9-0.1,1.3,0c2.1,3.3,3.2,7.1,3.4,11H12z M12.8,4.4C11.1,7.7,10.1,11.3,10,15H4
	C4.4,10,7.9,5.8,12.8,4.4L12.8,4.4z M4.1,17h6c0.1,3.7,1,7.3,2.8,10.5C8,26.2,4.5,22,4.1,17z M19.2,27.5c1.7-3.3,2.7-6.9,2.8-10.5h6
	C27.6,22,24.1,26.2,19.2,27.5z"/>
<rect id="_Transparent_Rectangle_" class="st1" width="32" height="32"/>
</svg>
