<?xml version="1.0" encoding="utf-8"?>
<!-- Generator: Adobe Illustrator 25.2.3, SVG Export Plug-In . SVG Version: 6.00 Build 0)  -->
<svg version="1.1" id="icon" xmlns="http://www.w3.org/2000/svg" xmlns:xlink="http://www.w3.org/1999/xlink" x="0px" y="0px"
	 width="32px" height="32px" viewBox="0 0 32 32" style="enable-background:new 0 0 32 32;" xml:space="preserve">
<style type="text/css">
	.st0{fill:#FFFFFF;}
	.st1{fill:none;}
</style>
<path class="st0" d="M9,19.2c0,1.4-1.1,2.5-2.5,2.5S4,20.6,4,19.2s1.1-2.5,2.5-2.5c0,0,0,0,0,0H9V19.2z"/>
<path class="st0" d="M10.3,19.2c0-1.4,1.1-2.5,2.5-2.5c1.4,0,2.5,1.1,2.5,2.5v6.3c0,1.4-1.1,2.5-2.5,2.5s-2.5-1.1-2.5-2.5
	c0,0,0,0,0,0V19.2z"/>
<path class="st0" d="M12.8,9c-1.4,0-2.5-1.1-2.5-2.5c0-1.4,1.1-2.5,2.5-2.5s2.5,1.1,2.5,2.5c0,0,0,0,0,0V9H12.8z"/>
<path class="st0" d="M12.8,10.3c1.4,0,2.5,1.1,2.5,2.5c0,1.4-1.1,2.5-2.5,2.5H6.5c-1.4,0-2.5-1.1-2.5-2.5s1.1-2.5,2.5-2.5
	c0,0,0,0,0,0H12.8z"/>
<path class="st0" d="M23,12.8c0-1.4,1.1-2.5,2.5-2.5c1.4,0,2.5,1.1,2.5,2.5s-1.1,2.5-2.5,2.5c0,0,0,0,0,0H23V12.8z"/>
<path class="st0" d="M21.7,12.8c0,1.4-1.1,2.5-2.5,2.5c-1.4,0-2.5-1.1-2.5-2.5V6.5c0-1.4,1.1-2.5,2.5-2.5s2.5,1.1,2.5,2.5
	c0,0,0,0,0,0L21.7,12.8z"/>
<path class="st0" d="M19.2,23c1.4,0,2.5,1.1,2.5,2.5S20.6,28,19.2,28s-2.5-1.1-2.5-2.5c0,0,0,0,0,0V23H19.2z"/>
<path class="st0" d="M19.2,21.7c-1.4,0-2.5-1.1-2.5-2.5c0-1.4,1.1-2.5,2.5-2.5h6.3c1.4,0,2.5,1.1,2.5,2.5c0,1.4-1.1,2.5-2.5,2.5
	c0,0,0,0,0,0L19.2,21.7z"/>
<rect id="_Transparent_Rectangle_" class="st1" width="32" height="32"/>
</svg>
