<?xml version="1.0" encoding="utf-8"?>
<!-- Generator: Adobe Illustrator 25.2.3, SVG Export Plug-In . SVG Version: 6.00 Build 0)  -->
<svg version="1.1" id="icon" xmlns="http://www.w3.org/2000/svg" xmlns:xlink="http://www.w3.org/1999/xlink" x="0px" y="0px"
	 width="32px" height="32px" viewBox="0 0 32 32" style="enable-background:new 0 0 32 32;" xml:space="preserve">
<style type="text/css">
	.st0{fill:#FFFFFF;}
	.st1{fill:none;}
</style>
<path class="st0" d="M29.4,9.3c-0.3-1.2-1.3-2.1-2.5-2.5C24.8,6.2,16,6.2,16,6.2s-8.8,0-10.9,0.6C3.9,7.1,2.9,8.1,2.6,9.3
	C2.2,11.5,2,13.7,2,16c0,2.3,0.2,4.5,0.6,6.7c0.3,1.2,1.3,2.1,2.5,2.5C7.2,25.8,16,25.8,16,25.8s8.8,0,10.9-0.6
	c1.2-0.3,2.1-1.3,2.5-2.5c0.4-2.2,0.6-4.5,0.6-6.7C30,13.7,29.8,11.5,29.4,9.3z M13.2,20.2v-8.4l7.3,4.2L13.2,20.2z"/>
<rect id="_Transparent_Rectangle_" class="st1" width="32" height="32"/>
</svg>
