<?xml version="1.0" encoding="utf-8"?>
<!-- Generator: Adobe Illustrator 25.2.3, SVG Export Plug-In . SVG Version: 6.00 Build 0)  -->
<svg version="1.1" id="icon" xmlns="http://www.w3.org/2000/svg" xmlns:xlink="http://www.w3.org/1999/xlink" x="0px" y="0px"
	 width="32px" height="32px" viewBox="0 0 32 32" style="enable-background:new 0 0 32 32;" xml:space="preserve">
<style type="text/css">
	.st0{fill:#006064;}
	.st1{fill:none;}
</style>
<path id="_Path_" class="st0" d="M16,2C8.3,2.1,2,8.4,2.1,16.1c0,5.7,3.5,10.8,8.8,12.9c-0.2-1.3-0.2-2.7,0-4l1.6-7
	c-0.3-0.6-0.4-1.3-0.4-2c0-1.9,1.1-3.4,2.5-3.4c1,0,1.8,0.8,1.8,1.7c0,0.1,0,0.2,0,0.3c0,1.2-0.8,3-1.2,4.7
	c-0.3,1.1,0.3,2.2,1.4,2.5c0.2,0.1,0.5,0.1,0.7,0.1c2.5,0,4.4-2.6,4.4-6.4c0.1-3.1-2.3-5.6-5.3-5.7c-0.2,0-0.3,0-0.5,0
	c-3.3-0.1-6.2,2.5-6.3,5.8c0,0.1,0,0.2,0,0.3c0,1.1,0.3,2.3,1,3.2c0.1,0.1,0.1,0.3,0.1,0.4c-0.1,0.4-0.4,1.4-0.4,1.6
	s-0.2,0.3-0.5,0.2c-1.7-1-2.8-3.5-2.8-5.6c0-4.4,3.2-8.5,9.2-8.5c4.9,0,8.6,3.5,8.6,8.1c0,4.8-3,8.7-7.3,8.7c-1.3,0-2.5-0.6-3.2-1.6
	l-0.9,3.3c-0.4,1.3-1,2.5-1.7,3.7c1.4,0.4,2.8,0.6,4.2,0.6c7.7,0,14-6.3,14-14S23.7,2,16,2"/>
<rect id="_Transparent_Rectangle_" class="st1" width="32" height="32"/>
</svg>
