<?xml version="1.0" encoding="utf-8"?>
<!-- Generator: Adobe Illustrator 25.2.3, SVG Export Plug-In . SVG Version: 6.00 Build 0)  -->
<svg version="1.1" id="icon" xmlns="http://www.w3.org/2000/svg" xmlns:xlink="http://www.w3.org/1999/xlink" x="0px" y="0px"
	 width="32px" height="32px" viewBox="0 0 32 32" style="enable-background:new 0 0 32 32;" xml:space="preserve">
<style type="text/css">
	.st0{fill:#FFFFFF;}
	.st1{fill:none;}
</style>
<path class="st0" d="M13.6,14.9c-0.8-0.1-1.5,0.5-1.6,1.3c-0.1,0.8,0.5,1.5,1.3,1.6c0.8,0.1,1.5-0.5,1.6-1.3c0,0,0-0.1,0-0.1
	C15,15.6,14.4,14.9,13.6,14.9C13.6,14.9,13.6,14.9,13.6,14.9z M18.4,14.9c-0.8-0.1-1.5,0.5-1.6,1.3c-0.1,0.8,0.5,1.5,1.3,1.6
	s1.5-0.5,1.6-1.3c0,0,0-0.1,0-0.1C19.8,15.6,19.2,14.9,18.4,14.9C18.4,14.9,18.4,14.9,18.4,14.9z"/>
<path class="st0" d="M24.7,4H7.3C5.8,4,4.6,5.2,4.6,6.7c0,0,0,0,0,0v17.6c0,1.5,1.2,2.7,2.7,2.7c0,0,0,0,0,0H22l-0.7-2.4l1.7,1.5
	l1.6,1.5l2.8,2.5V6.7C27.4,5.2,26.2,4,24.7,4C24.7,4,24.7,4,24.7,4z M19.7,21c0,0-0.5-0.6-0.9-1.1c0.9-0.2,1.8-0.8,2.4-1.5
	c-0.5,0.3-1,0.6-1.5,0.8c-0.6,0.3-1.2,0.4-1.9,0.6c-1.1,0.2-2.3,0.2-3.4,0c-0.7-0.1-1.3-0.3-1.9-0.6c-0.3-0.1-0.6-0.3-0.9-0.4
	c0,0-0.1,0-0.1-0.1c0,0,0,0-0.1,0c-0.2-0.1-0.4-0.2-0.4-0.2c0.6,0.8,1.4,1.3,2.3,1.5c-0.4,0.5-0.9,1.1-0.9,1.1c-1.6,0-3.1-0.7-4-2
	c0-2.6,0.7-5.2,1.9-7.6c1-0.8,2.3-1.3,3.7-1.4l0.1,0.2c-1.3,0.3-2.4,0.9-3.4,1.7c0,0,0.3-0.2,0.8-0.4c0.9-0.4,1.9-0.7,3-0.8
	c0.1,0,0.1,0,0.2,0c0.9-0.1,1.8-0.1,2.6,0c1.4,0.2,2.7,0.6,3.9,1.2c-0.9-0.8-2.1-1.3-3.2-1.7l0.2-0.2c1.3,0.1,2.6,0.5,3.7,1.4
	c1.2,2.4,1.8,4.9,1.9,7.6C22.8,20.3,21.3,21,19.7,21z"/>
<rect id="_Transparent_Rectangle_" class="st1" width="32" height="32"/>
</svg>
