<?xml version="1.0" encoding="utf-8"?>
<!-- Generator: Adobe Illustrator 25.2.1, SVG Export Plug-In . SVG Version: 6.00 Build 0)  -->
<svg version="1.1" id="Capa_1" xmlns="http://www.w3.org/2000/svg" xmlns:xlink="http://www.w3.org/1999/xlink" x="0px" y="0px"
	 width="28.4px" height="20.4px" viewBox="0 0 28.4 20.4" style="enable-background:new 0 0 28.4 20.4;" xml:space="preserve">
<style type="text/css">
	.st0{fill:#FFFFFF;stroke:#4D4D4D;stroke-width:0.5;stroke-miterlimit:10;}
	.st1{fill:#FFFFFF;}
</style>
<g>
	<g>
		<g>
			<g>
				<path class="st0" d="M10.4,9.8C10.4,9.8,10.4,9.8,10.4,9.8L10.4,9.8z"/>
				<polygon class="st0" points="10.4,9.8 10.4,9.8 10.4,9.8 10.4,9.8 				"/>
				<g>
					<path class="st1" d="M10.1,10.2c-0.1,0-0.1,0-0.1,0C9.8,10,9.7,9.8,9.9,9.5c0.1-0.1,0.2-0.2,0.3-0.2c0.1,0,0.2,0.1,0.3,0.2
						c0.1,0.1,0.1,0.2,0,0.3c0,0,0,0,0,0c0,0.1,0,0.2-0.1,0.2C10.3,10.2,10.2,10.2,10.1,10.2z M10.1,9.5c-0.1,0-0.1,0-0.2,0.1
						C9.9,9.7,9.9,10,10,10.1c0.1,0.1,0.2,0,0.3-0.1c0,0,0-0.1,0-0.1V9.8l0,0l0,0l0,0l0,0c0-0.1,0-0.2,0-0.2
						C10.3,9.5,10.2,9.5,10.1,9.5z"/>
				</g>
				<g>
					<path class="st1" d="M17.1,10.3c-0.2,0-0.2-0.1-0.2-0.2c0-0.1,0-0.2,0.2-0.3c0-0.1,0-0.1,0-0.2l0,0c0-0.1,0.1-0.2,0.2-0.2
						c0.1,0,0.2,0.1,0.2,0.2c0,0.1,0.1,0.2,0,0.3c0,0.1,0,0.1-0.1,0.2c0,0.1-0.1,0.1-0.2,0.1l0,0c0,0,0,0,0,0
						C17.2,10.3,17.1,10.3,17.1,10.3z M17.3,9.5c0,0-0.1,0-0.1,0.1l0,0c0,0.1,0,0.1,0,0.2l0,0.1l-0.1,0c-0.1,0-0.1,0.1-0.1,0.2
						c0,0.1,0,0.1,0.1,0.1c0.1,0,0.1,0,0.1-0.1l0,0l0,0c0,0,0.1,0,0.1,0c0-0.1,0.1-0.1,0.1-0.2c0-0.1,0-0.2,0-0.3
						C17.4,9.5,17.3,9.5,17.3,9.5z"/>
				</g>
				<g>
					<path class="st1" d="M11,10.5c-0.1,0-0.2-0.1-0.2-0.2c0,0,0-0.1,0-0.1c0,0,0.1-0.1,0.1-0.1c0.1,0,0.2,0.1,0.2,0.2
						c0,0,0,0.1,0,0.1C11.2,10.5,11.1,10.5,11,10.5z M11,10.2C11,10.2,11,10.2,11,10.2C11,10.2,11,10.3,11,10.2
						c-0.1,0.1-0.1,0.2,0,0.2c0,0,0,0,0.1,0C11.1,10.3,11.1,10.3,11,10.2C11.1,10.3,11.1,10.2,11,10.2z"/>
				</g>
				<g>
					<path class="st1" d="M18.3,10.1L18.3,10.1C18.2,10.1,18.2,10.1,18.3,10.1l-0.1,0C18.1,10,18,10,18,9.9c0-0.1,0.1-0.2,0.1-0.2
						l0,0c0,0,0,0,0.1,0c0.1,0,0.2,0.1,0.2,0.2c0,0.1,0,0.1-0.1,0.1C18.4,10.1,18.3,10.1,18.3,10.1z M18.3,9.8
						C18.3,9.8,18.3,9.8,18.3,9.8L18.3,9.8c-0.1,0-0.1,0.1-0.1,0.1c0,0,0,0.1,0.1,0.1l0,0c0,0,0,0,0,0l0,0c0,0,0,0,0.1,0
						C18.3,9.9,18.4,9.9,18.3,9.8C18.4,9.8,18.3,9.8,18.3,9.8z"/>
				</g>
			</g>
			<g>
				<path class="st1" d="M21.9,7C21.9,7,22,7,21.9,7c0.1,0,0.2,0,0.3-0.1c0.1,0,0.3-0.1,0.4-0.1c0,0,0,0,0,0
					c-0.1,0.1-0.3,0.1-0.5,0.1C22,6.9,21.9,6.9,21.9,7C21.9,7,21.9,7,21.9,7C21.9,7,21.9,7,21.9,7C21.9,7,21.9,7,21.9,7
					C21.9,7,21.9,7,21.9,7z"/>
				<path class="st1" d="M22.4,7.4c-0.2,0.1-0.5,0.2-0.7,0.3c0,0,0,0,0,0C21.9,7.6,22.2,7.5,22.4,7.4C22.4,7.4,22.4,7.4,22.4,7.4z"
					/>
				<path class="st1" d="M22.5,7.6c-0.2,0.1-0.4,0.2-0.7,0.3c0,0,0,0,0,0C22,7.9,22.3,7.8,22.5,7.6C22.5,7.6,22.5,7.6,22.5,7.6z"/>
				<path class="st1" d="M23.3,8c-0.1,0-0.7,0.3-0.7,0.1c0.1,0,0.2-0.1,0.3-0.2c0,0,0,0,0,0c-0.3,0.1-0.6,0.3-1,0.2c0,0,0,0,0,0
					c0.2,0.1,0.5,0.1,0.7,0C22.5,8.4,23.2,8.1,23.3,8C23.3,8,23.3,8,23.3,8z"/>
				<path class="st1" d="M4,6.9c0.3,0,0.6,0,1,0c0,0,0,0,0,0C4.6,6.9,4.3,6.9,4,6.9C4,6.9,4,6.9,4,6.9z"/>
				<path class="st1" d="M5.1,7C5.1,7,5.1,7,5.1,7C4.5,7.1,4,7.2,3.5,7.1c0,0,0,0,0,0C4,7.2,4.6,7.2,5.1,7z"/>
				<path class="st1" d="M5,7.2C4.7,7.3,4.3,7.5,3.9,7.5c0,0,0,0,0,0C4.3,7.5,4.7,7.4,5,7.2C5,7.2,5,7.2,5,7.2z"/>
				<path class="st1" d="M5.3,7.4C4.9,7.6,4.6,7.8,4.2,7.9c0,0,0,0,0,0C4.6,7.8,4.9,7.6,5.3,7.4C5.3,7.4,5.3,7.4,5.3,7.4z"/>
				<path class="st1" d="M5.2,7.9C4.8,8.1,4.3,8.3,3.8,8.4c0,0,0,0,0,0C4.3,8.3,4.8,8.2,5.2,7.9C5.3,7.9,5.2,7.9,5.2,7.9z"/>
				<path class="st1" d="M4.7,8.7C4.4,8.8,4,8.9,3.6,8.9c0,0,0,0,0,0C4,8.9,4.4,8.9,4.7,8.7C4.8,8.7,4.7,8.7,4.7,8.7z"/>
				<path class="st1" d="M23.1,6.3c-0.5,0.2-0.9,0.3-1.4,0.4c0,0,0,0,0,0C22.1,6.6,22.6,6.5,23.1,6.3C23.1,6.3,23.1,6.3,23.1,6.3z"
					/>
				<path class="st1" d="M21.7,7.1c0.5,0,1,0,1.5-0.3c0,0,0,0,0,0C22.7,6.9,22.2,7,21.7,7.1C21.7,7,21.7,7.1,21.7,7.1z"/>
				<path class="st1" d="M21.9,7.4c0.3,0,0.7,0,1-0.2c0,0,0,0,0,0C22.5,7.3,22.2,7.4,21.9,7.4C21.9,7.4,21.9,7.4,21.9,7.4z"/>
				<path class="st1" d="M22.7,7.6c0.3,0,0.6-0.1,0.9-0.2c0,0,0,0,0,0C23.3,7.5,23,7.6,22.7,7.6C22.7,7.6,22.7,7.7,22.7,7.6z"/>
				<path class="st1" d="M22.5,6.4C22.5,6.4,22.5,6.4,22.5,6.4c0.1,0,0.2-0.1,0.3-0.1c0.1,0,0.2-0.1,0.3-0.1c0,0,0,0,0,0
					c-0.1,0-0.1,0-0.2,0c0,0,0.1-0.1,0.1-0.1c0.1-0.1,0.3-0.2,0.4-0.4c0,0,0,0,0,0c-0.2,0-0.4,0.1-0.6,0.1c0,0-0.1,0-0.1,0
					c0.1-0.1,0.1-0.1,0.2-0.2c0,0,0,0,0,0c-0.1,0.1-0.2,0.1-0.3,0.2c0,0,0,0,0,0c0.2,0,0.4-0.1,0.5-0.1c0.1,0,0.1,0,0.1,0
					c0.1,0-0.2,0.2-0.2,0.2c-0.1,0.1-0.3,0.2-0.5,0.3c-0.6,0.1-1.2,0.2-1.8,0.3c0,0,0,0,0,0C21.5,6.4,22.1,6.4,22.5,6.4
					C22.6,6.3,22.5,6.3,22.5,6.4z"/>
				<path class="st1" d="M23.1,7.3C23.1,7.3,23.1,7.3,23.1,7.3C23.3,7.2,23.4,7,23.6,7c0,0,0,0,0,0C23.4,7,23.2,7.1,23.1,7.3z"/>
				<path class="st1" d="M4.2,6.5c0.1,0,0.2,0,0.3,0c0,0,0,0,0,0c-0.2-0.1-0.5-0.1-0.7,0c0,0,0,0,0,0C4,6.5,4.1,6.5,4.2,6.5z"/>
				<path class="st1" d="M4.6,7C4.6,7,4.6,7,4.6,7C4.4,7,4.1,7,3.8,7c0,0,0,0,0,0C4.1,7,4.4,7,4.6,7z"/>
				<path class="st1" d="M3.6,7.5C3.7,7.6,3.9,7.6,4,7.6c0,0,0,0,0,0C3.9,7.6,3.7,7.6,3.6,7.5C3.6,7.5,3.6,7.5,3.6,7.5z"/>
				<path class="st1" d="M3.8,7.9C3.6,7.9,3.4,8,3.2,8c0,0,0,0,0,0C3.4,8,3.6,8,3.8,7.9C3.8,7.9,3.8,7.9,3.8,7.9z"/>
				<path class="st1" d="M4.1,8.1C4.1,8.1,4.1,8.1,4.1,8.1C3.8,8.2,3.6,8.2,3.3,8.2c0,0,0,0,0,0C3.6,8.2,3.8,8.2,4.1,8.1z"/>
				<path class="st1" d="M3.9,8.5c-0.2,0-0.4,0-0.6,0.1c0,0,0,0,0,0C3.5,8.6,3.7,8.6,3.9,8.5C3.9,8.5,3.9,8.5,3.9,8.5z"/>
				<path class="st1" d="M3.6,9.1c0.1,0,0.2,0,0.3,0c0,0,0,0,0,0C3.8,9.1,3.7,9.1,3.6,9.1C3.6,9.1,3.6,9.1,3.6,9.1z"/>
				<path class="st1" d="M23.8,7.5c-0.1,0-0.2,0-0.3,0c-0.1,0-0.3,0.1-0.3,0.2c0,0,0,0,0,0c0.1,0,0.2-0.1,0.3-0.2
					C23.6,7.6,23.7,7.5,23.8,7.5C23.8,7.6,23.8,7.5,23.8,7.5z"/>
			</g>
		</g>
		<g>
			<path class="st1" d="M12.1,10.7C12.2,10.7,12.2,10.7,12.1,10.7c0.1-0.1,0.1-0.1,0-0.2c0,0,0,0,0,0c-0.3-0.5-0.7-1.1-1.3-1.3
				c-0.2-0.1-0.4-0.1-0.7-0.1c0,0,0,0,0.1,0c0,0,0,0,0,0c-0.1,0-0.1,0-0.2,0C10,9,9.9,8.9,9.8,8.9c0,0-0.1,0,0,0c0,0,0,0,0,0
				C9.7,9,9.5,9,9.3,9c0,0,0,0,0,0c0.2,0,0.4,0.1,0.6,0c0.1,0,0.2,0.1,0.3,0.1c-0.1,0-0.2,0-0.3,0c-0.1,0-0.1,0-0.2,0
				c-0.2,0-0.3-0.1-0.5-0.1c0,0,0,0,0,0c0.1,0,0.2,0.1,0.4,0.1c0,0,0,0-0.1,0c-0.2,0-0.5,0-0.7,0c0,0,0,0,0,0c0.2,0,0.4,0,0.6,0
				c-0.1,0-0.2,0.1-0.2,0.1c-0.1,0-0.3-0.1-0.4,0c-0.1,0-0.2,0.1-0.2,0.2c-0.1,0-0.3,0-0.4,0c0.1,0,0.1-0.1,0.2-0.1
				c0.1-0.1,0.3-0.1,0.4-0.2c0,0,0,0,0,0c-0.3,0-0.7,0.1-0.8,0.4v0c0,0,0,0,0,0c0,0,0,0,0,0c0,0,0,0,0,0c0,0,0,0,0,0
				c0.1,0,0.3,0,0.4,0.1c0,0-0.1,0-0.1,0.1c0,0,0,0,0,0c-0.3,0.1-0.7,0.2-1,0.4c0,0,0,0.1,0,0c0.3-0.1,0.5-0.2,0.8-0.3
				c0,0.1,0,0.1,0.1,0.1c0.3,0,0.6-0.2,0.9-0.3c-0.2,0.2-0.1,0.7,0,1c0.2,0.4,0.5,0.6,0.9,0.8C10.7,11.7,11.9,11.4,12.1,10.7z
				 M11.9,10.6L11.9,10.6L11.9,10.6L11.9,10.6z M11.8,10.5C11.8,10.5,11.8,10.5,11.8,10.5C11.8,10.4,11.8,10.4,11.8,10.5
				C11.8,10.4,11.8,10.5,11.8,10.5z M11.4,10C11.4,10,11.4,10,11.4,10c0.1,0,0.1,0,0.1-0.1c0,0,0,0,0,0C11.5,10,11.5,10,11.4,10
				C11.4,10.1,11.4,10,11.4,10z M10.8,9.6c0.1,0,0.2-0.1,0.3-0.1l0,0c0,0,0.1,0.1,0.1,0.1C11.1,9.6,10.9,9.7,10.8,9.6
				C10.8,9.7,10.8,9.7,10.8,9.6z M11.1,9.5c-0.1,0-0.2,0.1-0.3,0.1c0,0,0,0,0,0c0,0,0.1,0,0.1-0.1c0,0,0,0,0,0c0,0-0.1,0-0.1,0
				c0,0,0-0.1,0-0.1c0,0,0,0,0,0c0,0,0,0,0,0c0,0,0,0,0,0c0,0,0,0,0-0.1C10.9,9.4,11,9.4,11.1,9.5z M9.9,9.4
				C9.9,9.4,9.9,9.4,9.9,9.4C10,9.4,10,9.4,9.9,9.4C10,9.4,10,9.4,9.9,9.4C9.9,9.4,9.9,9.4,9.9,9.4z M9,9.5c-0.1,0-0.2,0.1-0.2,0.1
				c0,0-0.1,0-0.1,0C8.7,9.4,8.9,9.4,9,9.5z M9.4,10.6c-0.2-0.3-0.1-0.6-0.2-1c0,0,0,0,0.1,0c0,0,0,0,0,0c0.2,0,0.4-0.1,0.6-0.2
				c0,0,0,0,0.1,0c-0.1,0-0.1,0.1-0.2,0.1c0,0,0,0,0,0c0.2-0.1,0.3-0.1,0.5-0.2c0.1,0,0.2,0,0.3,0C10.2,9.4,10,9.5,9.8,9.6
				c0,0,0,0,0,0c0.2-0.1,0.4-0.1,0.7-0.2c0,0,0,0,0,0c0,0,0,0,0,0c0,0,0,0,0,0c-0.1,0-0.3,0.1-0.4,0.2c0,0,0,0,0,0
				c0.1-0.1,0.3-0.1,0.4-0.1c0,0,0,0.1,0,0.1c-0.1,0-0.1,0-0.2,0.1c0,0,0,0,0,0c0.1,0,0.1,0,0.2,0c0,0,0,0.1,0,0.1c0,0,0,0-0.1,0
				c0,0,0,0,0,0c0,0,0,0,0,0c-0.1,0.3-0.1,0.6-0.1,0.9c0,0,0,0,0,0c0,0.1,0,0.2,0,0.2c0,0.1,0.1,0.1,0.2,0.1
				c0.2-0.3,0.3-0.7,0.3-1.1c0,0,0,0,0,0c0.2,0,0.3-0.1,0.5-0.2c0,0,0,0,0,0c-0.2,0.1-0.3,0.1-0.5,0.2c0,0,0,0,0,0c0,0,0-0.1,0-0.1
				c0.1,0,0.3-0.1,0.4-0.2c0,0,0,0,0,0c0.1,0,0.1,0.1,0.2,0.1c-0.1,0.1-0.3,0.1-0.4,0.2c0,0,0,0,0,0c0.1-0.1,0.3-0.1,0.4-0.2
				c0,0,0.1,0.1,0.1,0.2c0,0-0.1,0-0.1,0c0,0,0,0,0,0c0,0,0,0.1,0,0.1c0,0,0,0,0,0c0.1,0,0.2,0,0.2-0.1c0,0,0,0.1,0.1,0.1
				c-0.1,0-0.1,0.1-0.2,0.1c0,0,0,0,0,0c0.1,0,0.2,0,0.2-0.1c0,0,0,0,0,0c0,0-0.1,0.1-0.1,0.1c0,0,0,0,0,0c0,0,0.1-0.1,0.1-0.1
				c0,0,0,0.1,0.1,0.1c-0.1,0-0.1,0-0.2,0.1c0,0,0,0,0,0c0.1,0,0.1,0,0.2-0.1c0,0,0,0,0,0c0,0,0,0.1,0,0.1c0,0,0,0-0.1,0
				c0,0,0,0,0,0c0,0,0,0,0,0c0,0.1,0,0.1-0.1,0.2c0,0,0,0.1-0.1,0.2c0,0-0.1,0.1-0.1,0.1c0,0,0,0,0,0c0,0,0,0,0,0
				c-0.1,0.1-0.2,0.1-0.3,0.2c-0.3,0.1-0.7,0.1-1,0C9.9,11.1,9.6,10.9,9.4,10.6z"/>
			<path class="st1" d="M19.1,9.1c0.3,0.1,0.7,0.3,1,0.4c0.2,0,0.2-0.2,0.1-0.2c-0.3-0.1-0.7-0.2-1-0.3c0.2,0,0.4-0.1,0.6-0.2
				c0,0,0,0,0,0c-0.2,0.1-0.4,0.1-0.6,0.2c0,0,0,0-0.1,0c0.1,0,0.1-0.1,0.2-0.1c0,0,0,0,0,0c-0.1,0-0.1,0.1-0.2,0.1c0,0-0.1,0-0.1,0
				c-0.1,0-0.2,0-0.3-0.1c0,0,0.1,0,0.1-0.1c0.1,0,0.2-0.1,0.3-0.2c0,0,0,0,0,0c-0.1,0-0.2,0.1-0.3,0.1c-0.1,0-0.1,0.1-0.2,0.1
				c-0.1,0-0.1,0-0.2,0c0.1-0.1,0.3-0.2,0.2-0.3c0,0,0,0,0,0c0,0,0,0,0,0c0,0,0,0,0,0c0,0,0,0,0,0c-0.1,0-0.1,0.1-0.2,0.1
				c-0.1,0-0.1,0.1-0.2,0.1c0.1-0.1,0.2-0.1,0.2-0.2c0,0,0,0,0,0c-0.2,0-0.3,0.2-0.4,0.3c0,0-0.1,0.1-0.1,0.1c0,0,0,0,0,0
				c0,0,0,0,0,0c-0.1,0.1-0.2,0.2-0.3,0.2c0,0,0,0,0,0c0,0,0,0-0.1,0c0,0,0,0,0,0c-0.1,0-0.1,0.1-0.2,0.1c0-0.1,0.1-0.2,0.1-0.3
				c0,0,0,0,0,0C17,9,16.9,9.1,16.8,9.3c-0.4,0.3-0.7,0.8-0.7,1.3c0,0.1,0.1,0.1,0.1,0c0,0,0-0.1,0.1-0.1c0,0.1,0.1,0.2,0.2,0.3
				c-0.1,0-0.1-0.1-0.2-0.1c0,0,0,0,0,0c0.1,0.1,0.2,0.1,0.3,0.2C17.6,11.9,20.1,10.8,19.1,9.1z M18.2,9C18.2,9,18.2,9,18.2,9
				c0,0,0.1,0,0.1,0C18.3,9.1,18.2,9,18.2,9C18.2,9,18.2,9,18.2,9C18.2,9,18.2,9,18.2,9z M18.2,9C18.2,9,18.2,9,18.2,9
				C18.2,9,18.2,9,18.2,9c-0.1,0-0.2,0-0.3,0c-0.1,0-0.1,0-0.2,0c0.1,0,0.2,0,0.3-0.1c0,0,0,0,0,0C18,9,18.1,9,18.2,9
				C18.2,9,18.2,9,18.2,9C18.2,9,18.2,9,18.2,9z M16.7,9.7c0,0,0.1-0.1,0.1-0.1c0.1,0,0.2,0,0.2,0C17,9.6,16.9,9.6,16.7,9.7
				C16.8,9.7,16.7,9.7,16.7,9.7z M17.6,9.6C17.6,9.6,17.6,9.6,17.6,9.6C17.6,9.6,17.6,9.6,17.6,9.6L17.6,9.6z M17.4,9.3
				C17.4,9.3,17.4,9.3,17.4,9.3C17.3,9.3,17.3,9.3,17.4,9.3C17.3,9.3,17.3,9.3,17.4,9.3C17.3,9.3,17.3,9.3,17.4,9.3z M17.2,9.2
				c0,0,0.1,0,0.1,0c0,0,0,0,0,0C17.3,9.3,17.2,9.3,17.2,9.2C17.2,9.3,17.2,9.3,17.2,9.2z M17.1,9.3c0.1,0,0.1,0,0.2,0
				C17.2,9.3,17.2,9.3,17.1,9.3C17.2,9.4,17.1,9.4,17.1,9.3C17.1,9.4,17.1,9.4,17.1,9.3C17.1,9.4,17.1,9.4,17.1,9.3
				C17.1,9.4,17.1,9.4,17.1,9.3C17.1,9.4,17.2,9.4,17.1,9.3c0.1,0,0.2,0,0.2,0c0,0,0,0,0,0.1c0,0-0.1,0-0.1,0c0,0,0.1,0,0.1,0
				c0,0,0,0,0,0c-0.1,0-0.3,0.1-0.4,0.1C17,9.4,17,9.4,17.1,9.3z M17.8,8.7c0,0,0.1-0.1,0.1-0.1c0,0,0,0,0,0c0.1,0,0.2,0,0.3-0.1
				c0,0-0.1,0.1-0.1,0.1c-0.1,0.1-0.1,0.1-0.2,0.1c-0.1,0-0.3,0-0.4,0.1C17.6,8.8,17.7,8.8,17.8,8.7z M16.3,10.3
				C16.3,10.3,16.3,10.3,16.3,10.3C16.3,10.3,16.3,10.3,16.3,10.3C16.3,10.3,16.3,10.3,16.3,10.3C16.3,10.3,16.3,10.3,16.3,10.3
				C16.3,10.3,16.3,10.3,16.3,10.3C16.3,10.3,16.3,10.3,16.3,10.3z M16.5,10.4C16.5,10.4,16.5,10.5,16.5,10.4c0,0.1,0.1,0.1,0.1,0.1
				C16.6,10.5,16.5,10.5,16.5,10.4C16.5,10.5,16.5,10.4,16.5,10.4z M16.3,10.4C16.3,10.4,16.3,10.5,16.3,10.4
				C16.2,10.5,16.2,10.5,16.3,10.4z M18.3,11c-0.4,0.2-0.9,0.1-1.3-0.1c0,0,0.1-0.1,0-0.1c-0.1,0-0.1-0.1-0.2-0.2c0,0,0,0,0,0
				c0,0-0.1-0.1-0.1-0.1c0,0,0-0.1-0.1-0.1c0.1,0,0.1,0,0.2,0c0,0,0,0,0,0c-0.1,0-0.1,0-0.2,0c0,0,0,0,0-0.1c0,0,0.1,0,0.1-0.1
				c0,0,0,0,0,0c0,0,0,0,0,0c0,0,0,0,0,0c0,0-0.1,0-0.1,0c0,0,0,0,0,0c0.1,0,0.1,0,0.2-0.1c0,0,0,0,0,0c-0.1,0-0.1,0-0.2,0.1
				c0,0,0,0,0,0c0,0,0,0,0,0c0,0,0,0,0,0c0,0,0,0,0,0c0.1,0,0.3-0.1,0.4-0.2c0,0,0,0,0,0c-0.1,0-0.3,0.1-0.4,0.1
				c0-0.1,0.1-0.1,0.1-0.2c0,0,0,0,0,0c0,0,0.1,0,0.1,0c-0.1,0-0.1,0.1-0.2,0.1c0,0,0,0,0,0c0.1-0.1,0.2-0.1,0.4-0.2
				c0.1,0,0.1,0,0.2-0.1c0,0,0,0,0,0c-0.1,0-0.1,0-0.2,0c0,0,0.1,0,0.1-0.1c0,0,0,0,0,0c0.1,0,0.1,0,0.2,0c0,0.1,0,0.3,0,0.4
				c0,0,0,0.1,0,0.1c0,0,0,0,0,0c0,0.2,0.1,0.4,0.2,0.6c0,0.1,0.2,0.1,0.2,0c0.2-0.4,0.2-0.9,0-1.4c0,0,0.1,0,0.1,0c0,0,0,0,0,0
				c0,0,0.1,0,0.1,0c0,0,0,0,0,0c0,0-0.1,0-0.1,0c0,0,0,0,0,0c0,0-0.1,0-0.1,0c0,0,0,0,0-0.1c0.1,0,0.1,0,0.2,0l0,0
				c0.2,0,0.4,0.1,0.6,0c0,0,0,0,0,0c0.1,0,0.2,0,0.2,0c0,0,0,0,0,0c0,0,0,0,0,0c0,0,0,0,0,0c0,0-0.1,0-0.1,0c0,0-0.1,0-0.1,0l0,0
				c0,0,0.1,0,0.1,0c0,0,0,0,0,0c0,0,0,0,0.1,0c0,0,0,0,0,0c0,0,0.1,0,0.1,0C19.2,10.1,19,10.7,18.3,11z"/>
			<path class="st1" d="M12.5,11.3c0.1,0,0.1-0.2,0.2-0.3c0,0,0,0,0,0C12.6,11,12.5,11.3,12.5,11.3C12.5,11.2,12.5,11.2,12.5,11.3
				C12.5,11.2,12.5,11.3,12.5,11.3C12.5,11.3,12.5,11.3,12.5,11.3z"/>
			<path class="st1" d="M12.9,10.3c-0.1,0.2-0.1,0.5-0.2,0.8c0,0,0,0,0,0c0.1-0.1,0.1-0.2,0.1-0.3c0,0,0,0,0,0
				c0.2-0.3,0.2-0.8,0.1-1.1c0,0,0,0-0.1,0c0,0.2,0,0.3,0,0.5C13,10.1,13,10.2,12.9,10.3C13,10.3,13,10.3,12.9,10.3z"/>
			<path class="st1" d="M12.4,8.9c0,0.1,0.1,0.2,0.2,0.3c0.1,0.2,0.1,0.4,0.1,0.5c0,0,0,0,0,0C12.8,9.5,12.7,9.1,12.4,8.9
				C12.5,8.9,12.4,8.9,12.4,8.9z"/>
			<path class="st1" d="M12.2,9.3c0-0.2-0.1-0.5-0.3-0.6c0,0,0,0,0,0c0,0.1,0.1,0.1,0.1,0.2C12.1,9,12.2,9.2,12.2,9.3
				C12.2,9.3,12.2,9.3,12.2,9.3z"/>
			<path class="st1" d="M12.2,8.5c0,0.2,0,0.4,0,0.6c0,0,0,0,0,0C12.4,8.9,12.4,8.7,12.2,8.5C12.3,8.5,12.2,8.5,12.2,8.5z"/>
			<path class="st1" d="M11.3,8.1c0,0.1,0.1,0.2,0.2,0.3c0.1,0.1,0.1,0.2,0.2,0.3c0,0,0.1,0,0.1,0c0-0.1-0.1-0.3-0.2-0.4
				C11.6,8.3,11.5,8.2,11.3,8.1C11.4,8.1,11.3,8.1,11.3,8.1z"/>
			<path class="st1" d="M11,8.1C10.9,8.1,10.9,8.2,11,8.1c0,0.2,0.1,0.3,0.2,0.4c0.1,0.1,0.2,0.2,0.3,0.3c0,0,0,0,0,0
				c-0.1-0.1-0.2-0.2-0.3-0.3C11.2,8.3,11.1,8.2,11,8.1z"/>
			<path class="st1" d="M10.5,8C10.5,8,10.5,8,10.5,8c-0.1,0.1,0,0.3,0.1,0.4c0.1,0.1,0.2,0.2,0.3,0.2c0,0,0,0,0,0
				c-0.1-0.1-0.2-0.2-0.3-0.3C10.7,8.2,10.6,8.1,10.5,8z"/>
			<path class="st1" d="M10.2,8.1C10.1,8.1,10.1,8.2,10.2,8.1c0,0.1,0.1,0.2,0.2,0.3c0.1,0.1,0.2,0.2,0.3,0.2c0,0,0,0,0,0
				c-0.1-0.1-0.2-0.2-0.2-0.3C10.3,8.3,10.3,8.2,10.2,8.1z"/>
			<path class="st1" d="M10.1,8.5c-0.1,0-0.2-0.1-0.3-0.1c0,0-0.1,0,0,0C9.8,8.5,9.9,8.6,10.1,8.5c0.1,0.1,0.2,0.1,0.4,0.1
				c0,0,0,0,0,0l0,0c0,0,0,0,0,0c-0.1-0.1-0.2-0.2-0.3-0.2c-0.1,0-0.1,0.1-0.1,0.1c0.1,0,0.2,0.1,0.3,0.1
				C10.2,8.6,10.2,8.6,10.1,8.5z"/>
			<path class="st1" d="M9.3,8.5C9.3,8.5,9.3,8.5,9.3,8.5c0.1,0.1,0.2,0.1,0.3,0.1c0.2,0,0.3,0,0.5,0c0,0,0,0,0,0
				c-0.2,0-0.3-0.1-0.4-0.1C9.5,8.5,9.4,8.4,9.3,8.5z"/>
			<path class="st1" d="M9,8.8c0.1,0.1,0.3,0.1,0.5,0.1c0,0,0,0,0-0.1c-0.1,0-0.2,0-0.2,0C9.2,8.7,9.1,8.7,9,8.8C9,8.7,9,8.8,9,8.8z
				"/>
			<path class="st1" d="M8.6,9.1C8.6,9.1,8.6,9.1,8.6,9.1c0.1,0.1,0.2,0,0.3,0C9,9,9.1,8.9,9.2,8.9c0,0,0,0,0,0c-0.1,0-0.2,0-0.3,0
				C8.8,8.9,8.7,9,8.6,9.1z"/>
			<path class="st1" d="M15.6,9.9c0-0.3,0.1-0.5,0.1-0.8c0,0,0,0-0.1,0C15.5,9.3,15.5,9.6,15.6,9.9C15.6,9.9,15.6,9.9,15.6,9.9z"/>
			<path class="st1" d="M15.8,9.4c0.1-0.2,0.1-0.3,0.2-0.5c0.1-0.1,0.2-0.2,0.2-0.4c0,0,0,0,0,0C16,8.7,15.8,9.1,15.8,9.4
				C15.8,9.4,15.8,9.4,15.8,9.4z"/>
			<path class="st1" d="M16.1,9c0.1-0.3,0.4-0.5,0.5-0.7c0,0,0,0,0,0C16.3,8.4,16.1,8.7,16.1,9C16.1,9,16.1,9,16.1,9z"/>
			<path class="st1" d="M16.5,8.5C16.5,8.5,16.5,8.5,16.5,8.5c0.1-0.1,0.2-0.2,0.3-0.3c0,0,0,0,0,0C16.7,8.3,16.6,8.4,16.5,8.5z"/>
			<path class="st1" d="M16.6,8.5C16.6,8.5,16.6,8.5,16.6,8.5c0.3-0.1,0.6-0.2,0.8-0.5c0,0,0,0,0,0c-0.1,0.1-0.2,0.2-0.3,0.2
				C16.9,8.3,16.7,8.4,16.6,8.5z"/>
			<path class="st1" d="M17.1,8.3C17.1,8.3,17.1,8.3,17.1,8.3c0.1,0,0.3-0.1,0.4-0.2c0.1-0.1,0.2-0.1,0.3-0.2c0,0,0,0,0,0
				c-0.1,0-0.2,0.1-0.3,0.2C17.3,8.1,17.2,8.2,17.1,8.3z"/>
			<path class="st1" d="M18,8c-0.2,0.1-0.3,0.2-0.4,0.3c0,0,0,0,0,0C17.7,8.1,17.9,8.1,18,8C18.1,8,18,8,18,8z"/>
			<path class="st1" d="M18.5,7.9c-0.1,0-0.2,0.1-0.4,0.2c-0.1,0.1-0.3,0.2-0.4,0.3c0,0,0,0,0,0c0.1-0.1,0.3-0.1,0.4-0.2
				C18.3,8.1,18.4,8,18.5,7.9C18.5,7.9,18.5,7.9,18.5,7.9z"/>
			<path class="st1" d="M18.3,8.1C18.5,8,18.7,8,18.9,7.8c0,0,0,0,0,0C18.7,7.9,18.5,8,18.3,8.1C18.3,8.1,18.3,8.1,18.3,8.1z"/>
			<path class="st1" d="M18.7,8.1c0.2,0,0.4-0.1,0.6-0.2c0,0,0,0,0,0C19.1,8,18.9,8.1,18.7,8.1C18.7,8.1,18.7,8.1,18.7,8.1z"/>
			<path class="st1" d="M19.3,8.2c-0.2,0.1-0.3,0.2-0.5,0.2c0,0,0,0,0,0C18.9,8.4,19.2,8.3,19.3,8.2C19.3,8.2,19.3,8.1,19.3,8.2z"/>
			<path class="st1" d="M19.1,8.4c0.2,0,0.3,0,0.5-0.2c0,0,0,0,0,0C19.4,8.3,19.3,8.4,19.1,8.4C19.1,8.4,19.1,8.4,19.1,8.4z"/>
			<path class="st1" d="M19.7,8.7c0.2,0,0.3-0.1,0.5-0.2c0,0,0,0,0,0C20,8.5,19.9,8.6,19.7,8.7C19.7,8.7,19.7,8.7,19.7,8.7z"/>
			<path class="st1" d="M19.5,8.9c0.2,0,0.3-0.1,0.5-0.1c0,0,0,0,0,0c0.1,0,0.3,0,0.4-0.1c0,0,0,0,0,0c-0.1,0-0.2,0.1-0.4,0.1
				c0,0,0.1,0,0.1-0.1c0,0,0,0,0,0C19.9,8.8,19.7,8.8,19.5,8.9C19.5,8.9,19.5,8.9,19.5,8.9z"/>
			<path class="st1" d="M20.3,8.9C20.2,8.9,20,9,19.9,9c0,0,0,0,0,0C20,9,20.2,9,20.3,8.9C20.4,8.9,20.3,8.9,20.3,8.9z"/>
			<path class="st1" d="M10.3,9c0.1,0,0.2,0.1,0.2,0.1c0,0,0,0,0-0.1c-0.2-0.1-0.4-0.1-0.6-0.1c0,0,0,0,0,0C10.1,8.9,10.2,9,10.3,9z
				"/>
			<path class="st1" d="M10.8,9.1C10.8,9.1,10.8,9.1,10.8,9.1C10.8,9,10.7,9,10.7,9c0,0-0.1,0.1,0,0.1C10.7,9.1,10.8,9.1,10.8,9.1z"
				/>
			<path class="st1" d="M11.9,11.2C11.9,11.2,11.9,11.1,11.9,11.2c-0.1,0-0.2,0.1-0.1,0.2c0,0,0,0,0,0
				C11.8,11.3,11.9,11.2,11.9,11.2z"/>
			<path class="st1" d="M11.8,11.5c-0.2,0.1-0.4,0.2-0.6,0.3c0,0,0,0,0,0c0,0,0,0,0.1,0c0,0-0.1,0.1-0.1,0.1c0,0,0,0,0,0
				c0.1,0,0.2-0.1,0.2-0.2C11.5,11.7,11.6,11.6,11.8,11.5C11.8,11.5,11.8,11.5,11.8,11.5C11.8,11.5,11.8,11.5,11.8,11.5
				C11.8,11.5,11.8,11.5,11.8,11.5c0,0,0.1,0,0.1,0c0,0,0,0,0,0c0,0,0,0,0,0c0.1-0.1,0.1-0.2,0.2-0.2c0.1-0.1,0.2-0.2,0.4-0.3
				c0,0,0,0,0,0c0,0,0,0,0,0c-0.1,0.1-0.3,0.2-0.4,0.3C12,11.2,11.9,11.3,11.8,11.5z"/>
			<path class="st1" d="M12.2,11.3C12.2,11.3,12.2,11.3,12.2,11.3c-0.1,0-0.2,0.1-0.2,0.2c0,0,0,0,0,0C12,11.4,12.1,11.3,12.2,11.3z
				"/>
			<path class="st1" d="M12.4,11.3c-0.1,0.1-0.2,0.2-0.3,0.3c0,0-0.1,0.1-0.1,0.1c0,0-0.1,0.1-0.1,0.1c-0.1,0.1-0.2,0.1-0.2,0.2
				c0,0,0,0.1,0.1,0.1c0.1,0,0.1-0.1,0.2-0.2c0,0,0,0,0.1,0c0,0,0,0,0,0c0.1,0,0.1-0.1,0.2-0.2c0,0,0,0,0,0c0,0,0,0,0,0
				C12.3,11.5,12.4,11.4,12.4,11.3C12.5,11.3,12.5,11.3,12.4,11.3z"/>
			<path class="st1" d="M12.6,11.7c-0.1,0.1-0.2,0.1-0.2,0.2c-0.1,0.1-0.1,0.1-0.2,0.2c-0.1,0-0.1,0.1-0.1,0.1c0,0,0,0,0,0
				c0,0,0.1,0,0.1-0.1c0.1,0,0.1-0.1,0.2-0.1c0,0,0,0,0,0c0,0,0,0,0,0v0c0,0,0,0,0,0c0,0,0,0,0,0c0,0,0,0,0,0c0.1,0,0.1-0.1,0.2-0.2
				c0,0,0-0.1-0.1-0.1C12.6,11.8,12.6,11.7,12.6,11.7C12.6,11.7,12.6,11.6,12.6,11.7z M12.3,12C12.3,12,12.3,12,12.3,12
				C12.3,12,12.3,12,12.3,12C12.3,12,12.3,12,12.3,12z M12.5,11.9C12.4,11.9,12.4,11.9,12.5,11.9C12.5,11.9,12.5,11.9,12.5,11.9
				C12.5,11.9,12.5,11.9,12.5,11.9z"/>
			<path class="st1" d="M11.2,11.7C11.2,11.7,11.2,11.7,11.2,11.7C11.2,11.8,11.2,11.8,11.2,11.7c0.1,0,0.1-0.1,0.2-0.1
				c0.1-0.1,0.2-0.1,0.3-0.2c0,0,0,0,0,0c0,0-0.1,0-0.1,0c0,0,0,0,0,0c0,0,0,0,0,0c-0.2,0.1-0.4,0.2-0.6,0.3
				C11.1,11.7,11.1,11.7,11.2,11.7C11.2,11.7,11.2,11.7,11.2,11.7z"/>
			<path class="st1" d="M11.7,11.6c-0.1,0.1-0.3,0.1-0.4,0.3c0,0,0,0,0,0c0.1,0,0.1-0.1,0.2-0.1C11.6,11.8,11.7,11.7,11.7,11.6
				C11.7,11.7,11.7,11.6,11.7,11.6z"/>
			<path class="st1" d="M11.6,11.9c0.1,0,0.1-0.1,0.2-0.1c0,0,0.1-0.1,0.1-0.1c0,0,0,0,0,0c0,0,0,0,0,0c0,0,0,0,0,0c0,0,0,0,0.1,0
				l0,0c0,0,0,0,0,0c0,0,0,0,0,0c0,0,0.1-0.1,0.1-0.1c0.1-0.1,0.2-0.2,0.2-0.3c0,0,0,0,0,0c-0.1,0.1-0.3,0.2-0.4,0.3
				c0,0-0.1,0.1-0.1,0.1c-0.1,0-0.1,0.1-0.2,0.1C11.7,11.7,11.6,11.8,11.6,11.9C11.6,11.9,11.6,11.9,11.6,11.9z"/>
			<path class="st1" d="M12.1,12C12.1,12,12.1,12,12.1,12c0.1,0,0.1,0,0.1,0c0,0,0.1,0,0.1-0.1c0,0,0,0,0,0c0,0,0,0,0,0
				c0,0,0.1-0.1,0.1-0.1c0.1-0.1,0.2-0.2,0.3-0.2c0,0,0-0.1,0,0c-0.1,0.1-0.2,0.1-0.3,0.2c-0.1,0-0.1,0.1-0.2,0.2c0,0,0,0,0,0
				c0-0.1,0.1-0.1,0.1-0.2c0.1-0.1,0.2-0.2,0.3-0.3c0,0,0,0,0,0c-0.1,0.1-0.2,0.2-0.3,0.3c-0.1,0.1-0.2,0.2-0.2,0.3c0,0,0,0,0,0
				C12,12,12,12,12.1,12C12,12,12,12.1,12.1,12z"/>
			<path class="st1" d="M12.7,12.1c0-0.1,0.1-0.1,0.1-0.2c0,0,0-0.1,0-0.1c-0.1,0-0.3,0.2-0.3,0.3c0,0.1,0.1,0.1,0.1,0.1
				C12.6,12.2,12.6,12.1,12.7,12.1z"/>
			<path class="st1" d="M12.9,12c-0.1,0-0.3,0.1-0.2,0.2c0,0,0,0,0,0c0,0,0.1,0,0.1-0.1C12.8,12.2,12.9,12.1,12.9,12
				C13,12.1,13,12,12.9,12z"/>
			<path class="st1" d="M12.9,12.2c-0.1,0-0.1,0.1-0.1,0.2c0,0,0,0,0,0C12.8,12.4,12.8,12.3,12.9,12.2
				C12.9,12.3,12.9,12.2,12.9,12.2z"/>
			<path class="st1" d="M12.9,12.5c0,0.1,0,0.2,0,0.3c0,0,0,0,0,0C13,12.7,12.9,12.6,12.9,12.5C12.9,12.4,12.8,12.5,12.9,12.5
				C12.8,12.5,12.8,12.6,12.9,12.5C12.8,12.6,12.8,12.6,12.9,12.5C12.8,12.6,12.8,12.5,12.9,12.5z"/>
			<path class="st1" d="M12.9,13.1c0.1,0,0.1-0.1,0.1-0.2c0,0,0-0.1-0.1-0.1C12.9,12.9,12.8,13,12.9,13.1
				C12.9,13.1,12.9,13.1,12.9,13.1z"/>
			<path class="st1" d="M13,13.5c0.1-0.1,0-0.2,0.1-0.3c0,0,0,0,0,0C12.9,13.3,12.9,13.4,13,13.5C12.9,13.5,12.9,13.5,13,13.5z"/>
			<path class="st1" d="M16.6,11.4C16.7,11.4,16.7,11.3,16.6,11.4c-0.1-0.1-0.2-0.1-0.3-0.2c-0.1-0.1-0.2-0.2-0.3-0.2c0,0,0,0,0,0
				C16.1,11.1,16.4,11.3,16.6,11.4z"/>
			<path class="st1" d="M15.8,11.1c0,0.1,0.1,0.1,0.1,0.2c0.1,0.1,0.2,0.1,0.3,0.2c0.1,0,0.1,0.1,0.2,0.1c0,0,0,0,0,0
				c-0.1-0.1-0.2-0.2-0.3-0.2c-0.1,0-0.1-0.1-0.2-0.1C15.9,11.2,15.9,11.1,15.8,11.1C15.9,11.1,15.9,11.1,15.8,11.1
				C15.8,11.1,15.8,11.1,15.8,11.1z"/>
			<path class="st1" d="M15.7,11.2c0,0.1,0.1,0.1,0.1,0.2c0,0-0.1,0,0,0.1c0.1,0.1,0.3,0.3,0.5,0.4c0,0,0,0,0,0
				c-0.1-0.1-0.1-0.1-0.2-0.2c0,0,0,0-0.1,0c0.1,0.1,0.2,0.1,0.3,0.1c0,0,0,0,0,0c-0.1-0.1-0.2-0.1-0.3-0.2
				C15.9,11.4,15.8,11.3,15.7,11.2C15.7,11.2,15.7,11.2,15.7,11.2z"/>
			<path class="st1" d="M15.7,11.6c0.1,0.2,0.3,0.4,0.5,0.4c0,0,0,0,0,0C16,11.8,15.8,11.7,15.7,11.6C15.7,11.5,15.7,11.5,15.7,11.6
				z"/>
			<path class="st1" d="M15.8,12c0.1,0.1,0.1,0.3,0.3,0.3c0,0,0,0,0,0c0-0.1,0-0.1-0.1-0.2c0,0,0,0,0,0c0,0,0,0,0,0
				c0-0.1-0.1-0.1-0.2-0.2c0,0-0.1-0.1-0.1-0.2c0,0,0,0,0,0C15.8,11.9,15.8,11.9,15.8,12C15.8,12,15.8,12,15.8,12z"/>
			<path class="st1" d="M15.9,12.5c0-0.1,0-0.1-0.1-0.2c0-0.1-0.1-0.2-0.1-0.2c0,0-0.1,0,0,0C15.8,12.3,15.8,12.4,15.9,12.5
				C15.9,12.5,15.9,12.5,15.9,12.5z"/>
			<path class="st1" d="M15.9,12.7C15.9,12.7,15.9,12.7,15.9,12.7c0-0.1-0.1-0.2-0.1-0.3c0,0,0,0,0,0C15.7,12.6,15.8,12.7,15.9,12.7
				C15.8,12.7,15.8,12.7,15.9,12.7C15.8,12.8,15.8,12.8,15.9,12.7c-0.3,0-0.7,0-0.8,0c-0.1,0-0.6,0.2-0.7,0.4c0,0,0,0-0.1-0.1
				c0.1-0.1,0.1-0.1,0.2-0.1c0,0,0,0,0,0c0,0,0.1,0,0.1-0.1c0.1,0,0.1-0.1,0.2-0.1c0,0,0,0,0,0c0,0-0.1,0-0.1,0c0,0,0,0,0,0
				c-0.1,0-0.1,0.1-0.2,0.1c0,0,0,0,0,0c0,0,0,0-0.1,0c0,0,0,0,0,0c0,0,0,0,0,0c0,0,0,0,0,0c0,0,0,0,0,0h0c0,0-0.1,0-0.1,0.1
				c0,0,0,0,0-0.1c0,0,0,0,0,0c0,0-0.1,0-0.1,0c0,0,0,0,0,0c0,0,0-0.1,0-0.1c0,0,0,0,0,0c0,0,0,0,0,0c0,0,0,0,0,0
				c-0.1,0-0.2,0-0.3,0c0.1,0,0.1-0.1,0.2-0.1c0,0,0,0,0,0c-0.1,0-0.1,0.1-0.2,0.1c0,0,0,0,0,0c0,0,0,0,0,0c-0.1,0-0.2,0.1-0.3,0.1
				c0.1,0,0.2-0.1,0.2-0.2c0,0,0,0,0,0c-0.1,0.1-0.2,0.1-0.4,0.2c0,0,0,0,0,0c0.2,0,0.3-0.1,0.4-0.1c0,0,0,0,0,0c0,0,0,0,0,0
				c0,0-0.1,0-0.1,0c0,0,0,0.1,0,0.1c0,0,0.1,0,0.1,0c0,0,0,0-0.1,0c0,0,0,0.1,0,0.1c-0.1,0-0.3,0.1-0.4,0.1c0,0,0,0,0,0
				c0,0-0.1,0-0.1,0c0,0,0,0,0,0c0,0,0,0,0,0c0,0,0,0,0,0c0,0,0,0,0,0c0,0,0,0,0,0c0,0,0,0,0,0c0,0,0,0,0,0c-0.1,0-0.1,0.1-0.1,0.2
				c0,0,0,0,0,0c0.1-0.1,0.1-0.1,0.2-0.2c0,0,0.1,0,0.1,0c0.1,0,0.2,0,0.3,0c0,0,0,0,0,0c0,0,0,0,0,0c0,0,0,0,0.1,0c0,0,0,0,0,0
				c-0.1,0-0.2,0-0.3-0.1c0,0,0.1,0,0.2,0c0,0,0.1,0.1,0.2,0.1c0.1,0,0.1,0.1,0.2,0.1c0,0,0,0,0,0c0,0,0,0,0,0
				c0.1,0,0.2,0.1,0.2,0.1c0,0,0,0,0,0c0-0.1-0.1-0.1-0.2-0.1c-0.1,0-0.1,0-0.1,0c0,0,0,0-0.1,0c0,0-0.1-0.1-0.1-0.1c0,0,0,0,0.1,0
				c0.1,0,0.2,0,0.3,0c0.1,0,0.2,0.1,0.3,0.2c0,0,0,0,0,0l0,0c0,0,0,0,0,0c0-0.1,0.1-0.1,0.2-0.2c0,0,0.1-0.1,0.1-0.1c0,0,0,0,0,0
				c0.1-0.1,0.2-0.1,0.3-0.1c0,0,0,0,0,0c-0.1,0-0.2,0.1-0.3,0.1c0,0,0.1,0,0.1-0.1c0,0,0,0,0,0c0.1,0,0.2,0,0.3-0.1
				c0.1,0,0.3,0,0.4,0c0.1,0,0.1,0.1,0.2,0.1c0,0,0,0.1,0,0.1c0,0,0,0,0.1,0c0,0,0,0,0-0.1c0,0,0,0,0,0c0,0,0,0,0,0c0,0,0-0.1,0-0.1
				c0,0,0,0,0,0C15.9,12.9,15.9,12.8,15.9,12.7C15.9,12.8,15.9,12.8,15.9,12.7C15.9,12.8,15.9,12.8,15.9,12.7z M14.3,12.9
				C14.3,13,14.3,13,14.3,12.9C14.3,13,14.3,13,14.3,12.9C14.3,13,14.3,13,14.3,12.9C14.3,13,14.3,12.9,14.3,12.9z M14.2,12.9
				C14.2,12.9,14.2,12.9,14.2,12.9C14.2,12.9,14.2,12.9,14.2,12.9C14.2,12.9,14.2,12.9,14.2,12.9c-0.1,0-0.1,0-0.1,0
				C14.1,12.9,14.2,12.9,14.2,12.9z M14,12.9C14,12.9,13.9,12.9,14,12.9C13.9,12.9,13.9,12.9,14,12.9C14,12.9,14,12.9,14,12.9z"/>
			<path class="st1" d="M16.7,11.5c0.1,0,0.2,0,0.4,0c0,0,0.1,0,0.1,0c0,0,0,0,0,0c0.1,0,0.1,0,0.2,0.1c0,0,0,0,0,0c0,0,0,0,0,0
				c0,0,0,0,0,0c-0.1-0.1-0.3-0.2-0.5-0.3c-0.1-0.1-0.2-0.1-0.2-0.1c-0.1,0-0.1-0.1-0.2-0.1c0,0,0,0,0.1,0c0,0,0,0,0,0
				c-0.1-0.1-0.2-0.1-0.3-0.2c-0.1-0.1-0.2-0.1-0.3-0.2c0,0,0,0,0,0c0.1,0.1,0.2,0.1,0.3,0.2c0,0,0,0,0.1,0c-0.1,0-0.1-0.1-0.2-0.1
				c0,0,0,0,0,0c0.1,0.1,0.3,0.2,0.4,0.3c-0.2-0.1-0.4-0.2-0.5-0.3c0,0,0,0,0,0c0.2,0.1,0.3,0.3,0.5,0.3c0,0,0,0,0,0c0,0,0,0,0,0
				C16.6,11.3,16.7,11.3,16.7,11.5c-0.1-0.1-0.2-0.1-0.3-0.2c-0.1,0-0.1-0.1-0.2-0.1c-0.1,0-0.2-0.1-0.3-0.1c0,0,0,0,0,0
				c0.1,0,0.2,0.1,0.3,0.1c0.1,0.1,0.2,0.1,0.3,0.2c0,0,0,0,0,0c0,0,0,0-0.1-0.1c0.1,0,0.2,0,0.3,0C16.8,11.5,16.8,11.5,16.7,11.5
				C16.7,11.5,16.7,11.5,16.7,11.5z"/>
			<path class="st1" d="M13.6,12.8c-0.1,0-0.2,0.1-0.4,0.2c0,0,0,0.1,0,0c0.2-0.1,0.3-0.1,0.4-0.2c0,0,0,0,0,0
				C13.7,12.8,13.6,12.8,13.6,12.8C13.6,12.8,13.6,12.8,13.6,12.8z"/>
			<path class="st1" d="M14.1,12.6C14.1,12.6,14.1,12.5,14.1,12.6c-0.2,0-0.4,0-0.6,0c0,0,0,0,0.1,0c0,0,0,0,0,0
				c-0.1,0-0.2,0.1-0.3,0.1c0,0,0,0,0,0l0,0c0,0,0,0,0,0c0,0,0,0.1,0,0C13.5,12.6,13.8,12.5,14.1,12.6z"/>
			<path class="st1" d="M13.3,12.6C13.4,12.6,13.4,12.5,13.3,12.6c0.1-0.1,0.1-0.1,0.2-0.1c0,0,0,0,0,0
				C13.4,12.5,13.4,12.5,13.3,12.6C13.3,12.6,13.3,12.6,13.3,12.6z"/>
			<path class="st1" d="M13.9,12.2c-0.2,0-0.4,0.1-0.6,0.2c0,0,0,0.1,0,0C13.5,12.4,13.7,12.3,13.9,12.2C14,12.2,14,12.2,13.9,12.2z
				"/>
			<path class="st1" d="M13.3,12.3C13.3,12.3,13.3,12.4,13.3,12.3c0.2,0,0.4-0.1,0.5-0.2c0,0,0.1,0,0.1-0.1c0,0,0,0,0,0c0,0,0,0,0,0
				c0,0,0,0,0,0c0,0,0,0,0,0c0,0,0,0,0,0c0,0,0,0,0,0c0,0,0,0,0,0c-0.1,0-0.1,0-0.2,0c0,0,0.1-0.1,0.1-0.1c0,0,0,0,0,0
				c-0.1,0-0.2,0.1-0.3,0.2c0,0,0,0.1,0,0.1c0.1,0,0.2-0.1,0.2-0.1c0,0,0,0-0.1,0C13.6,12.1,13.5,12.2,13.3,12.3z"/>
			<path class="st1" d="M14.1,11.8c-0.2,0-0.3,0.1-0.5,0.1c0,0,0.1-0.1,0.1-0.1c0,0,0,0,0,0c-0.1,0-0.1,0-0.2,0.1c0,0,0,0,0,0
				C13.7,11.9,13.9,11.9,14.1,11.8C14.1,11.8,14.1,11.8,14.1,11.8z"/>
			<path class="st1" d="M14,11.6c-0.1,0-0.2,0.1-0.3,0.1c0,0,0,0.1,0,0.1c0.1,0,0.1,0,0.2,0c0,0,0,0,0,0c0,0-0.1,0-0.1,0
				C13.9,11.7,13.9,11.6,14,11.6C14,11.6,14,11.6,14,11.6z"/>
			<path class="st1" d="M15.1,12.5c0.2,0,0.4,0,0.5,0.1c0,0,0,0,0,0c-0.1,0-0.2,0-0.3-0.1c0.1,0,0.1,0,0.2,0c0,0,0,0,0,0
				c0,0-0.1,0-0.1,0c0,0,0,0,0,0c-0.1,0-0.1,0-0.2,0c0.1,0,0.2-0.1,0.2-0.1c0,0,0-0.1,0-0.1c-0.1,0-0.3,0-0.4-0.1
				c0.1,0,0.2-0.1,0.3-0.2c0,0,0-0.1,0-0.1c-0.1,0-0.3,0-0.4,0c0.1,0,0.2-0.1,0.2-0.1c0,0,0-0.1,0-0.1c-0.1,0-0.3,0-0.4,0
				c0,0,0,0,0,0c0,0,0,0,0,0c-0.1,0-0.3-0.1-0.4-0.3c0,0-0.1,0-0.1,0c0,0.1,0.1,0.1,0.1,0.2c0.1,0,0.1,0.1,0.2,0.1
				c0.1,0,0.1,0,0,0.1c0,0,0,0.1,0,0.1c0.1,0,0.2,0,0.3,0c-0.1,0-0.1,0.1-0.2,0.1c0,0,0,0.1,0,0.1c0.2,0,0.3,0,0.5,0
				c-0.1,0.1-0.2,0.1-0.3,0.1c0,0,0,0.1,0,0.1c0.1,0.1,0.3,0.1,0.4,0.1c-0.1,0-0.2,0-0.3,0.1c0,0,0,0.1,0,0.1c0.1,0,0.1,0,0.2,0
				C15.2,12.4,15.2,12.4,15.1,12.5C15.1,12.4,15.1,12.5,15.1,12.5z"/>
			<path class="st1" d="M14.1,14.1c0.1-0.1,0.1-0.2,0-0.3c0-0.1,0-0.2-0.1-0.3c-0.1-0.1-0.2-0.1-0.3-0.1c-0.1,0-0.3,0-0.4,0.1
				c0,0,0,0,0,0c0,0,0,0.1,0,0.1c0,0,0,0,0,0c0,0,0,0,0-0.1c0.1,0,0.3,0.2,0.3,0.3C13.8,13.9,13.9,14.1,14.1,14.1
				C14.1,14.1,14.1,14.1,14.1,14.1C14.1,14.1,14.1,14.1,14.1,14.1C14.1,14.1,14.1,14.1,14.1,14.1z M13.7,13.5c0.1,0,0.1,0.1,0.2,0.2
				C13.8,13.6,13.8,13.6,13.7,13.5C13.8,13.6,13.7,13.5,13.7,13.5z"/>
			<path class="st1" d="M15.7,13.4C15.7,13.3,15.7,13.3,15.7,13.4c0-0.1,0-0.1,0-0.1c0,0,0,0,0,0l0,0c0,0,0,0,0,0
				c-0.1,0-0.2,0-0.2,0.1c0,0,0,0,0,0c0,0-0.1-0.1-0.2-0.1c-0.1,0-0.3,0.1-0.3,0.2c-0.1,0.2,0,0.4,0,0.7c0,0,0,0,0,0
				c0-0.1,0-0.2,0.1-0.2c0,0,0,0,0,0c0,0,0,0,0.1,0c0,0,0-0.1,0-0.1c0,0,0,0,0,0c0,0,0,0,0,0c0,0,0,0,0,0c0,0,0,0,0,0
				c0.1-0.1,0.1-0.1,0.2-0.2C15.5,13.5,15.6,13.4,15.7,13.4C15.7,13.4,15.7,13.4,15.7,13.4z"/>
			<path class="st1" d="M15.3,12.9c-0.1,0-0.2,0.1-0.2,0.1c0,0,0,0,0,0C15.1,12.9,15.2,12.9,15.3,12.9
				C15.3,12.9,15.3,12.9,15.3,12.9z"/>
			<path class="st1" d="M15.6,12.9c-0.1,0-0.2,0-0.3,0c0,0,0,0,0,0C15.4,12.9,15.5,12.9,15.6,12.9C15.6,12.9,15.6,12.9,15.6,12.9z"
				/>
			<path class="st1" d="M13.8,10.7c0,0.1-0.1,0.1-0.2,0.2c0,0,0,0,0,0C13.7,10.9,13.8,10.8,13.8,10.7C13.9,10.7,13.8,10.7,13.8,10.7
				z"/>
			<path class="st1" d="M14.1,10.2c-0.2,0.1-0.4,0.3-0.6,0.5c0,0,0,0,0,0C13.8,10.6,14,10.4,14.1,10.2
				C14.2,10.2,14.2,10.2,14.1,10.2z"/>
			<path class="st1" d="M14.2,10c0,0.2,0.2,0.4,0.4,0.5c0,0,0,0,0,0c-0.1-0.1-0.1-0.2-0.2-0.2C14.3,10.2,14.3,10.1,14.2,10
				C14.3,10,14.3,10,14.2,10C14.3,9.9,14.3,9.9,14.2,10C14.2,10,14.2,10,14.2,10C14.2,10,14.2,10,14.2,10c-0.2,0.1-0.3,0.3-0.5,0.4
				c0,0,0,0,0,0C13.9,10.3,14.1,10.2,14.2,10z"/>
			<path class="st1" d="M14.1,9.5c0.1-0.1,0.2-0.3,0.2-0.4c0,0,0,0,0,0.1c0,0.1-0.1,0.2-0.1,0.2C14.2,9.4,14.2,9.4,14.1,9.5
				C14.1,9.5,14.1,9.5,14.1,9.5C14.1,9.5,14.1,9.5,14.1,9.5c0,0,0,0.1-0.1,0.2c0,0,0,0,0,0C14,9.6,14.1,9.6,14.1,9.5
				c0.1,0.1,0.1,0.1,0.1,0.1c-0.1,0.1-0.2,0.2-0.3,0.3c0,0,0,0,0,0c0.1-0.1,0.2-0.1,0.3-0.2c0,0,0,0.1,0,0.1
				c-0.1,0.2-0.3,0.3-0.5,0.4c0,0,0,0,0,0c0.2-0.1,0.3-0.3,0.5-0.4c0.1,0.3,0.3,0.5,0.5,0.7c0,0,0,0,0,0c-0.2-0.3-0.3-0.5-0.5-0.8
				c0,0,0,0,0,0c0,0,0,0,0,0c0,0,0,0,0,0c0,0,0,0,0-0.1c0,0,0,0,0.1-0.1c0,0.1,0.1,0.2,0.2,0.3c0,0,0,0,0,0c0-0.1-0.1-0.2-0.1-0.2
				c0,0,0-0.1,0-0.1c0,0,0-0.1,0-0.1c0,0.1,0.1,0.1,0.1,0.2c0,0,0,0,0,0c0,0,0,0,0,0c0,0,0.1,0,0.1,0c0,0,0,0.1,0.1,0.1c0,0,0,0,0,0
				c0,0,0,0,0,0c0.2,0.1,0.3,0.2,0.5,0.3c0,0,0,0,0,0c-0.2-0.1-0.3-0.3-0.5-0.3c-0.1-0.2-0.2-0.4-0.2-0.7c0,0,0-0.1,0-0.1
				c0,0,0,0,0,0c0,0,0,0,0,0.1c0,0,0,0,0,0C14.2,9.1,14.1,9.3,14.1,9.5C14,9.5,14,9.5,14.1,9.5z M14.3,9.4
				C14.3,9.4,14.3,9.4,14.3,9.4C14.3,9.4,14.3,9.4,14.3,9.4C14.3,9.4,14.3,9.4,14.3,9.4c-0.1,0.1-0.1,0.1-0.1,0.1c0,0,0,0,0-0.1
				c0.1-0.1,0.1-0.2,0.2-0.3C14.4,9.3,14.4,9.3,14.3,9.4C14.4,9.4,14.4,9.4,14.3,9.4z"/>
			<path class="st1" d="M14.1,9.1c0.1-0.2,0.1-0.3,0.2-0.5c0,0.1,0,0.2,0.1,0.2c0,0.1,0.1,0.2,0.1,0.3c0,0,0,0,0,0c0,0,0-0.1,0-0.1
				c0.1,0.2,0.3,0.4,0.5,0.5c0,0,0.1,0,0,0c-0.2-0.3-0.4-0.5-0.6-0.8c0-0.2-0.1-0.3-0.1-0.5c0,0,0,0,0,0c0,0.1,0,0.2,0,0.3
				C14.2,8.7,14.2,8.9,14.1,9.1C14.1,9.2,14.1,9.2,14.1,9.1z M14.3,8.6C14.3,8.6,14.3,8.6,14.3,8.6C14.3,8.6,14.3,8.6,14.3,8.6
				C14.3,8.6,14.3,8.6,14.3,8.6z"/>
			<path class="st1" d="M14.3,7.4c0,0.3,0,0.5,0,0.8c0,0.1-0.1,0.2-0.1,0.3c0,0,0,0,0,0c0-0.1,0.1-0.2,0.1-0.3c0,0.1,0,0.1,0,0.2
				c0,0,0,0,0,0C14.3,8,14.4,7.7,14.3,7.4C14.3,7.3,14.3,7.3,14.3,7.4z"/>
			<path class="st1" d="M15.3,10c0,0.2,0.1,0.3,0.2,0.4c0,0,0,0,0,0c0-0.1-0.1-0.1-0.1-0.2c0,0,0,0.1,0.1,0.1
				c0.1,0.1,0.2,0.2,0.3,0.3c0,0,0,0,0,0c-0.1-0.1-0.2-0.2-0.2-0.3c0-0.1-0.1-0.1-0.1-0.2c0,0,0,0,0,0C15.4,10.1,15.4,10.1,15.3,10
				L15.3,10C15.4,10.1,15.4,10.1,15.3,10C15.4,10.1,15.4,10.1,15.3,10c0,0,0-0.1,0-0.2c0,0,0,0,0,0c0,0,0,0,0,0
				c-0.2-0.4-0.2-0.8-0.2-1.2c0,0,0,0,0,0C15,9.1,15.1,9.6,15.3,10C15.3,10,15.3,10,15.3,10z"/>
			<path class="st1" d="M15.3,8.3c0,0.3,0,0.7,0.1,1c0,0,0,0,0,0C15.3,9,15.3,8.7,15.3,8.3C15.3,8.3,15.3,8.3,15.3,8.3z"/>
			<path class="st1" d="M15.4,8.3c0,0.2,0,0.3,0,0.5c0,0,0,0,0,0C15.4,8.6,15.4,8.4,15.4,8.3C15.4,8.3,15.4,8.3,15.4,8.3z"/>
			<path class="st1" d="M15.6,7.9C15.6,7.8,15.5,7.8,15.6,7.9c-0.1,0.3-0.1,0.7,0,1c0,0,0,0,0,0C15.6,8.5,15.6,8.2,15.6,7.9z"/>
			<path class="st1" d="M15.7,8.5c0-0.2,0-0.4,0.1-0.5c0,0,0,0,0,0C15.7,8.1,15.7,8.3,15.7,8.5C15.7,8.5,15.7,8.5,15.7,8.5z"/>
			<path class="st1" d="M16,7.7c-0.1,0.3-0.1,0.6-0.1,0.9c0,0,0,0,0,0C15.9,8.3,16,8,16,7.7C16,7.7,16,7.7,16,7.7z"/>
			<path class="st1" d="M16.3,7.5c0,0.1-0.1,0.1-0.1,0.2c0,0,0,0,0,0C16.2,7.7,16.3,7.6,16.3,7.5C16.3,7.5,16.3,7.5,16.3,7.5z"/>
			<path class="st1" d="M16.7,7.1C16.7,7.1,16.7,7.1,16.7,7.1c-0.1,0.2-0.2,0.3-0.2,0.5c0,0,0,0,0,0C16.5,7.5,16.6,7.3,16.7,7.1z"/>
			<path class="st1" d="M13.2,8.6c-0.1,0.3-0.1,0.7-0.1,1c0,0,0,0,0,0C13.2,9.3,13.3,9,13.2,8.6C13.3,8.6,13.2,8.6,13.2,8.6z"/>
			<path class="st1" d="M12.7,8.3c0,0.3,0.1,0.6,0.1,0.9c0,0,0,0,0,0c0,0.1,0,0.2,0,0.4c0,0.1,0,0.3,0,0.4c0,0,0.1,0,0.1,0
				c0-0.1,0-0.2,0-0.4c0-0.1,0-0.1,0-0.2c0,0,0,0,0,0C12.9,9,12.9,8.6,12.7,8.3C12.7,8.2,12.7,8.2,12.7,8.3z"/>
			<path class="st1" d="M12.7,8.9C12.7,9,12.7,9,12.7,8.9c0-0.2,0-0.4-0.1-0.6c0-0.1,0-0.2-0.1-0.3c0,0,0,0,0,0
				c0,0.2,0.1,0.4,0.1,0.6C12.6,8.7,12.7,8.8,12.7,8.9z"/>
			<path class="st1" d="M12.4,8.4c0-0.2,0-0.4-0.1-0.6c0,0,0,0,0,0C12.3,8.1,12.4,8.3,12.4,8.4C12.4,8.4,12.4,8.4,12.4,8.4z"/>
			<path class="st1" d="M11.8,7.7c0.1,0.2,0.2,0.4,0.3,0.6c0,0,0,0,0,0C12.1,8.1,12,7.9,11.8,7.7C11.9,7.7,11.8,7.7,11.8,7.7z"/>
			<path class="st1" d="M11.7,7.6C11.6,7.6,11.6,7.6,11.7,7.6c0,0.1,0.1,0.3,0.1,0.4c0.1,0.1,0.1,0.2,0.2,0.3c0,0,0,0,0,0
				c0-0.1-0.1-0.3-0.2-0.4C11.8,7.8,11.7,7.7,11.7,7.6z"/>
			<path class="st1" d="M12,7.7c0.1,0.2,0.2,0.5,0.2,0.8c0,0,0,0,0,0C12.2,8.2,12.2,8,12,7.7C12,7.7,12,7.7,12,7.7z"/>
			<path class="st1" d="M13.2,10.1c0.4-0.1,0.7-0.4,0.8-0.8c0,0,0,0,0,0C13.7,9.6,13.5,9.8,13.2,10.1C13.1,10,13.2,10.1,13.2,10.1z"
				/>
			<path class="st1" d="M13.3,9.4c0.2-0.1,0.4-0.3,0.5-0.6c0,0,0,0,0,0C13.9,8.6,14,8.5,14,8.3c0,0,0,0,0,0
				c-0.1,0.1-0.1,0.2-0.2,0.3c0,0,0,0,0,0c0,0,0,0,0,0c0,0.1-0.1,0.1-0.1,0.2c0,0.1-0.1,0.1-0.2,0.2c0,0,0,0,0,0
				c0.1,0,0.1-0.1,0.1-0.1c-0.1,0.1-0.2,0.2-0.3,0.3c0,0,0,0,0,0c0.1-0.1,0.3-0.2,0.3-0.4C13.6,9.1,13.5,9.3,13.3,9.4
				C13.3,9.4,13.3,9.4,13.3,9.4z"/>
			<path class="st1" d="M13.5,9.6C13.7,9.2,14,9,14.1,8.6c0,0,0,0,0,0C13.9,9,13.6,9.2,13.5,9.6C13.5,9.6,13.5,9.6,13.5,9.6z"/>
			<path class="st1" d="M14.6,9.4C14.6,9.4,14.6,9.4,14.6,9.4c0.1,0.1,0.2,0.2,0.3,0.3c0,0,0,0,0,0C14.8,9.5,14.7,9.5,14.6,9.4z"/>
			<path class="st1" d="M14.9,9.2c-0.2-0.3-0.4-0.6-0.4-1c0,0,0,0,0,0C14.4,8.6,14.6,9,14.9,9.2C14.9,9.2,14.9,9.2,14.9,9.2z"/>
			<path class="st1" d="M14.9,8.7c-0.2-0.3-0.3-0.7-0.4-1c0,0,0,0,0,0C14.5,8.1,14.6,8.5,14.9,8.7C14.9,8.8,14.9,8.8,14.9,8.7z"/>
			<path class="st1" d="M14.6,7.4c0,0.2,0,0.4,0.1,0.6c0,0,0,0,0,0C14.7,7.8,14.6,7.6,14.6,7.4C14.6,7.4,14.6,7.4,14.6,7.4z"/>
			<path class="st1" d="M13.4,8.6C13.4,8.7,13.4,8.7,13.4,8.6c0.1-0.1,0.2-0.3,0.3-0.4c0,0,0-0.1,0.1-0.1c0,0.1-0.1,0.3-0.1,0.4
				c0,0-0.1,0.1-0.2,0C13.4,8.5,13.4,8.5,13.4,8.6c0.1-0.1,0.2-0.1,0.2-0.1c0,0.1-0.1,0.1-0.1,0.2c0,0,0,0,0,0
				c0-0.1,0.1-0.1,0.1-0.2c0.1-0.1,0.2-0.2,0.2-0.4c0,0,0,0,0,0c0,0.1-0.1,0.2-0.2,0.3c0.1-0.1,0.1-0.3,0.1-0.4
				C13.9,7.9,14,7.7,14,7.6c0,0,0,0,0,0c0,0,0,0,0,0.1c0,0,0-0.1,0-0.1c0,0,0,0,0,0c-0.1,0.2-0.2,0.3-0.2,0.5c0,0,0,0,0,0
				c0,0-0.1,0.1-0.1,0.1C13.5,8.3,13.4,8.5,13.4,8.6z"/>
			<path class="st1" d="M13.4,8.2c0.2-0.3,0.4-0.6,0.4-1c0,0,0,0,0,0C13.7,7.5,13.6,7.8,13.4,8.2C13.4,8.2,13.4,8.2,13.4,8.2z"/>
			<path class="st1" d="M13.4,10.9C13.5,10.9,13.4,10.9,13.4,10.9c-0.1,0.1-0.3,0.2-0.4,0.3c0,0,0,0,0,0
				C13.2,11.1,13.3,11,13.4,10.9z"/>
			<path class="st1" d="M13,12.1c0.1,0,0.2-0.1,0.3-0.2c0.1-0.1,0.2-0.2,0.3-0.3c0,0,0,0,0,0c-0.1,0-0.1,0.1-0.2,0.2
				c-0.1,0-0.1,0-0.2,0c0,0,0,0,0,0c0,0,0.1,0,0.1,0C13.2,11.9,13.1,12,13,12.1C13,12.1,13,12.1,13,12.1z"/>
			<path class="st1" d="M13.3,12.2c0.1-0.1,0.2-0.2,0.3-0.3c0,0,0,0,0,0C13.4,12,13.3,12.1,13.3,12.2c-0.1,0-0.2,0.1-0.3,0.1
				c0,0,0,0,0,0C13.1,12.4,13.2,12.3,13.3,12.2z"/>
			<path class="st1" d="M15.1,10.6c0,0.1-0.1,0.2-0.1,0.3c0,0,0,0.1,0,0.1c0,0-0.1-0.1-0.1-0.1c0,0,0,0,0,0c0,0,0,0,0.1,0.1
				c0,0,0,0,0,0c0,0,0,0,0,0c0,0,0,0,0,0.1c0,0.1,0,0.1,0,0.2c0,0,0,0,0,0c0,0,0-0.1,0.1-0.1c0,0,0,0,0,0c0,0,0,0,0,0.1c0,0,0,0,0,0
				c0,0,0,0,0,0c0,0,0,0,0,0c0,0,0,0,0,0c0,0.1,0,0.2,0,0.3c0,0,0.1,0,0.1,0c0,0,0,0,0,0c0,0,0.1,0.1,0.1,0.1c0,0,0,0.1,0,0.1
				c0,0-0.1-0.1-0.1-0.1c0,0,0,0,0,0c0.1,0.1,0.1,0.1,0.2,0.2c0,0,0.1,0.1,0.1,0.1c0,0-0.1,0-0.1-0.1c0,0,0,0,0,0
				c0.1,0.1,0.1,0.1,0.2,0.1c0,0,0,0,0,0c0,0,0,0,0,0c0,0,0,0,0.1,0c0,0,0,0,0,0c0,0-0.1,0-0.1,0c-0.1-0.1-0.1-0.1-0.2-0.1
				c0,0-0.1,0-0.1-0.1c0,0,0,0,0,0c0,0,0-0.1,0-0.1c0,0,0.1,0.1,0.1,0.1c0,0,0,0,0,0c0,0-0.1-0.1-0.2-0.1c0,0,0-0.1,0-0.1
				c0,0,0.1,0.1,0.1,0.1c0,0,0,0,0,0c0-0.1-0.1-0.1-0.1-0.2c0,0,0,0,0,0c0,0,0,0,0,0c0,0,0,0,0,0c0,0,0.1,0,0.1,0c0,0,0,0,0,0
				c0,0-0.1,0-0.1-0.1c0,0,0-0.1,0-0.1c0,0,0,0,0,0c0,0,0,0,0,0c0-0.1-0.1-0.1-0.2-0.2c0,0,0,0,0-0.1c0.1,0.1,0.1,0.1,0.2,0.2
				c0,0,0,0,0,0c0-0.1-0.1-0.2-0.2-0.2c0,0,0,0,0-0.1c0,0,0,0,0,0c0.1,0.1,0.2,0.1,0.3,0.2c0,0,0,0,0,0c-0.1-0.1-0.2-0.2-0.4-0.3
				c0,0,0-0.1,0-0.1c0,0,0,0,0,0C15.2,10.6,15.2,10.6,15.1,10.6C15.2,10.7,15.2,10.7,15.1,10.6C15.2,10.6,15.1,10.7,15.1,10.6
				C15.2,10.7,15.2,10.7,15.1,10.6c0.1,0.1,0.1,0.1,0.1,0.1C15.2,10.7,15.1,10.7,15.1,10.6C15.1,10.7,15.1,10.7,15.1,10.6
				C15.1,10.7,15.1,10.7,15.1,10.6C15.1,10.6,15.1,10.6,15.1,10.6z M15.2,10.9C15.2,10.9,15.2,10.9,15.2,10.9
				C15.2,10.9,15.2,10.9,15.2,10.9C15.2,11,15.2,10.9,15.2,10.9C15.2,10.9,15.2,10.9,15.2,10.9z M15.2,11C15.2,11,15.2,11,15.2,11
				C15.2,11,15.2,11,15.2,11c0,0.1,0,0.1,0,0.2c0,0,0,0,0,0c0,0,0,0,0,0c0,0,0,0,0,0c0,0,0,0,0,0C15.2,11.2,15.2,11.1,15.2,11z
				 M15.2,11.6c0,0,0-0.1,0-0.1C15.3,11.5,15.3,11.5,15.2,11.6C15.3,11.5,15.3,11.6,15.2,11.6C15.3,11.6,15.3,11.6,15.2,11.6z
				 M15.4,11.2C15.4,11.2,15.4,11.2,15.4,11.2c0,0,0,0.1,0,0.1C15.3,11.3,15.3,11.3,15.4,11.2C15.3,11.3,15.3,11.2,15.4,11.2
				C15.3,11.2,15.3,11.2,15.4,11.2C15.3,11.2,15.3,11.2,15.4,11.2z M15.3,10.8C15.3,10.8,15.2,10.8,15.3,10.8
				C15.2,10.8,15.2,10.8,15.3,10.8C15.2,10.8,15.2,10.8,15.3,10.8C15.2,10.7,15.3,10.8,15.3,10.8z M15.1,10.8
				C15.1,10.8,15.1,10.8,15.1,10.8c0,0,0,0.1,0,0.1c0,0,0,0,0,0c0,0,0,0,0,0c0,0,0,0,0,0c0,0.1,0,0.1,0,0.2c0,0,0,0,0,0
				c0,0,0-0.1,0-0.1C15.1,10.9,15.1,10.8,15.1,10.8C15.1,10.8,15.1,10.8,15.1,10.8z"/>
			<path class="st1" d="M13,11.3C13,11.3,13,11.3,13,11.3c-0.1,0.1-0.1,0.1-0.2,0.2c0,0,0,0,0,0C12.9,11.4,13,11.4,13,11.3
				c0,0.1,0,0.1,0,0.2c0,0-0.1,0.1-0.1,0.1c0,0,0,0,0,0c0,0,0.1-0.1,0.1-0.1c0,0,0,0,0,0c0,0,0,0,0,0c0,0,0,0,0,0c0,0,0,0,0,0
				c0,0,0,0.1,0,0.1c0,0,0,0,0,0c0,0,0,0,0,0c0,0,0,0,0,0c0,0,0,0,0,0.1c-0.1,0-0.1,0-0.2,0c0,0,0,0,0,0c0.1,0,0.1,0,0.2,0
				c0,0,0,0,0,0c0,0,0,0,0,0c-0.1,0.1-0.1,0.1-0.2,0.2c0,0,0,0,0,0c0.1-0.1,0.2-0.2,0.3-0.2c0.1,0,0.2,0,0.3-0.1c0,0,0,0,0,0
				c0,0-0.1,0-0.1,0c0,0,0,0,0,0c0,0,0,0,0,0c0,0,0.1,0,0.1-0.1c0,0,0,0,0,0c0,0-0.1,0-0.1,0.1c0,0,0,0,0-0.1c0,0,0.1,0,0.1-0.1
				c0,0,0,0,0,0c0,0-0.1,0-0.1,0.1c0,0,0,0,0,0c0,0,0,0,0,0c0,0,0,0,0,0c0,0,0,0,0,0c0,0,0-0.1,0-0.1c0,0,0,0,0.1,0c0,0,0,0,0,0
				c0,0,0,0-0.1,0c0,0,0,0,0,0c0,0,0,0,0,0c-0.1,0-0.1,0.1-0.2,0.1C13.1,11.4,13.1,11.3,13,11.3c0.2-0.1,0.3-0.2,0.4-0.2
				c0,0,0,0,0,0C13.3,11.1,13.2,11.2,13,11.3C13.1,11.2,13,11.3,13,11.3z M13.1,11.5c0,0,0.1,0,0.1,0C13.2,11.5,13.2,11.5,13.1,11.5
				C13.1,11.5,13.1,11.5,13.1,11.5z M13.4,11.6C13.4,11.6,13.4,11.6,13.4,11.6C13.3,11.6,13.3,11.6,13.4,11.6
				C13.3,11.6,13.3,11.6,13.4,11.6C13.3,11.6,13.3,11.6,13.4,11.6z M13.3,11.5c0,0-0.1,0.1-0.1,0.1c0,0,0,0-0.1,0c0,0,0-0.1,0-0.1
				C13.2,11.5,13.2,11.5,13.3,11.5C13.3,11.5,13.3,11.5,13.3,11.5C13.3,11.5,13.3,11.5,13.3,11.5z M13.3,11.3c0,0,0,0.1,0,0.1
				c0,0,0,0,0,0c0,0-0.1,0-0.1,0c0,0,0,0,0-0.1C13.2,11.4,13.2,11.3,13.3,11.3z"/>
			<path class="st1" d="M13.4,11.2c0,0.1,0,0.2,0.1,0.3c0,0,0,0,0,0C13.5,11.3,13.5,11.2,13.4,11.2C13.5,11.1,13.4,11.1,13.4,11.2z"
				/>
			<path class="st1" d="M12.9,11c0.2-0.3,0.4-0.5,0.6-0.8c0,0,0,0,0,0C13.2,10.4,13,10.7,12.9,11C12.9,11,12.9,11,12.9,11z"/>
			<path class="st1" d="M17.3,7.7c-0.1,0.1-0.2,0.1-0.4,0.2c-0.1,0.1-0.2,0.1-0.3,0.2c0,0,0,0,0,0C16.8,8.1,16.9,8,17,8
				C17.1,7.9,17.2,7.8,17.3,7.7C17.3,7.7,17.3,7.7,17.3,7.7z"/>
			<path class="st1" d="M16.5,8.1C16.5,8.1,16.5,8.1,16.5,8.1c0.1-0.1,0.3-0.2,0.4-0.3c0.1-0.1,0.3-0.2,0.4-0.3c0,0,0,0,0,0
				c-0.1,0.1-0.3,0.2-0.4,0.3c0,0,0,0,0,0c0.2-0.2,0.4-0.3,0.5-0.5c0,0,0,0,0,0c-0.2,0.2-0.4,0.3-0.5,0.6c0,0,0,0,0,0
				C16.7,7.9,16.6,8,16.5,8.1z"/>
			<path class="st1" d="M16.8,7.5c0.1-0.1,0.2-0.1,0.3-0.2c0.1-0.1,0.2-0.2,0.3-0.3c0,0,0,0,0,0c-0.1,0.1-0.2,0.2-0.3,0.3
				C17,7.3,16.9,7.4,16.8,7.5C16.7,7.5,16.8,7.5,16.8,7.5z"/>
			<path class="st1" d="M16.9,7.3c0.2-0.1,0.4-0.3,0.6-0.5c0,0,0,0,0,0C17.3,6.9,17,7.1,16.9,7.3C16.9,7.3,16.9,7.3,16.9,7.3z"/>
			<path class="st1" d="M17.2,6.9c0.1-0.1,0.2-0.2,0.2-0.3c0,0,0,0,0,0C17.3,6.6,17.2,6.7,17.2,6.9c-0.1,0-0.2,0.1-0.3,0.2
				c0,0,0,0,0,0C17,7,17.1,7,17.2,6.9z"/>
			<path class="st1" d="M17.1,6.8c0.1-0.1,0.2-0.2,0.3-0.4c0,0,0,0,0,0C17.3,6.6,17.2,6.7,17.1,6.8C17.1,6.8,17.1,6.9,17.1,6.8z"/>
			<path class="st1" d="M17.4,6.3c0,0,0.1-0.1,0.1-0.1c-0.1,0.1-0.2,0.2-0.3,0.3c0,0,0,0,0,0c0.1-0.1,0.3-0.3,0.4-0.5c0,0,0,0,0,0
				c0-0.1,0.1-0.1,0.1-0.2c0,0,0,0,0,0C17.5,6,17.4,6.2,17.4,6.3C17.3,6.3,17.4,6.3,17.4,6.3z"/>
			<path class="st1" d="M10.9,7.6c0.1,0.1,0.2,0.1,0.3,0.1c0.1,0.1,0.2,0.1,0.3,0.2c0,0,0,0,0,0c0.1,0.1,0.1,0.2,0.1,0.3
				c0,0,0,0,0,0c-0.1-0.2-0.2-0.4-0.3-0.5c0,0,0,0,0,0c0.1,0.1,0.1,0.1,0.1,0.2C11.4,7.7,11.2,7.6,10.9,7.6
				C10.9,7.6,10.9,7.6,10.9,7.6z"/>
			<path class="st1" d="M11.4,7.7C11.4,7.7,11.5,7.7,11.4,7.7c0-0.1-0.1-0.1-0.1-0.1c0,0,0,0,0,0c0,0-0.1,0-0.1-0.1c0,0,0,0,0,0
				c-0.1,0-0.1-0.1-0.2-0.1c0,0-0.1,0,0,0.1C11.2,7.5,11.3,7.6,11.4,7.7z"/>
			<path class="st1" d="M11.4,7.5c-0.1-0.1-0.2-0.1-0.2-0.2c0,0-0.1-0.1-0.2-0.1c0,0,0,0,0,0C11.1,7.3,11.3,7.4,11.4,7.5
				C11.4,7.5,11.4,7.5,11.4,7.5z"/>
			<path class="st1" d="M11,7L11,7C11.1,7.1,11.1,7.1,11,7L11,7C11,7,11,7,11,7z"/>
			<path class="st1" d="M11,6.9C11,6.9,11,6.9,11,6.9L11,6.9C11,6.9,11,6.9,11,6.9C11,6.9,11,6.9,11,6.9c0.1,0.1,0.2,0.3,0.4,0.3
				c0,0,0,0,0,0C11.3,7.1,11.2,7,11,6.9C11.1,6.9,11.1,6.9,11,6.9C11.1,6.9,11,6.9,11,6.9z"/>
			<path class="st1" d="M11.5,7c0-0.1-0.1-0.1-0.2-0.2c-0.1-0.1-0.1-0.1-0.2-0.2c0,0-0.1,0-0.1,0.1h0c0,0,0,0,0,0c0,0,0,0,0,0
				C11.2,6.9,11.3,7,11.5,7C11.5,7.1,11.5,7,11.5,7z"/>
			<path class="st1" d="M11.2,6.6C11.2,6.5,11.2,6.5,11.2,6.6C11.2,6.5,11.2,6.5,11.2,6.6C11.2,6.5,11.2,6.5,11.2,6.6
				C11.2,6.5,11.2,6.5,11.2,6.6C11.1,6.5,11.1,6.5,11.2,6.6C11.1,6.6,11.2,6.6,11.2,6.6c0.1,0.1,0.1,0.2,0.2,0.3c0,0,0,0,0,0
				C11.4,6.7,11.4,6.7,11.2,6.6C11.3,6.6,11.2,6.6,11.2,6.6z"/>
			<path class="st1" d="M11.3,6.5C11.3,6.5,11.4,6.5,11.3,6.5c0-0.1-0.1-0.1-0.1-0.2c0,0,0,0-0.1-0.1c0,0,0,0,0,0c0,0,0,0,0,0
				c0,0,0,0,0,0l0,0c0,0,0,0,0,0C11.1,6.4,11.2,6.5,11.3,6.5z"/>
			<path class="st1" d="M11,5.8C11,5.8,10.9,5.8,11,5.8C10.9,5.9,10.9,5.9,11,5.8C11,5.9,11,5.9,11,6c0,0,0,0.1,0.1,0.1
				c0,0.1,0.1,0.1,0.1,0.1c0,0,0,0,0,0c0,0-0.1-0.1-0.1-0.2c0,0,0,0,0,0c0.1,0.1,0.1,0.1,0.2,0.2c0,0,0,0,0,0c0-0.1-0.1-0.2-0.1-0.2
				C11.2,6,11.1,5.9,11,5.8z"/>
			<path class="st1" d="M11.1,5.5C11,5.5,11,5.5,11,5.6c0,0.1,0.1,0.2,0.2,0.3c0,0,0,0,0,0c0-0.1-0.1-0.1-0.1-0.2
				C11.1,5.7,11,5.6,11.1,5.5C11.1,5.6,11.1,5.5,11.1,5.5C11.1,5.5,11.1,5.5,11.1,5.5z"/>
			<path class="st1" d="M11.2,7.9C11.2,7.9,11.2,7.9,11.2,7.9C11.2,7.9,11.2,7.9,11.2,7.9C11.2,7.9,11.2,7.9,11.2,7.9
				C11.2,7.9,11.2,7.9,11.2,7.9C11.2,8,11.2,8,11.2,7.9C11.2,8,11.2,8,11.2,7.9C11.3,8,11.4,8,11.4,8c0,0,0,0,0-0.1
				C11.4,7.9,11.2,7.8,11.2,7.9z"/>
			<path class="st1" d="M10.7,7C10,6.4,9.6,5.4,9.3,4.5c0,0-0.1,0,0,0C9.5,5.5,9.9,6.4,10.7,7C10.7,7.1,10.8,7,10.7,7z"/>
			<path class="st1" d="M18.2,4.1c-0.1,1-0.2,2.1-0.7,3c0,0,0,0,0,0C18.1,6.2,18.2,5.1,18.2,4.1C18.3,4.1,18.2,4.1,18.2,4.1z"/>
			<path class="st1" d="M19.1,4.5c-0.1,0.4-0.3,0.9-0.4,1.3c-0.2,0.5-0.5,0.9-0.7,1.4c0,0,0,0,0,0c0.2-0.4,0.5-0.8,0.6-1.2
				C18.9,5.5,19,5,19.1,4.5C19.1,4.5,19.1,4.5,19.1,4.5z"/>
			<path class="st1" d="M9.5,3.3C9.5,3.3,9.5,3.3,9.5,3.3c0.1,0.1,0.1,0.2,0.1,0.2c0,0,0,0,0,0C9.6,3.4,9.6,3.2,9.5,3.3
				C9.5,3.2,9.5,3.2,9.5,3.3C9.5,3.2,9.5,3.2,9.5,3.3C9.4,3.3,9.5,3.3,9.5,3.3z"/>
			<path class="st1" d="M9.7,3.4c0-0.1-0.1-0.1-0.1-0.2c0,0,0,0,0,0C9.7,3.3,9.7,3.3,9.7,3.4C9.7,3.4,9.7,3.4,9.7,3.4z"/>
			<path class="st1" d="M10.1,3.8C10.1,3.9,10.1,3.8,10.1,3.8c0-0.1,0-0.2-0.1-0.3c0-0.1-0.1-0.2-0.1-0.3c0,0-0.1,0-0.1,0
				C9.9,3.5,10,3.7,10.1,3.8z"/>
			<path class="st1" d="M10.3,4C10.4,4,10.4,4,10.3,4c0-0.1-0.1-0.3-0.1-0.4c0-0.1-0.1-0.2-0.1-0.3c0,0,0,0,0,0
				c0,0.1,0.1,0.2,0.1,0.3C10.2,3.7,10.3,3.8,10.3,4z"/>
			<path class="st1" d="M10.7,4.2C10.7,4.2,10.7,4.2,10.7,4.2c0-0.2-0.1-0.3-0.1-0.4c0,0-0.1-0.3-0.1-0.3c0,0,0-0.1,0,0
				c-0.1,0.1,0,0.3,0,0.3C10.5,3.9,10.5,4.1,10.7,4.2z"/>
			<path class="st1" d="M10.8,4.1C10.9,4.1,10.9,4.1,10.8,4.1c0-0.2-0.1-0.4-0.2-0.6c0,0-0.1,0-0.1,0c0,0.1,0,0.2,0.1,0.3
				C10.7,3.9,10.8,4,10.8,4.1z"/>
			<path class="st1" d="M10.9,3.6c0-0.1,0-0.1,0-0.2c0,0.1,0.1,0.2,0.1,0.4c0,0.1,0.1,0.2,0.2,0.3c0,0,0,0,0.1,0c0,0,0-0.1,0-0.1v0
				c0,0,0,0,0,0c0-0.1,0-0.2,0-0.3c0-0.1,0-0.2,0-0.3c0,0,0,0,0,0c0,0,0,0,0,0c0,0,0,0,0,0c0,0,0,0,0,0c0,0,0,0,0,0c0,0,0,0,0,0
				c0,0,0,0,0,0c0,0,0,0,0,0c0,0.1,0,0.2,0,0.2c0,0.1,0,0.1,0,0.2c0,0,0-0.1,0-0.1c-0.1-0.1-0.1-0.3-0.2-0.4c0,0-0.1,0-0.1,0
				C10.9,3.5,10.9,3.5,10.9,3.6C10.9,3.6,10.9,3.6,10.9,3.6z"/>
			<path class="st1" d="M11.5,4c0-0.1,0-0.2,0-0.3c0-0.1,0-0.2,0-0.4c0,0-0.1,0-0.1,0C11.4,3.6,11.4,3.8,11.5,4
				C11.5,4,11.5,4,11.5,4z"/>
			<path class="st1" d="M11.6,4C11.7,4,11.7,4,11.6,4c0.1-0.1,0-0.2,0-0.3c0-0.1,0-0.3,0-0.4c0,0-0.1,0-0.1,0c0,0.1,0,0.3,0,0.4
				C11.6,3.8,11.6,3.9,11.6,4z"/>
			<path class="st1" d="M11.9,4.1c0-0.1,0-0.2-0.1-0.4c0-0.1,0-0.3,0-0.4c0,0-0.1,0-0.1,0C11.7,3.5,11.7,3.9,11.9,4.1
				C11.9,4.1,11.9,4.1,11.9,4.1z"/>
			<path class="st1" d="M12,4.1C12,4.1,12.1,4.1,12,4.1c0.1-0.1,0-0.2,0-0.3c0-0.1,0-0.2,0-0.3c0,0-0.1,0-0.1,0c0,0.1,0,0.2,0,0.4
				C12,3.9,12,4,12,4.1z"/>
			<path class="st1" d="M12.3,4.1c0-0.1,0-0.2-0.1-0.2c0-0.1,0-0.2,0-0.3c0,0,0,0-0.1,0C12.1,3.7,12.1,4,12.3,4.1
				C12.2,4.1,12.3,4.1,12.3,4.1z"/>
			<path class="st1" d="M12.4,4.1C12.4,4.1,12.4,4.1,12.4,4.1c0-0.1,0-0.2,0-0.2c0-0.1,0-0.2,0-0.3c0,0-0.1,0-0.1,0
				C12.3,3.7,12.3,4,12.4,4.1z"/>
			<path class="st1" d="M12.6,4.1c0-0.1,0-0.1,0-0.2c0-0.1,0-0.2,0-0.3c0,0,0,0,0,0C12.5,3.7,12.5,4,12.6,4.1
				C12.6,4.1,12.6,4.1,12.6,4.1z"/>
			<path class="st1" d="M12.9,4c0-0.1,0-0.1,0-0.2c0-0.1,0-0.2,0-0.3c0,0,0,0,0,0C12.8,3.6,12.8,3.9,12.9,4C12.9,4,12.9,4,12.9,4z"
				/>
			<path class="st1" d="M13,3.9C13,3.9,13,3.9,13,3.9c0-0.1,0-0.3,0-0.4c0,0,0,0-0.1,0C12.9,3.6,12.9,3.9,13,3.9z"/>
			<path class="st1" d="M13.3,3.9c0-0.1,0-0.2,0-0.2c0-0.1,0-0.2,0-0.3c0,0-0.1,0-0.1,0c0,0.1,0,0.2,0,0.3
				C13.3,3.7,13.2,3.8,13.3,3.9C13.3,3.9,13.3,3.9,13.3,3.9z"/>
			<path class="st1" d="M13.6,3.9c0-0.1,0-0.2,0-0.2c0-0.1,0-0.2,0.1-0.3c0,0,0,0,0,0c0,0.1-0.1,0.2-0.1,0.3
				C13.5,3.7,13.5,3.8,13.6,3.9C13.5,3.9,13.6,3.9,13.6,3.9z"/>
			<path class="st1" d="M13.9,3.9c0-0.1,0-0.1,0-0.2c0-0.1,0-0.2,0.1-0.3c0,0,0-0.1-0.1,0C13.8,3.5,13.8,3.7,13.9,3.9
				C13.9,3.9,13.9,3.9,13.9,3.9z"/>
			<path class="st1" d="M14,4.1C14,4.1,14,4.1,14,4.1C14,4,14,3.9,14,3.9c0-0.1,0-0.2,0-0.3c0,0,0,0-0.1,0C14,3.7,13.9,3.9,14,4.1z"
				/>
			<path class="st1" d="M14.3,3.9c0,0,0-0.1,0-0.1c0-0.1,0-0.2,0.1-0.2c0,0,0-0.1-0.1,0C14.2,3.6,14.2,3.8,14.3,3.9
				C14.2,3.9,14.3,3.9,14.3,3.9z"/>
			<path class="st1" d="M14.6,3.9C14.6,3.9,14.6,3.9,14.6,3.9C14.6,3.9,14.6,3.9,14.6,3.9C14.6,4,14.7,4,14.7,4c0-0.1,0-0.2,0-0.3
				c0-0.1,0-0.3,0.1-0.4c0,0-0.1-0.1-0.1,0c0,0.1-0.1,0.2-0.1,0.3c0-0.1,0-0.2,0.1-0.3c0,0,0-0.1-0.1,0c-0.1,0.1-0.1,0.2-0.1,0.3
				C14.5,3.7,14.5,3.8,14.6,3.9C14.6,3.9,14.6,3.9,14.6,3.9z"/>
			<path class="st1" d="M14.9,3.6c0,0,0-0.1,0-0.2c0-0.1,0-0.2,0.1-0.2c0,0,0,0,0,0c0,0.1-0.1,0.1-0.1,0.2
				C14.9,3.5,14.8,3.5,14.9,3.6C14.9,3.6,14.9,3.6,14.9,3.6z"/>
			<path class="st1" d="M14.9,3.6C14.9,3.6,15,3.7,14.9,3.6C15,3.5,15,3.4,15,3.2c0,0,0,0,0,0C15,3.4,14.9,3.5,14.9,3.6z"/>
			<path class="st1" d="M15.1,3.9c0-0.1,0-0.2,0-0.3c0-0.1,0-0.2,0-0.3c0,0-0.1-0.1-0.1,0c0,0.1,0,0.2,0,0.3
				C15.1,3.7,15,3.8,15.1,3.9C15.1,3.9,15.1,3.9,15.1,3.9z"/>
			<path class="st1" d="M15.2,3.9C15.2,3.9,15.3,3.9,15.2,3.9c0.1,0,0.1-0.1,0.1-0.2c0-0.1,0-0.2,0-0.3c0,0-0.1,0-0.1,0
				c0,0.1,0,0.2-0.1,0.3C15.2,3.7,15.2,3.8,15.2,3.9z"/>
			<path class="st1" d="M15.5,3.9c0.1-0.2,0.1-0.4,0.1-0.5c0-0.1-0.1-0.1-0.1,0C15.5,3.5,15.4,3.7,15.5,3.9
				C15.5,3.9,15.5,3.9,15.5,3.9z"/>
			<path class="st1" d="M15.7,3.8c0-0.1,0-0.1,0-0.2c0-0.1,0-0.2,0.1-0.3c0,0,0-0.1-0.1,0c0,0.1-0.1,0.2-0.1,0.3
				C15.7,3.7,15.7,3.8,15.7,3.8C15.7,3.8,15.7,3.8,15.7,3.8z"/>
			<path class="st1" d="M16,3.8c0-0.1,0-0.2,0-0.3c0-0.1,0-0.2,0.1-0.3c0,0-0.1-0.1-0.1,0C15.9,3.3,15.8,3.6,16,3.8
				C15.9,3.8,16,3.8,16,3.8z"/>
			<path class="st1" d="M16.3,3.5c0-0.1,0-0.2,0-0.3c0-0.2,0-0.3,0.1-0.4c0,0,0-0.1-0.1,0C16.3,2.9,16.2,3.3,16.3,3.5
				C16.3,3.5,16.3,3.5,16.3,3.5z"/>
			<path class="st1" d="M16.4,3.6C16.4,3.7,16.4,3.7,16.4,3.6c0.1-0.2,0.1-0.3,0.1-0.5c0-0.2,0.1-0.4,0.1-0.6c0,0,0,0-0.1,0
				C16.5,2.9,16.3,3.3,16.4,3.6z"/>
			<path class="st1" d="M16.7,3.7c0.1-0.1,0.1-0.3,0.1-0.4c0-0.2,0.1-0.3,0.1-0.5c0,0,0-0.1-0.1,0C16.8,3,16.6,3.4,16.7,3.7
				C16.7,3.7,16.7,3.7,16.7,3.7z"/>
			<path class="st1" d="M16.9,3.8C16.9,3.8,16.9,3.8,16.9,3.8c0.1-0.1,0.1-0.2,0.1-0.3c0-0.1,0.1-0.2,0.1-0.3c0,0,0-0.1-0.1,0
				C16.9,3.4,16.8,3.6,16.9,3.8z"/>
			<path class="st1" d="M17.2,3.8c0,0,0-0.1,0-0.1c0-0.1,0-0.2,0.1-0.2c0,0,0-0.1-0.1,0C17.1,3.5,17.1,3.7,17.2,3.8
				C17.1,3.8,17.2,3.8,17.2,3.8z"/>
			<path class="st1" d="M17.4,3.9c0.1-0.1,0.1-0.2,0.1-0.3c0,0,0-0.1-0.1,0C17.4,3.7,17.4,3.8,17.4,3.9C17.4,4,17.4,4,17.4,3.9z"/>
			<path class="st1" d="M15.1,15.9c0.1,0.1,0.1,0.2,0.2,0.3c0,0,0,0,0,0C15.2,16,15.1,16,15.1,15.9C15.1,15.8,15,15.8,15.1,15.9z"/>
			<path class="st1" d="M15,16.1C15,16.1,15,16.1,15,16.1C15,16.1,15,16.1,15,16.1c-0.1,0-0.2,0-0.3,0c0,0,0,0,0,0c0,0,0,0,0,0
				c0,0,0,0,0,0c-0.1,0-0.1,0-0.2,0c0,0,0,0,0,0c-0.1,0-0.3,0.1-0.4,0.1c0,0,0,0-0.1,0c0,0,0,0,0,0c0,0,0,0,0,0c0,0,0,0,0,0
				c0,0,0,0,0.1,0c0,0,0,0,0,0c0,0,0,0,0,0c0,0,0.1,0,0.1,0c0,0,0,0,0,0c0,0,0,0,0,0c0,0,0.1,0,0.1,0c0.1,0,0.1,0,0.2,0
				c0,0,0.1,0,0.1,0c0,0,0,0,0.1,0c0,0-0.1,0-0.1,0c0,0,0,0,0,0C14.6,16.2,14.7,16.2,15,16.1c0.1,0.1,0.3,0.2,0.5,0.2c0,0,0,0,0,0
				C15.3,16.2,15.1,16.1,15,16.1z M14.3,16.1C14.3,16.1,14.3,16.1,14.3,16.1c0,0,0.1,0,0.1,0C14.4,16.1,14.4,16.1,14.3,16.1z
				 M14,16.2c0.1,0,0.1,0,0.2-0.1C14.2,16.2,14.1,16.2,14,16.2C14.1,16.2,14.1,16.2,14,16.2z"/>
			<path class="st1" d="M16,16.5c-0.1-0.1-0.3-0.2-0.4-0.2c0,0,0,0,0,0C15.7,16.3,15.8,16.4,16,16.5C16,16.5,16,16.5,16,16.5z"/>
			<path class="st1" d="M15.7,16.5c0.2,0.2,0.5,0.3,0.8,0.3c0.1,0,0.2,0,0.2,0c0.2,0.1,0.4,0.2,0.7,0.2c0,0,0,0,0-0.1
				c0.1,0,0.2,0,0.2-0.1c0.1,0,0.2-0.1,0.2-0.1c0,0,0,0,0,0c0,0-0.1,0-0.1,0.1c0,0,0.1-0.1,0.1-0.1c0,0,0,0,0,0
				c-0.1,0.1-0.3,0.2-0.5,0.3c0,0,0,0,0,0c0.1,0,0.2,0,0.3-0.1c0,0,0,0,0,0c-0.1,0-0.1,0-0.2,0c0,0,0,0,0,0c-0.1,0-0.2,0-0.4,0
				c-0.1,0-0.1,0-0.2,0c-0.1,0-0.2-0.1-0.3-0.1c0,0-0.1,0,0,0c0,0,0.1,0.1,0.2,0.1c0,0-0.1,0-0.1,0C16.2,16.6,16,16.6,15.7,16.5
				C15.7,16.4,15.7,16.5,15.7,16.5z M17.3,16.8c-0.1,0-0.1,0-0.2,0c0,0,0,0,0,0C17.1,16.8,17.2,16.8,17.3,16.8z"/>
			<path class="st1" d="M13.5,16.4c-0.3,0.1-0.5,0.2-0.8,0.3c0,0,0,0,0,0c-0.1,0-0.2,0.1-0.3,0.1c0,0,0,0-0.1,0
				c0.2-0.1,0.3-0.2,0.4-0.3c0,0,0-0.1,0,0c-0.2,0.1-0.3,0.2-0.5,0.2c0,0-0.1,0-0.1,0c-0.2,0-0.4,0-0.5,0c-0.1,0-0.2-0.1-0.3-0.1
				c0,0,0,0,0,0c0,0-0.1,0-0.1,0c0,0,0,0,0,0c0.1,0.1,0.2,0.2,0.4,0.2c0,0,0,0,0,0c0,0,0,0,0,0c0,0,0,0,0,0c0,0,0,0,0,0c0,0,0,0,0,0
				c0,0,0,0,0,0c0,0,0.1,0,0.1,0c0,0,0,0,0,0c0,0,0,0,0,0c0,0,0.1,0,0.1,0c0,0,0.1,0,0.2,0c0,0,0,0,0,0c0,0,0,0,0,0c0,0,0.1,0,0.1,0
				c0.2,0,0.3,0,0.5,0c0,0,0,0,0,0c0.1,0,0.1,0,0.2-0.1c0,0,0,0,0,0C13.1,16.8,13.3,16.6,13.5,16.4C13.6,16.5,13.6,16.4,13.5,16.4z
				 M11.8,16.9C11.8,16.9,11.8,16.9,11.8,16.9C11.8,16.9,11.8,16.9,11.8,16.9C11.8,16.9,11.8,16.9,11.8,16.9
				C11.8,16.9,11.8,16.9,11.8,16.9C11.8,16.9,11.8,16.9,11.8,16.9z"/>
			<path class="st1" d="M17.7,13.6c1.4,0.1,3,0.2,4.3-0.3c0,0,0-0.1,0-0.1c-1.2,0.3-2.4,0.3-3.6,0.3c-0.3,0-0.5-0.1-0.8-0.1
				c0,0,0,0,0,0c0.2,0,0.5,0,0.7,0.1C18,13.6,17.9,13.6,17.7,13.6C17.6,13.6,17.6,13.6,17.7,13.6z"/>
			<path class="st1" d="M21.9,13.9C21.9,13.9,21.9,13.9,21.9,13.9C22,13.9,21.9,13.8,21.9,13.9c-1.4,0.3-2.8,0.2-4.2,0c0,0,0,0,0,0
				c1.3,0.3,2.7,0.4,3.9,0.1c0,0,0,0.1,0,0.1c1.2-0.2,2.4-0.9,3.4-1.7c0.1-0.1,0.2-0.1,0.3-0.2c0.2-0.2,0.4-0.4,0.7-0.5c0,0,0,0,0,0
				c-0.7,0.4-1.3,0.9-1.9,1.4C23.4,13.3,22.7,13.6,21.9,13.9z"/>
			<path class="st1" d="M28.3,15.1c-0.9,0-1.8,0.1-2.6,0.1c-0.9,0-1.8,0-2.6,0c-1.8-0.1-3.5-0.5-5.3-0.7c0,0,0,0,0,0
				c1.7,0.4,3.4,0.7,5.1,0.8c0.9,0.1,1.9,0.1,2.8,0.1c0.9,0,1.8,0,2.7-0.1C28.4,15.2,28.4,15.1,28.3,15.1z"/>
			<path class="st1" d="M26.8,17.2c-1.6-0.1-3.2-0.3-4.8-0.6c-1.6-0.3-3.2-0.9-4.6-1.7c0,0,0,0,0,0c0,0,0.1,0,0.1,0.1
				c0,0-0.1,0,0,0.1c0,0,0,0,0,0c0,0.1,0.1,0.1,0.1,0c0,0,0,0,0,0c0,0,0,0,0,0C20.1,16.9,23.7,17.2,26.8,17.2
				C26.8,17.3,26.8,17.2,26.8,17.2z"/>
			<path class="st1" d="M20.3,17.2c-0.7-0.5-1.3-1.1-2.2-1.3c0,0,0,0,0,0c0.9,0.2,1.5,0.9,2.2,1.5c0.7,0.6,1.4,1.2,2.1,1.9
				c0,0,0.1,0,0,0C21.9,18.5,21.1,17.8,20.3,17.2z"/>
			<path class="st1" d="M22.4,16c-1.4-0.2-2.7-0.6-4.1-1c0,0,0,0,0,0C19.5,15.6,21,16,22.4,16C22.4,16.1,22.4,16,22.4,16z"/>
			<path class="st1" d="M8.3,15.1C8.3,15.1,8.3,15,8.3,15.1c-1.5,0.3-2.9,0.6-4.4,0.7C3.2,15.9,2.5,16,1.8,16c-0.6,0-1.2,0-1.8,0.1
				c0,0,0,0,0,0c0.6-0.1,1.2,0,1.8,0c0.7,0,1.5-0.1,2.2-0.2C5.5,15.7,6.9,15.5,8.3,15.1z"/>
			<path class="st1" d="M10,14.9c-2.5,1.1-5,1.9-7.7,2.4c0,0,0,0,0,0C4.9,17.1,7.6,16.2,10,14.9C10,14.9,10,14.9,10,14.9z"/>
			<path class="st1" d="M10.9,15.1C10.9,15.1,10.9,15,10.9,15.1c-1.4,0.6-2.7,1.4-4,2c-0.7,0.3-1.3,0.7-2,1c-0.8,0.3-1.6,0.9-2.5,1
				c0,0,0,0.1,0,0c0.6,0,1.3-0.4,1.9-0.6c0.7-0.3,1.5-0.7,2.2-1C7.9,16.8,9.4,16,10.9,15.1z"/>
			<path class="st1" d="M11.6,15.2C11.7,15.2,11.6,15.2,11.6,15.2c-1.1,0.7-2.2,1.5-3.3,2.2c-0.5,0.4-1.1,0.7-1.7,1
				c-0.7,0.4-1.3,0.8-2,1c0,0,0,0.1,0,0c0.6-0.2,1.1-0.4,1.6-0.7c0.6-0.3,1.2-0.7,1.8-1C9.4,17,10.5,16.1,11.6,15.2z"/>
			<path class="st1" d="M12.6,15.7c-1.2,0.5-2.2,1.2-3.2,2c-1,0.8-1.8,1.8-2.8,2.6c0,0,0,0,0,0c1-0.6,1.7-1.6,2.6-2.3
				C10.3,17.2,11.5,16.4,12.6,15.7C12.7,15.7,12.7,15.7,12.6,15.7z"/>
			<path class="st1" d="M19.5,17.5c-1-0.8-2-1.5-3.2-2c0,0,0,0,0,0c1.2,0.7,2.3,1.4,3.4,2.3c0.9,0.7,1.6,1.8,2.6,2.3c0,0,0,0,0,0
				C21.3,19.3,20.5,18.3,19.5,17.5z"/>
			<path class="st1" d="M11.5,15.1c0,0,0.1-0.1,0.1-0.1c0,0,0-0.1,0-0.1c0,0-0.1,0-0.2,0C11.5,15,11.5,15,11.5,15.1
				C11.5,15,11.5,15,11.5,15.1C11.5,15.1,11.5,15.1,11.5,15.1C11.5,15.1,11.5,15.1,11.5,15.1z"/>
			<path class="st1" d="M12.1,14.6c-0.1,0-0.1,0.1,0,0.1C12.1,14.7,12.1,14.7,12.1,14.6C12.1,14.6,12.1,14.6,12.1,14.6
				C12.1,14.6,12.1,14.6,12.1,14.6z"/>
			<path class="st1" d="M11.9,15.6C11.9,15.6,12,15.6,11.9,15.6L11.9,15.6C12,15.5,12,15.4,11.9,15.6C11.9,15.5,11.9,15.5,11.9,15.6
				C11.9,15.5,11.9,15.5,11.9,15.6L11.9,15.6z"/>
			<path class="st1" d="M12.7,15.3C12.7,15.3,12.7,15.3,12.7,15.3C12.8,15.3,12.8,15.3,12.7,15.3c0.1,0,0.1-0.1,0.1-0.1
				C12.7,15.2,12.6,15.3,12.7,15.3C12.7,15.3,12.7,15.3,12.7,15.3z"/>
			<path class="st1" d="M13.6,15.2C13.6,15.2,13.6,15.2,13.6,15.2C13.7,15.2,13.6,15.1,13.6,15.2C13.6,15.1,13.6,15.1,13.6,15.2
				c-0.1-0.1-0.1,0-0.1,0c0,0,0,0,0,0C13.5,15.3,13.7,15.3,13.6,15.2z"/>
			<path class="st1" d="M17,14.5c0.1,0,0.1,0,0.1-0.1c0,0,0,0,0,0c0,0,0,0,0.1,0c0,0,0-0.1,0-0.1C17,14.3,17,14.4,17,14.5
				C16.9,14.5,16.9,14.5,17,14.5z"/>
			<path class="st1" d="M16.8,15.1c-0.1-0.1-0.1,0.2,0,0.1c0,0,0,0,0,0C16.9,15.2,16.9,15.1,16.8,15.1
				C16.8,15.1,16.8,15.1,16.8,15.1z"/>
			<path class="st1" d="M13.1,14.6C13.1,14.6,13.1,14.6,13.1,14.6c0.1,0,0.1-0.1,0-0.1c0,0,0,0,0,0C13,14.4,13,14.7,13.1,14.6z"/>
			<path class="st1" d="M16.1,14.4C16.1,14.4,16.1,14.4,16.1,14.4c0.1,0,0.1-0.1,0.1-0.1c0,0-0.1,0-0.1,0C16,14.3,16,14.4,16.1,14.4
				z"/>
			<path class="st1" d="M16,15.2c0.1,0,0.1-0.2,0-0.2C15.9,15.1,15.9,15.2,16,15.2z"/>
			<path class="st1" d="M17.1,15.8C17.2,15.8,17.2,15.8,17.1,15.8C17.3,15.7,17.1,15.7,17.1,15.8C17.1,15.8,17.1,15.8,17.1,15.8z"/>
			<path class="st1" d="M6.9,11.1c-0.2,0-0.3,0-0.5-0.1c0,0,0,0,0,0c0,0-0.1,0-0.1,0c0,0,0,0,0,0C6.5,11.1,6.7,11.1,6.9,11.1
				C6.9,11.1,6.9,11.1,6.9,11.1z"/>
			<path class="st1" d="M7.9,11.2C7.9,11.2,7.9,11.2,7.9,11.2c0.1,0,0.1,0,0.2,0c0,0,0.1,0,0.1,0c0,0-0.1,0-0.1,0c0,0,0,0,0,0
				c0.1,0,0.3,0,0.4-0.1c0,0,0,0,0,0c-0.1,0-0.2,0-0.3,0c0,0,0,0,0.1,0c0,0,0,0,0,0C8.2,11.2,8.1,11.2,7.9,11.2c0.1,0,0.1,0,0.2,0
				c0,0,0,0,0,0c0,0,0,0,0,0c-0.1,0-0.2,0-0.4,0.1c0,0,0,0,0.1,0c0,0,0,0,0,0c0,0,0,0-0.1,0c0,0,0,0,0,0c-0.3,0.1-0.5,0.1-0.8,0.1
				c0.1-0.1,0.3-0.1,0.4-0.2c0,0,0,0,0,0c-0.2,0-0.3,0.1-0.5,0.2c0,0,0,0,0,0c0.2,0,0.5,0,0.7-0.1c0,0,0,0,0,0
				C7.7,11.2,7.8,11.2,7.9,11.2C7.9,11.2,7.9,11.2,7.9,11.2z"/>
			<path class="st1" d="M9.1,11.3C9.1,11.3,9.1,11.3,9.1,11.3c-0.2,0-0.4,0-0.5-0.1c0,0,0,0,0,0C8.7,11.3,9,11.3,9.1,11.3z"/>
			<path class="st1" d="M8.8,12.2C8.8,12.2,8.8,12.2,8.8,12.2c0,0,0.1,0,0.1,0c0,0,0,0,0,0C8.8,12.2,8.8,12.2,8.8,12.2
				c0.1-0.1,0.1-0.1,0.1-0.1c-0.1,0-0.1,0-0.2,0c0,0,0.1-0.1,0.1-0.1c0,0,0,0,0,0c-0.1,0-0.1,0-0.2,0c0,0,0.1-0.1,0.1-0.1
				c0,0,0,0,0,0c-0.1,0-0.2,0-0.2,0c0,0,0,0,0.1-0.1c0,0,0,0,0,0c0,0-0.1,0-0.1,0c0,0,0.1-0.1,0.1-0.1c0,0,0-0.1,0-0.1
				c-0.1,0-0.1,0-0.2,0c0.1-0.1,0.1-0.1,0.2-0.1c0,0,0-0.1,0-0.1c-0.1,0-0.2,0-0.3,0c0.1-0.1,0.2-0.2,0.4-0.2c0,0,0,0,0,0
				c-0.2,0-0.4,0.1-0.5,0.3c0,0,0,0.1,0,0.1c0.1,0,0.2,0,0.3,0c-0.1,0-0.1,0.1-0.2,0.1c0,0,0,0.1,0,0.1c0.1,0,0.1,0,0.2,0
				c0,0,0,0-0.1,0.1c0,0,0,0.1,0,0.1c0,0,0.1,0,0.1,0c0,0,0,0-0.1,0.1c0,0,0,0.1,0,0.1c0.1,0,0.1,0,0.2,0c0,0-0.1,0-0.1,0.1
				c0,0,0,0.1,0,0.1c0.1,0,0.1,0,0.2,0c0,0-0.1,0.1-0.1,0.1c0,0,0,0.1,0,0.1C8.6,12.2,8.7,12.2,8.8,12.2C8.9,12.1,8.8,12.2,8.8,12.2
				z"/>
			<path class="st1" d="M9.2,12.3C9.2,12.3,9.2,12.3,9.2,12.3C9.2,12.3,9.2,12.3,9.2,12.3z"/>
			<path class="st1" d="M9.7,12.6c-0.1,0.1-0.2,0.1-0.3,0.1c0,0,0,0,0,0C9.5,12.7,9.6,12.7,9.7,12.6C9.7,12.6,9.7,12.6,9.7,12.6z"/>
			<path class="st1" d="M10,12.5C10,12.5,10,12.5,10,12.5c-0.1,0.1-0.2,0.1-0.4,0.2c0,0,0,0,0,0C9.7,12.8,9.9,12.6,10,12.5z"/>
			<path class="st1" d="M10.7,12.2c-0.1,0.1-0.2,0.1-0.3,0.2c-0.1,0-0.1,0.1-0.2,0.2c0,0,0,0,0,0c0,0,0,0,0,0c0,0-0.3,0.2-0.3,0.2
				c0,0-0.1,0,0,0c0.1,0.1,0.2,0,0.3-0.1c0,0,0,0,0,0c0.1,0,0.2-0.1,0.2-0.1C10.5,12.4,10.6,12.4,10.7,12.2
				C10.7,12.2,10.7,12.2,10.7,12.2z"/>
			<path class="st1" d="M10.6,12.4C10.6,12.4,10.7,12.4,10.6,12.4c0.3-0.1,0.6-0.3,0.8-0.5c0,0,0,0,0,0c-0.2,0.1-0.3,0.2-0.5,0.3
				c-0.1,0.1-0.2,0.1-0.3,0.1C10.7,12.3,10.7,12.3,10.6,12.4C10.7,12.3,10.7,12.3,10.6,12.4C10.7,12.3,10.7,12.2,10.6,12.4
				C10.7,12.3,10.6,12.3,10.6,12.4C10.6,12.3,10.6,12.3,10.6,12.4C10.6,12.4,10.6,12.4,10.6,12.4z"/>
			<path class="st1" d="M6.8,12.2c-0.1,0.1-0.3,0.1-0.4,0.2c0,0,0,0.1,0,0.1c0.2,0,0.4,0,0.6,0c0,0,0,0,0,0c-0.2,0-0.3,0-0.5,0
				C6.6,12.4,6.7,12.3,6.8,12.2C6.8,12.3,6.8,12.2,6.8,12.2z"/>
			<path class="st1" d="M7.5,12.8c-0.1,0-0.3,0.1-0.4,0.1c0.1-0.1,0.1-0.1,0.2-0.2c0,0,0,0,0,0c-0.2,0-0.3,0.1-0.5,0.1
				c0.1-0.1,0.2-0.1,0.3-0.2c0,0,0-0.1,0,0c-0.1,0.1-0.3,0.2-0.4,0.3c0,0,0,0.1,0,0.1c0.2,0,0.3,0,0.5-0.1c-0.1,0-0.1,0.1-0.2,0.2
				c0,0,0,0.1,0,0.1c0.1,0,0.2,0,0.3-0.1c-0.1,0-0.1,0.1-0.2,0.1c0,0,0,0.1,0,0.1c0.1,0,0.2,0,0.3-0.1c0,0,0,0,0,0
				c-0.1,0-0.1,0-0.2,0C7.4,13,7.4,12.9,7.5,12.8C7.6,12.8,7.5,12.8,7.5,12.8z"/>
			<path class="st1" d="M7.6,13.1c0.2,0,0.3-0.1,0.4-0.2c0,0,0,0,0,0C7.9,13,7.8,13,7.6,13.1C7.7,13,7.7,13,7.8,12.9c0,0,0,0,0,0
				C7.7,13,7.6,13,7.6,13.1C7.6,13.1,7.6,13.1,7.6,13.1z"/>
			<path class="st1" d="M8.5,12.7c-0.1,0.1-0.1,0.1-0.2,0.1c0,0,0,0.1,0.1,0.1c0,0,0.1-0.1,0.1-0.1C8.5,12.8,8.5,12.8,8.5,12.7
				C8.5,12.8,8.5,12.8,8.5,12.7C8.5,12.7,8.5,12.7,8.5,12.7z"/>
			<path class="st1" d="M9.2,12.4c-0.1,0.1-0.2,0.1-0.4,0.2c0,0,0,0,0,0c0,0,0,0,0,0c0,0,0,0,0,0c0,0,0,0,0,0c0,0,0,0.1,0,0.1
				c0,0,0.1,0,0.1-0.1c0.1,0,0.2,0,0.3,0c0,0,0,0,0,0c-0.1,0-0.2,0-0.2,0C9,12.5,9.1,12.4,9.2,12.4C9.2,12.4,9.2,12.4,9.2,12.4z"/>
			<path class="st1" d="M8.1,13.1c0.1,0.1,0.4,0.1,0.6,0c0,0,0,0,0,0c-0.1,0-0.2,0.1-0.3,0.1C8.3,13.2,8.2,13.1,8.1,13.1
				C8.1,13.1,8.1,13.1,8.1,13.1z"/>
			<path class="st1" d="M9.1,13.3c0.5-0.2,0.9-0.5,1.4-0.7c0,0,0,0,0,0c-0.2,0.1-0.3,0.2-0.5,0.2c-0.1,0.1-0.2,0.1-0.3,0.2
				c0,0-0.5,0.2-0.5,0.2c0,0,0-0.1,0-0.1c-0.1,0-0.2,0.1-0.3,0.1c-0.1,0-0.4,0.1-0.1-0.1c0,0,0,0,0,0c-0.1,0.1-0.1,0.1-0.2,0.2
				c0,0,0,0,0,0C8.6,13.3,9,13.3,9.1,13.3C9,13.2,9.1,13.3,9.1,13.3z"/>
			<path class="st1" d="M6.5,12.1C6.5,12.1,6.5,12.1,6.5,12.1c-0.1,0-0.2,0-0.2,0c0,0,0,0,0.1,0c0,0,0,0,0,0c0,0-0.1,0-0.2,0
				c-0.1,0-0.3,0-0.4,0c0,0,0,0,0,0C6,12.2,6.2,12.2,6.5,12.1z"/>
			<path class="st1" d="M6.3,11.7C6.2,11.7,6.2,11.8,6.3,11.7c0.1,0.1,0.1,0.1,0.2,0.1c0,0,0,0,0,0c0,0,0,0-0.1-0.1
				c0.1,0,0.3-0.1,0.4-0.1c0.1-0.1,0.3-0.1,0.4-0.2c0,0,0-0.1,0-0.1c0,0-0.1,0-0.1,0c0,0,0,0,0,0l0,0c-0.1,0.1-0.3,0.1-0.4,0.2
				C6.5,11.6,6.4,11.6,6.3,11.7z"/>
			<path class="st1" d="M17.6,11.8C17.6,11.8,17.6,11.7,17.6,11.8c-0.2,0.1-0.4,0.1-0.6,0.1c0,0,0,0,0,0
				C17.2,11.9,17.4,11.9,17.6,11.8z"/>
			<path class="st1" d="M17.4,11.9c0.2,0.1,0.4,0,0.6-0.1c-0.1,0-0.1,0.1-0.2,0.1c0,0,0,0.1,0,0c0,0,0.1,0,0.1,0c0,0-0.1,0-0.1,0.1
				c0,0,0,0.1,0,0.1c0.1,0,0.2,0,0.3,0c0,0,0,0,0,0c0,0,0,0,0,0c-0.1,0-0.1,0-0.2,0c0,0,0,0,0,0c0.2,0.1,0.3,0,0.5,0
				c0.2-0.1,0.4-0.2,0.6-0.4c0,0,0,0,0,0c-0.2,0-0.3,0.1-0.4,0.2c-0.1,0-0.1,0.1-0.2,0.1c0,0,0,0,0,0c0,0,0-0.1,0-0.1
				c-0.1,0-0.2,0-0.4,0.1c0,0,0.1,0,0.1-0.1c0,0,0-0.1,0-0.1c-0.1,0-0.1,0-0.2,0c0,0,0.1-0.1,0.1-0.1c0,0,0,0,0,0c0,0,0,0,0,0
				c0,0,0,0,0,0C17.9,11.8,17.7,11.9,17.4,11.9c0.1-0.1,0.2-0.1,0.2-0.1c0,0,0,0,0,0C17.6,11.8,17.5,11.8,17.4,11.9
				C17.4,11.9,17.4,11.9,17.4,11.9z"/>
			<path class="st1" d="M19.5,12c0.1-0.1,0.3-0.2,0.4-0.3c0,0,0,0,0,0c0.1-0.1,0.3-0.2,0.4-0.3c0,0,0,0,0,0
				c-0.2,0.1-0.4,0.3-0.6,0.5c0,0,0,0,0,0c0,0,0,0,0,0c0,0,0.1,0,0.1-0.1c0,0,0,0,0,0c-0.2,0.1-0.4,0.3-0.6,0.4c0,0,0,0,0,0
				c0,0,0,0,0,0c0.1-0.1,0.2-0.1,0.3-0.2c0,0,0,0,0,0c0,0,0,0-0.1,0c0,0,0,0,0,0c0,0,0,0,0,0c-0.1,0-0.1,0.1-0.2,0.1
				c-0.1,0-0.2,0.1-0.2,0.1c0,0,0,0,0,0c0,0,0,0,0,0c-0.1,0-0.1,0.1-0.2,0.1c0,0,0,0,0,0c0,0-0.1,0-0.1,0c0,0,0.1,0,0.1,0
				c0,0,0,0,0,0c-0.1,0-0.1,0-0.2,0c0,0,0,0,0,0c0,0,0,0,0,0c0.2,0,0.4-0.2,0.6-0.3c0,0,0,0,0,0c-0.2,0.1-0.3,0.2-0.5,0.2
				c0,0,0,0,0,0c0,0,0,0,0,0c-0.1,0-0.1,0.1-0.2,0.1c0,0,0,0,0,0c0,0,0,0,0.1,0c0,0-0.1,0-0.1,0c0,0,0,0,0,0c0,0,0,0.1,0.1,0.1
				c0,0-0.1,0-0.1,0c0,0,0,0,0,0c0.1,0,0.1,0,0.2,0c0.1,0.1,0.4,0.1,0.5,0c0,0,0,0,0,0c-0.1,0-0.1,0-0.2,0c0.1,0,0.1,0,0.2-0.1
				c0,0,0,0,0,0c0,0,0,0,0,0c0.2-0.1,0.3-0.2,0.5-0.3c0,0,0,0,0,0c0,0,0,0,0,0c0,0,0,0,0,0C19.5,11.9,19.5,11.9,19.5,12
				C19.5,12,19.5,12,19.5,12z M19.6,11.9C19.6,11.9,19.6,11.9,19.6,11.9C19.6,11.9,19.6,11.9,19.6,11.9
				C19.6,11.9,19.6,11.9,19.6,11.9z"/>
			<path class="st1" d="M21.4,10.5C21.5,10.5,21.4,10.5,21.4,10.5c-0.2,0.1-0.3,0.3-0.5,0.4c-0.1,0.1-0.4,0.4-0.5,0.4
				c0.1-0.1,0.1-0.1,0.2-0.2c0,0,0,0,0,0c-0.1,0.1-0.2,0.1-0.2,0.2c0,0,0,0,0,0c0,0-0.1,0.1-0.1,0.1c0,0,0,0,0,0
				c0.1,0,0.1-0.1,0.2-0.1c0.1,0,0.3-0.2,0.4-0.3C21,11,21.3,10.8,21.4,10.5z"/>
			<path class="st1" d="M19.4,11.1C19.4,11.1,19.4,11,19.4,11.1c-0.3,0.1-0.5,0.4-0.8,0.5c0,0,0,0,0,0
				C18.9,11.5,19.2,11.3,19.4,11.1z"/>
			<path class="st1" d="M19.4,11.1C19.4,11.1,19.5,11.1,19.4,11.1C19.5,11,19.5,11,19.4,11.1C19.5,11.1,19.4,11.1,19.4,11.1
				C19.4,11.1,19.4,11.1,19.4,11.1z"/>
			<path class="st1" d="M19.9,10.4c0.3-0.1,0.5-0.4,0.8-0.6c0,0,0,0,0,0C20.4,10,20.2,10.3,19.9,10.4C19.9,10.4,19.9,10.4,19.9,10.4
				z"/>
			<path class="st1" d="M21,9.5C21,9.5,21,9.5,21,9.5C21.1,9.4,21,9.4,21,9.5C21,9.5,21,9.5,21,9.5C20.9,9.5,21,9.6,21,9.5z"/>
			<path class="st1" d="M18.6,12.4C18.6,12.5,18.6,12.6,18.6,12.4c0.1,0.1,0.3,0,0.4,0c0,0,0,0,0,0c-0.1,0-0.1,0.1-0.2,0.1
				C18.8,12.5,18.7,12.5,18.6,12.4C18.7,12.5,18.7,12.5,18.6,12.4C18.7,12.5,18.7,12.5,18.6,12.4C18.7,12.4,18.7,12.4,18.6,12.4z"/>
			<path class="st1" d="M18.6,12.6c0.1,0.1,0.3,0,0.4,0c0,0,0,0,0,0C18.8,12.6,18.7,12.6,18.6,12.6C18.6,12.6,18.6,12.6,18.6,12.6z"
				/>
			<path class="st1" d="M18.9,12.7c0.1,0,0.3-0.1,0.4-0.2c0,0,0,0,0,0c-0.1,0-0.2,0.1-0.2,0.1C19,12.6,18.9,12.6,18.9,12.7
				c-0.1,0-0.1,0-0.1-0.1c0,0,0,0,0,0C18.8,12.7,18.8,12.7,18.9,12.7z"/>
			<path class="st1" d="M19.3,12.7C19.3,12.7,19.3,12.6,19.3,12.7c-0.1,0-0.2,0.1-0.3,0.1c0,0,0,0,0,0C19,12.8,19.2,12.7,19.3,12.7z
				"/>
			<path class="st1" d="M19.4,12.7C19.4,12.7,19.4,12.7,19.4,12.7c-0.1,0.1-0.2,0.1-0.3,0.1c0,0,0,0,0,0
				C19.2,12.9,19.3,12.8,19.4,12.7z"/>
			<path class="st1" d="M19.4,12.9C19.4,12.9,19.4,12.9,19.4,12.9c0,0-0.1,0-0.1,0c0,0,0,0,0,0C19.3,12.9,19.4,12.9,19.4,12.9z"/>
			<path class="st1" d="M20.7,12.6c-0.2,0.1-0.3,0.2-0.5,0.2c-0.1,0-0.1,0-0.2,0.1c0,0,0,0,0,0c0,0,0,0,0,0c-0.1,0-0.2,0-0.2,0.1
				c0,0,0,0,0,0c0,0,0.1,0,0.1,0c-0.1,0-0.2,0-0.2,0.1c0,0,0,0,0,0c0.2,0,0.4,0,0.6-0.1c0,0,0.1,0,0.1,0c0.1,0,0.2,0,0.2-0.1
				c0,0,0,0,0,0C20.5,12.7,20.6,12.6,20.7,12.6C20.7,12.6,20.7,12.6,20.7,12.6z"/>
			<path class="st1" d="M20.7,12.5c-0.1,0.1-0.2,0.1-0.3,0.1c0,0,0,0,0,0C20.5,12.6,20.6,12.6,20.7,12.5
				C20.7,12.5,20.7,12.5,20.7,12.5z"/>
			<path class="st1" d="M20.4,12.4C20.4,12.4,20.4,12.4,20.4,12.4c0.1,0,0.1,0,0.2-0.1c0,0,0,0,0,0C20.5,12.4,20.5,12.4,20.4,12.4z"
				/>
			<path class="st1" d="M20.7,12.2C20.7,12.1,20.7,12.1,20.7,12.2c-0.1,0.1-0.2,0.1-0.3,0.2c0,0,0,0,0,0
				C20.5,12.3,20.6,12.3,20.7,12.2z"/>
			<path class="st1" d="M20.6,12.1C20.6,12.1,20.6,12.1,20.6,12.1C20.5,12.1,20.5,12.1,20.6,12.1C20.5,12.1,20.5,12.1,20.6,12.1
				C20.5,12.1,20.5,12.2,20.6,12.1C20.5,12.1,20.5,12.1,20.6,12.1C20.5,12.2,20.5,12.2,20.6,12.1C20.5,12.2,20.5,12.2,20.6,12.1
				C20.5,12.2,20.5,12.1,20.6,12.1z"/>
			<path class="st1" d="M20.6,11.5C20.6,11.5,20.6,11.5,20.6,11.5c-0.1,0-0.2,0.1-0.3,0.2c0,0.1,0.1,0.2,0.2,0.3c0,0,0,0,0,0
				c0-0.1,0.1-0.1,0.1-0.2c0,0,0,0,0,0c0,0-0.1,0.1-0.1,0.2c-0.1-0.1-0.1-0.1-0.1-0.2C20.5,11.6,20.5,11.6,20.6,11.5z"/>
			<path class="st1" d="M16.4,12.8c0,0,0.1,0,0.1-0.1c0,0,0,0,0,0C16.5,12.7,16.4,12.8,16.4,12.8C16.4,12.8,16.4,12.8,16.4,12.8z"/>
			<path class="st1" d="M17.2,12.7c-0.3,0.1-0.5,0.3-0.8,0.3c0-0.1,0.1-0.1,0.2-0.2c0,0,0,0,0,0c0.1,0,0.2-0.1,0.2-0.1c0,0,0,0,0,0
				c-0.1,0-0.2,0.1-0.2,0.1c0,0-0.3,0.2-0.3,0.1c0,0,0,0,0,0c0,0.1,0.1,0,0.1,0c0,0,0.1,0,0.1,0c-0.1,0-0.1,0.1-0.1,0.1c0,0,0,0,0,0
				C16.7,13.1,17,12.9,17.2,12.7C17.2,12.7,17.2,12.7,17.2,12.7z"/>
			<path class="st1" d="M17.4,12.9c-0.1,0-0.2,0.1-0.3,0.1c-0.1,0-0.1,0-0.2,0c0,0,0.1-0.1,0.1-0.1c0,0,0,0,0,0c0,0-0.1,0.1-0.1,0.2
				c0,0,0,0,0,0C17.1,13,17.3,13,17.4,12.9C17.4,12.9,17.4,12.9,17.4,12.9z"/>
			<path class="st1" d="M17.7,12.9C17.7,12.9,17.6,12.9,17.7,12.9c0.2,0.2,0.6,0,0.8,0c0,0,0,0,0,0C18.3,12.9,17.9,13.1,17.7,12.9z"
				/>
			<path class="st1" d="M11.5,13.6C11.5,13.6,11.5,13.5,11.5,13.6c-0.3,0-0.6,0-0.8,0c0,0,0,0,0,0C10.9,13.6,11.2,13.7,11.5,13.6z"
				/>
			<path class="st1" d="M11.9,13.3c-0.2,0-0.4,0.1-0.6,0.1c0,0,0,0,0,0C11.5,13.4,11.7,13.4,11.9,13.3
				C11.9,13.4,11.9,13.3,11.9,13.3z"/>
			<path class="st1" d="M12.6,13.1C12.6,13.1,12.6,13.1,12.6,13.1c-0.2,0-0.4,0-0.5,0c0,0,0,0,0,0C12.2,13.3,12.4,13.2,12.6,13.1z"
				/>
			<path class="st1" d="M4.7,13.9C4.8,13.9,4.8,13.9,4.7,13.9c-0.2,0-0.3,0-0.4,0c0.1,0,0.2-0.1,0.3-0.1c0,0,0-0.1,0-0.1
				c-0.2,0-0.4,0.2-0.6,0.1c0,0,0,0,0,0c-0.3,0-0.5-0.1-0.8-0.1c0,0,0,0,0,0C3.7,13.8,4.2,14.1,4.7,13.9z"/>
			<path class="st1" d="M4.2,13.6c-0.1,0-0.3,0-0.4,0c0,0,0,0,0,0c0.2,0.1,0.4,0.1,0.7,0c0.1,0,0.1,0,0.2,0c0,0,0,0,0,0
				c0,0,0,0-0.1,0c0,0,0,0,0,0c0,0-0.1,0-0.1,0c-0.5,0-0.9-0.2-1.4-0.4c0,0,0,0,0,0C3.4,13.3,3.8,13.5,4.2,13.6z"/>
			<path class="st1" d="M4.2,13.1c-0.3-0.1-0.6-0.2-1-0.3c0,0,0,0,0,0c0.2,0.2,0.5,0.3,0.8,0.3c-0.2,0-0.4,0-0.5-0.1c0,0,0,0,0,0
				C3.7,13.2,4,13.1,4.2,13.1C4.2,13.1,4.2,13.1,4.2,13.1C4.2,13.1,4.2,13.1,4.2,13.1C4.3,13.1,4.3,13.1,4.2,13.1z"/>
			<path class="st1" d="M3,11.2C3,11.2,3,11.2,3,11.2c0,0.1,0.1,0.2,0.2,0.3c0,0,0,0,0,0c0,0,0,0,0,0c0,0,0.1,0,0.1,0
				c0.3,0.2,0.6,0.2,0.9,0.2c0,0,0,0,0,0c-0.3,0-0.6-0.1-0.8-0.2c0,0,0.1,0,0.1,0c0.1,0,0.2,0,0.3,0c0,0,0,0,0,0
				c-0.1,0-0.2-0.1-0.3-0.1c-0.1,0-0.1,0-0.2,0C3.2,11.5,3.1,11.4,3,11.2z"/>
			<path class="st1" d="M3.2,10.8c0.1,0,0.2,0.1,0.3,0.2c0,0,0.1,0,0.1,0.1c-0.1,0-0.1,0-0.2,0c0,0,0,0,0,0.1
				c0.1,0.1,0.2,0.1,0.3,0.1c0,0,0.1,0,0.1,0c0,0,0,0,0,0c0,0,0,0,0,0c0.1,0,0.1,0,0.2,0c0,0,0,0,0,0c-0.1,0-0.2,0-0.4-0.1
				c0,0,0,0,0,0c-0.1,0-0.1-0.1-0.2-0.1C3.4,10.9,3.3,10.8,3.2,10.8C3.2,10.7,3.2,10.8,3.2,10.8z"/>
			<path class="st1" d="M3.3,10.3C3.3,10.3,3.3,10.3,3.3,10.3c0,0.2,0.2,0.4,0.4,0.5c0,0,0,0,0,0C3.6,10.6,3.4,10.5,3.3,10.3z"/>
			<path class="st1" d="M3.7,10.1C3.7,10.1,3.7,10.1,3.7,10.1C3.7,10.2,3.7,10.2,3.7,10.1C3.7,10.2,3.7,10.2,3.7,10.1
				c0,0.1,0,0.1,0.1,0.1c0,0,0.1,0.1,0.1,0.1c0,0,0,0,0,0c0,0-0.1,0-0.1,0c0,0,0,0,0,0c0.1,0.1,0.2,0.1,0.3,0.2c0,0,0,0,0.1,0
				c0,0,0,0,0,0c0,0,0.1,0,0.1,0c0,0,0,0,0,0c-0.1,0-0.1,0-0.2-0.1C4,10.4,4,10.3,3.9,10.3C3.9,10.2,3.7,10.1,3.7,10.1z"/>
			<path class="st1" d="M3.8,9.9c0,0,0.1,0.1,0.1,0.1c0,0-0.1,0-0.1,0c0,0,0,0,0,0C4,10,4,10.1,4.1,10.1c0.1,0.1,0.1,0.1,0.2,0.2
				c0,0,0,0,0,0c0,0-0.1-0.1-0.1-0.1h0c0.1,0,0.2,0.1,0.3,0.1c0,0,0,0,0,0c-0.1-0.1-0.2-0.1-0.3-0.2c0,0-0.1,0-0.1-0.1
				C4,10,3.9,9.9,3.8,9.9C3.8,9.8,3.8,9.8,3.8,9.9z"/>
			<path class="st1" d="M4.2,9.5C4.2,9.6,4.3,9.6,4.2,9.5c0.1,0.1,0.1,0.1,0.1,0.1c0.1,0,0.1,0.1,0.2,0.1c0.1,0.1,0.2,0.1,0.3,0.2
				c0,0,0,0,0,0C4.7,9.7,4.5,9.5,4.2,9.5C4.2,9.5,4.2,9.5,4.2,9.5z"/>
			<path class="st1" d="M3.1,12C3.1,12,3.1,12,3.1,12c0.1,0,0.1,0.1,0.2,0.1c0.1,0,0.1,0,0.2,0.1c0.1,0,0.3,0.1,0.4,0c0,0,0,0,0,0
				c-0.2,0-0.3-0.1-0.5-0.1C3.3,12,3.2,11.9,3.1,12z"/>
			<path class="st1" d="M3.8,11.9C3.8,11.9,3.8,11.9,3.8,11.9c-0.2-0.1-0.4-0.1-0.6-0.1c0,0,0,0,0,0C3.4,11.9,3.6,12,3.8,11.9z"/>
			<path class="st1" d="M3.3,11.4c0.2,0,0.3,0.1,0.5,0.1c0,0,0,0,0,0C3.7,11.4,3.5,11.4,3.3,11.4C3.3,11.3,3.2,11.4,3.3,11.4z"/>
			<path class="st1" d="M3.7,10.6c0,0.1,0.1,0.1,0.2,0.1c0.1,0,0.2,0.1,0.3,0.1c0,0,0,0,0,0c-0.1,0-0.2-0.1-0.3-0.1
				C3.9,10.7,3.7,10.6,3.7,10.6C3.7,10.6,3.6,10.6,3.7,10.6z"/>
			<path class="st1" d="M4.2,9.7C4.1,9.7,4,9.6,4,9.6c0,0,0,0,0,0C4,9.7,4.1,9.8,4.2,9.7C4.3,9.9,4.4,9.9,4.5,10c0,0,0,0,0,0
				C4.4,9.9,4.3,9.8,4.2,9.7C4.2,9.7,4.2,9.7,4.2,9.7C4.2,9.7,4.2,9.7,4.2,9.7c0.1,0,0.1,0,0.1,0c0.1,0,0.1,0,0.2,0.1
				c0.1,0,0.2,0.1,0.3,0.1c0,0,0,0,0,0C4.7,9.8,4.2,9.6,4.2,9.7z"/>
			<path class="st1" d="M4.3,9.3C4.3,9.3,4.3,9.3,4.3,9.3c0,0.1,0,0.1,0.1,0.1c0,0,0.1,0,0,0c0.1,0,0.1,0,0.2,0.1
				c0.1,0,0.2,0.1,0.3,0.1c0,0,0,0,0,0c0,0,0.1,0,0.1,0.1c0.2,0.1,0.4,0.1,0.5-0.1c0,0,0,0,0,0C5.3,9.7,5,9.4,4.8,9.3
				c0,0-0.2-0.1-0.2,0c0,0,0,0,0,0c0,0,0.1,0.1,0.1,0.1C4.7,9.3,4.5,9.3,4.3,9.3z"/>
			<path class="st1" d="M5.6,9.2C5.6,9.2,5.7,9.2,5.6,9.2C5.5,9.1,5.5,9.1,5.4,9.1C5.3,9,5.2,8.9,5.1,8.8c0,0-0.1,0,0,0
				C5.2,9.1,5.4,9.3,5.6,9.2z"/>
			<path class="st1" d="M3,12.4c0.1,0.1,0.3,0.1,0.5,0.1c0,0,0.1,0,0.1,0c0.1,0,0.3,0.1,0.4,0.1c0,0,0,0,0,0c-0.1,0-0.3,0-0.4-0.1
				c0.1,0,0.1,0,0.2,0c0.1,0,0.3,0.1,0.4,0c0,0,0,0,0,0c-0.1,0-0.1,0-0.2,0c0,0,0.1,0,0.1,0h0c0,0,0.1,0,0.1,0c0,0,0,0,0,0
				c0,0-0.1,0-0.1,0c0,0,0,0,0,0c-0.1,0-0.2,0-0.2,0c-0.1,0-0.1,0-0.2,0c-0.1,0-0.3-0.1-0.4,0c0,0,0,0,0,0c0.1,0,0.2,0.1,0.3,0.1
				C3.4,12.4,3.2,12.4,3,12.4C3.1,12.3,3,12.4,3,12.4z"/>
			<path class="st1" d="M4.2,12.8c-0.1,0-0.1,0-0.2,0c-0.1,0-0.2-0.1-0.3-0.1c0,0,0,0,0,0c0.1,0,0.2,0.1,0.2,0.1
				c-0.1,0-0.3,0-0.3-0.1c0,0,0,0,0,0C3.7,12.9,3.9,12.9,4.2,12.8C4.2,12.9,4.2,12.9,4.2,12.8C4.2,12.9,4.2,12.9,4.2,12.8
				C4.2,12.9,4.2,12.9,4.2,12.8C4.2,12.8,4.2,12.8,4.2,12.8C4.2,12.8,4.2,12.8,4.2,12.8z"/>
			<path class="st1" d="M4.2,13.3c-0.2,0-0.4,0.1-0.6,0c0,0,0,0,0,0C3.8,13.4,4,13.4,4.2,13.3C4.2,13.3,4.2,13.3,4.2,13.3z"/>
			<path class="st1" d="M4.9,14c-0.1,0-0.2,0.1-0.4,0.1c-0.1,0-0.3,0-0.4,0c0,0,0,0,0,0C4.3,14.2,4.7,14.2,4.9,14
				C4.9,14,4.9,14,4.9,14z"/>
			<path class="st1" d="M5.1,14.1C5.1,14.1,5.1,14.1,5.1,14.1C5.1,14.1,5.1,14.1,5.1,14.1c-0.2,0-0.3,0.1-0.4,0.1
				c-0.1,0-0.2,0.1-0.3,0.1c0,0,0,0,0,0c0.1,0,0.2,0,0.3,0C4.8,14.3,5,14.2,5.1,14.1C5.1,14.2,5.1,14.1,5.1,14.1
				C5.1,14.1,5.1,14.1,5.1,14.1C5.1,14.1,5.1,14.1,5.1,14.1L5.1,14.1C5.1,14.1,5.1,14.1,5.1,14.1C5.2,14.1,5.1,14.1,5.1,14.1z"/>
			<path class="st1" d="M5.2,14.8C5.2,14.8,5.2,14.9,5.2,14.8c0.3,0.1,0.6-0.1,0.8-0.3c0,0,0,0,0,0c0,0,0,0,0,0c-0.1,0-0.3,0-0.4,0
				c0,0,0,0,0,0c0,0,0,0,0,0c-0.1,0-0.2,0-0.2,0.1c-0.1,0-0.3,0-0.4,0c0.1,0,0.3-0.1,0.4-0.2c0,0,0,0,0,0c-0.2,0.1-0.4,0.3-0.6,0.2
				c0,0,0,0,0,0c-0.3,0-0.6-0.1-0.8-0.1c0,0,0,0,0,0c0.5,0.1,1,0.2,1.5,0.2c-0.1,0.1-0.3,0.2-0.4,0.1c0,0-0.1,0,0,0
				c0.1,0.1,0.2,0,0.3,0c0.1,0,0.2-0.1,0.3-0.1c0.1,0,0.3,0,0.4,0C5.7,14.7,5.5,14.9,5.2,14.8z"/>
			<path class="st1" d="M5.5,15c0.3,0,0.5-0.2,0.8-0.3c0,0,0,0,0,0C6,14.8,5.8,15,5.5,15C5.5,15,5.5,15,5.5,15z"/>
			<path class="st1" d="M6.1,15.2c0.3,0,0.6-0.1,0.9-0.3c0,0,0,0,0,0C6.7,15,6.4,15.1,6.1,15.2C6.2,15.1,6.2,15,6.3,15
				c0,0,0-0.1,0-0.1C6.2,15,6.1,15,6.1,15.2C6.1,15.1,6.1,15.2,6.1,15.2z"/>
			<path class="st1" d="M4.7,12.3C4.7,12.2,4.6,12.3,4.7,12.3c0.1,0.2,0.4,0.3,0.7,0.3c0,0,0,0,0,0C5.2,12.4,4.9,12.4,4.7,12.3z"/>
			<path class="st1" d="M4.5,12c-0.1,0-0.1,0.1,0,0.1c0.1,0,0.2,0.1,0.2,0.1c0.1,0.1,0.3,0.1,0.4,0.1c0,0,0,0,0,0
				c-0.1,0-0.1,0-0.2-0.1c-0.1,0-0.2-0.1-0.3-0.1c0,0-0.1,0-0.1,0C4.6,12.1,4.6,12.1,4.5,12C4.6,12.1,4.6,12.1,4.5,12
				C4.6,12,4.6,12,4.5,12z"/>
			<path class="st1" d="M4.6,11.8c0.1,0.1,0.2,0.1,0.3,0.2C5,12,5.1,12.1,5.2,12c0,0,0,0,0,0c-0.1-0.1-0.2-0.1-0.3-0.1
				C4.8,11.8,4.7,11.8,4.6,11.8C4.6,11.7,4.6,11.8,4.6,11.8z"/>
			<path class="st1" d="M4.7,11.4C4.7,11.4,4.7,11.4,4.7,11.4C4.7,11.5,4.7,11.5,4.7,11.4C4.7,11.5,4.8,11.5,4.7,11.4
				c0.1,0,0.1,0,0.1,0.1c0.1,0,0.1,0.1,0.2,0.1c0.1,0,0.2,0.1,0.3,0.1c0,0,0,0,0,0c-0.1-0.1-0.2-0.1-0.4-0.2
				C4.9,11.5,4.8,11.4,4.7,11.4C4.7,11.4,4.7,11.4,4.7,11.4z"/>
			<path class="st1" d="M4.7,11c0.2,0.1,0.3,0.2,0.5,0.3c0,0,0,0,0,0C5.1,11.2,4.9,11.1,4.7,11C4.7,11,4.7,11,4.7,11z"/>
			<path class="st1" d="M5.5,11.1C5.3,11,5.2,10.9,5,10.9c0,0,0,0,0,0C5.1,11,5.3,11,5.5,11.1C5.5,11.1,5.5,11.1,5.5,11.1z"/>
			<path class="st1" d="M5.9,13.1C6,13.1,5.9,13,5.9,13.1C5.9,13,5.9,13,5.9,13.1C5.9,13,5.9,13,5.9,13.1C5.5,13,5,12.9,4.5,12.9
				c0,0,0,0.1,0,0.1C4.7,13,4.8,13,5,13.1c0,0,0,0,0,0C5.3,13.2,5.6,13.2,5.9,13.1z"/>
			<path class="st1" d="M6.3,13.2C6.3,13.1,6.3,13.1,6.3,13.2c-0.1,0-0.2,0-0.4,0c-0.2,0-0.3,0-0.5,0c0,0,0,0,0,0
				C5.7,13.3,6,13.3,6.3,13.2z"/>
			<path class="st1" d="M6.4,13.3C6.4,13.3,6.4,13.3,6.4,13.3c-0.3,0-0.5,0.1-0.8,0.1c0,0,0,0,0,0C5.9,13.5,6.2,13.4,6.4,13.3z"/>
			<path class="st1" d="M6,13.7c0.2,0,0.3-0.1,0.5-0.2c0,0,0,0,0,0c-0.1,0-0.2,0.1-0.3,0.1c-0.1,0-0.3,0.1-0.4,0c0,0,0,0,0,0
				C5.8,13.7,5.9,13.7,6,13.7z"/>
			<path class="st1" d="M6.4,13.9c0.2,0,0.3-0.1,0.5-0.2c0,0,0,0,0,0C6.6,13.7,6.2,14,6,13.8c0,0,0,0,0,0C6.1,14,6.2,13.9,6.4,13.9z
				"/>
			<path class="st1" d="M6.6,14.1c0.1-0.1,0.3-0.1,0.4-0.2c0,0,0,0,0,0c-0.2,0-0.5,0.3-0.7,0.2c0,0,0,0,0,0
				C6.4,14.1,6.5,14.1,6.6,14.1z"/>
			<path class="st1" d="M6.6,14.3c0.2,0,0.4-0.1,0.6-0.2c0,0,0,0,0,0c-0.1,0-0.2,0.1-0.3,0.1C6.8,14.2,6.8,14.2,6.6,14.3
				c0,0,0-0.1,0-0.1c0,0,0,0,0,0C6.6,14.2,6.6,14.2,6.6,14.3C6.6,14.3,6.6,14.3,6.6,14.3z"/>
			<path class="st1" d="M7.4,14.4C7.4,14.4,7.4,14.3,7.4,14.4c-0.1,0-0.2,0.1-0.3,0.1c0,0-0.2,0-0.2,0c0,0,0,0,0-0.1c0,0,0,0,0,0
				c0,0-0.1,0.1-0.1,0.1c0,0,0,0,0,0C7,14.5,7.2,14.5,7.4,14.4z"/>
			<path class="st1" d="M7.5,14.7C7.5,14.7,7.5,14.7,7.5,14.7c-0.1,0-0.4,0.1-0.4,0c0,0-0.1,0-0.1,0C7.1,14.9,7.4,14.8,7.5,14.7z"/>
			<path class="st1" d="M7.3,14.9c0.5,0,0.9-0.2,1.3-0.4c0,0,0-0.1,0,0C8.2,14.6,7.8,14.9,7.3,14.9C7.3,14.9,7.3,14.9,7.3,14.9z"/>
			<path class="st1" d="M3.4,1.1c0.5,0.1,1,0,1.5,0.1c0.6,0.1,1.1,0.5,1.5,0.8c0.5,0.4,1.1,0.7,1.7,1.1c0,0.2,0,0.4,0.1,0.6
				C7.7,3.4,7.3,3.2,6.8,2.9c-1-0.6-1.8-1.4-2.9-1.7c0,0,0,0,0,0C5,1.6,5.8,2.3,6.7,3c0.5,0.3,1,0.6,1.5,0.9c0.1,0.7,0.4,1.4,0.8,2
				c0.3,0.5,0.6,0.9,0.9,1.3c0.2,0.2,0.4,0.5,0.7,0.5c0,0,0,0,0,0C10.3,7.5,10,7.2,9.8,6.9C9.5,6.5,9.2,6.1,9,5.7
				C8.7,5.1,8.5,4.6,8.3,4c0.2,0.2,0.4,0.4,0.6,0.6c0,0.1,0.1,0,0.1-0.1C8.8,4.3,8.6,4,8.3,3.8c0-0.2-0.1-0.4-0.1-0.6
				C8.6,3.4,9,3.7,9.4,3.9c0,0,0,0,0,0C9,3.6,8.6,3.3,8.2,3c0-0.1,0-0.1,0-0.2c0,0-0.1,0-0.1,0c0,0.1,0,0.1,0,0.2
				C7.5,2.6,7,2.3,6.4,2C6,1.7,5.6,1.4,5.1,1.2C4.5,1,3.9,1.1,3.4,1.1C3.3,1.1,3.3,1.1,3.4,1.1z"/>
			<path class="st1" d="M18.8,2.6c0.3-0.4,0.7-0.7,1.1-1C20.9,0.8,21.9,0.3,23,0c0,0,0,0,0,0c-1,0.1-1.9,0.6-2.7,1.2
				c-0.4,0.3-0.8,0.7-1.2,1.1c-0.4,0.4-0.7,0.8-1,1.2c0,0,0,0,0,0C18.4,3.3,18.6,2.9,18.8,2.6z"/>
			<path class="st1" d="M21.1,1.1c-1,0.8-1.6,1.9-2.6,2.8c0,0,0,0,0,0c0.8-0.4,1.2-1.4,1.8-2c0.7-0.8,1.6-1.3,2.6-1.6
				c0.2-0.1,0.4-0.1,0.6-0.1c0.4,0,0.5,0.4,0.5,0.7c0,0.4-0.1,0.8-0.1,1.2c0,0.1-0.1,0.3-0.1,0.4c-1.5-0.2-3.4,0.4-4.4,1.4
				c0,0,0,0,0,0c1.2-0.9,2.8-1.5,4.4-1.4c-0.2,0.6-0.4,1.3-0.6,1.9c-0.2,0-0.3,0-0.5,0c-0.3,0-0.6,0.1-0.8,0.2
				c-0.1,0-0.3,0.1-0.4,0.1c0.1,0-0.5,0-0.4,0c0,0,0-0.1,0,0c-0.1,0,0,0-0.1,0.1c0,0,0,0,0,0c0.8,0,1.5-0.3,2.2-0.3
				c-0.1,0.2-0.2,0.4-0.2,0.6c-0.7,0-1.3,0.1-1.9,0.3c0,0,0,0.1,0,0.1c0.6-0.2,1.2-0.2,1.9-0.3c0,0.1-0.1,0.2-0.1,0.2c0,0,0,0,0,0
				c0-0.1,0.1-0.2,0.1-0.3c0.3,0,0.7,0,1-0.1c0,0,0,0,0,0c-0.3,0-0.7,0-1,0c0.1-0.2,0.2-0.4,0.2-0.5c0.2,0,0.4,0,0.6,0.1
				c0,0,0,0,0,0c-0.2-0.1-0.4-0.2-0.6-0.2c0.2-0.6,0.5-1.2,0.6-1.9c0.1,0,0.2,0,0.3,0c0,0,0,0,0,0c-0.1,0-0.2,0-0.2-0.1
				c0-0.2,0.1-0.4,0.1-0.6c0.1-0.5,0.3-1.6-0.3-1.8c-0.4-0.1-0.9,0.1-1.2,0.3C21.9,0.5,21.5,0.8,21.1,1.1z"/>
			<path class="st1" d="M22.5,6c-0.1,0.2-0.1,0.3-0.2,0.5c-0.1,0.1-0.1,0.3-0.2,0.4c0,0,0,0,0,0c0.1-0.1,0.1-0.2,0.1-0.3
				C22.3,6.4,22.4,6.2,22.5,6C22.5,6,22.5,6,22.5,6z"/>
			<path class="st1" d="M4.2,1.5C4,1.5,3.9,1.5,3.7,1.6C3.9,1.6,4,1.5,4.2,1.5C4.2,1.5,4.2,1.5,4.2,1.5z"/>
			<path class="st1" d="M3,2C3,1.9,3,1.9,3,2C3,1.9,3,1.9,3,2C2.9,2,3,2,3,2z"/>
			<path class="st1" d="M3.1,2.3c0,0.1,0,0.3,0.1,0.4c0,0,0,0,0,0c0,0,0,0,0,0c0,0,0,0,0,0c0.1,0.5,0.4,1,0.6,1.4
				c-0.2,0-0.5,0.1-0.2,0c0,0,0,0,0,0c-0.1,0-0.2,0.1-0.2,0.1c0,0,0,0.1,0,0.1c0.2,0,0.3,0,0.5-0.1c0,0,0,0,0,0
				c0.3,0.6,0.5,1.3,0.7,1.9C4,6.4,3.5,6.7,3,7.1c0,0,0,0,0,0c0.5-0.3,1-0.6,1.6-0.9c0,0.1,0,0.2,0.1,0.3C4.4,6.6,4.1,6.7,3.8,6.9
				c0,0,0,0.1,0,0.1c0.3-0.2,0.5-0.3,0.8-0.4C4.8,7.4,4.9,8.2,5,9.1c0,0,0,0,0,0C4.9,9.1,4.8,9,4.7,9c0,0,0,0,0,0.1
				c0.1,0,0.1,0.1,0.2,0.1C5,9.2,5.1,9.3,5.1,9.3c0,0,0,0,0,0C5.1,9.2,5,9.2,5,9.1c0-0.9-0.1-1.8-0.3-2.6C5.3,6.2,5.9,6,6.5,5.7
				c0,0,0,0,0,0C5.9,5.9,5.3,6.1,4.7,6.4c0-0.1,0-0.2-0.1-0.3c0.6-0.3,1.2-0.6,1.8-0.8c0.3,0,0.6-0.1,0.8-0.1c0,0,0,0,0,0
				c-0.3,0-0.5,0-0.8,0.1c0,0,0,0,0,0c0,0,0,0,0,0C5.9,5.3,5.3,5.4,4.7,5.5c0,0,0,0,0,0c0.5-0.1,0.9-0.2,1.4-0.2
				C5.6,5.5,5.1,5.8,4.6,6C4.5,5.6,4.4,5.2,4.2,4.8c0,0,0-0.1,0-0.1c0.5-0.1,0.9-0.2,1.4-0.3c0,0,0,0,0,0c0.6,0,1.2,0,1.8-0.1
				c0,0,0,0,0,0c-0.6,0-1.2,0-1.8,0.1c0,0,0,0,0,0c0,0,0,0,0,0C5.1,4.4,4.6,4.5,4.1,4.7C4.1,4.5,4,4.3,3.9,4.2
				c0.5-0.1,0.9-0.3,1.4-0.4c0,0,0,0,0,0C5,3.8,4.7,3.9,4.4,3.9C4.2,4,4,4,3.9,4.1h0C3.6,3.6,3.4,3.2,3.2,2.7c0.5-0.2,1-0.4,1.6-0.5
				c0,0,0,0,0,0C4.2,2.2,3.7,2.4,3.2,2.7C3.2,2.6,3.2,2.4,3.1,2.3C3.6,2.2,3.9,2,4.3,1.9c0,0,0,0,0,0C3.9,2,3.5,2.1,3.1,2.3
				c0-0.2,0-0.3,0.1-0.5c0.2-0.1,0.4-0.2,0.6-0.2C3.5,1.7,3.3,1.7,3.2,1.8c0-0.2,0.1-0.4,0.2-0.6c0,0,0-0.1-0.1,0
				C3.2,1.4,3.1,1.6,3.1,1.9c0,0,0,0,0,0c0,0,0,0,0,0C3.1,2,3.1,2.1,3.1,2.3c-0.1,0-0.2,0-0.3,0.1c0,0,0,0,0,0
				C2.9,2.4,3,2.3,3.1,2.3z"/>
			<path class="st1" d="M4.7,2.6c-0.5,0-1,0.1-1.4,0.3c0,0,0,0,0,0C3.8,2.7,4.3,2.7,4.7,2.6C4.7,2.7,4.7,2.6,4.7,2.6z"/>
			<path class="st1" d="M5.6,2.8C5.7,2.8,5.7,2.7,5.6,2.8C4.9,2.8,4.2,3,3.5,3.2c0,0,0,0,0,0C4.2,3,4.9,2.8,5.6,2.8z"/>
			<path class="st1" d="M5.5,3.1C5.6,3.1,5.6,3.1,5.5,3.1c-0.1,0-0.3,0-0.4,0.1C5.3,3.1,5.4,3.1,5.5,3.1z"/>
			<path class="st1" d="M4.2,3.3c0,0,0.1,0,0.1,0C4.3,3.3,4.2,3.3,4.2,3.3C4.2,3.3,4.2,3.3,4.2,3.3z"/>
			<path class="st1" d="M5.1,3.1c-0.3,0-0.5,0.1-0.8,0.1C4.6,3.2,4.8,3.2,5.1,3.1z"/>
			<path class="st1" d="M5.1,3.4c-0.2,0-0.4,0.1-0.6,0.1c0,0,0,0,0,0C4.7,3.5,4.9,3.5,5.1,3.4C5.1,3.4,5.1,3.4,5.1,3.4z"/>
			<path class="st1" d="M5.7,3.4c-0.1,0-0.1,0-0.2,0C5.6,3.4,5.7,3.4,5.7,3.4z"/>
			<path class="st1" d="M5.5,3.4C5.5,3.4,5.5,3.4,5.5,3.4C5.5,3.4,5.5,3.4,5.5,3.4L5.5,3.4z"/>
			<path class="st1" d="M5.8,3.4C5.8,3.4,5.7,3.4,5.8,3.4C5.7,3.4,5.8,3.4,5.8,3.4C5.8,3.4,5.8,3.4,5.8,3.4z"/>
			<path class="st1" d="M5.3,3.7c0.3,0,0.6-0.1,0.9-0.1c0,0,0,0,0,0C6,3.5,5.8,3.6,5.6,3.6c-0.1,0-0.7,0.2-0.7,0.1c0,0,0,0,0,0
				C4.9,3.8,5.2,3.7,5.3,3.7z"/>
			<path class="st1" d="M5.1,3.9C5.1,3.9,5.1,3.9,5.1,3.9c0.1,0.1,0.3,0,0.5,0c0.3-0.1,0.6-0.1,0.9-0.2c0,0,0,0,0,0
				C6.2,3.7,6,3.8,5.8,3.8C5.7,3.9,5.2,4,5.1,3.9z"/>
			<path class="st1" d="M5.4,4.3c0.4,0,0.8-0.2,1.2-0.2c0,0,0,0,0,0c0.1,0,0.2,0,0.3,0c0,0,0,0,0,0C6.5,4,6.1,4.1,5.6,4.1
				c0,0,0,0,0,0c0,0,0,0-0.1,0c-0.1,0-0.2,0-0.4,0.1c0,0,0,0,0,0C5.3,4.2,5.3,4.2,5.4,4.3C5.4,4.2,5.4,4.2,5.4,4.3
				C5.4,4.3,5.4,4.3,5.4,4.3z M6.1,4.1C5.9,4.2,5.7,4.2,5.5,4.2c0,0,0.1,0,0.1-0.1C5.8,4.1,6,4.1,6.1,4.1z"/>
			<path class="st1" d="M5.4,4.8C5.2,4.8,5,4.9,4.8,4.9C4.8,5,4.7,5,4.6,5c0,0-0.2,0.1-0.1,0c0,0,0-0.1,0,0c0,0.1,0,0.1,0.1,0.1
				C4.8,5,5.1,4.9,5.4,4.8C5.4,4.8,5.4,4.8,5.4,4.8z"/>
			<path class="st1" d="M7.5,4C7.5,4,7.5,4,7.5,4c0.1-0.6-0.9-0.7-1.4-0.7c-0.8-0.1-1.6,0-2.4,0.2c0,0,0,0.1,0,0.1
				c0.1,0,0.3,0,0.4,0c0,0,0,0,0,0c0.1,0,0.2,0,0.2,0c0.4,0,0.7-0.1,1.1-0.1C6,3.4,7.4,3.3,7.5,4z"/>
			<path class="st1" d="M5.8,4.6C5.8,4.6,5.8,4.6,5.8,4.6c0.5,0,1.1,0,1.6-0.1c0,0,0,0,0,0C6.8,4.5,6.3,4.6,5.8,4.6z"/>
			<path class="st1" d="M5.5,5.2C6.1,5.1,6.7,5,7.3,4.9c0,0,0,0,0,0C6.8,4.9,6.3,5,5.9,5.1c0,0-0.1,0-0.1,0c0,0-0.1,0,0,0
				c0,0,0,0,0,0C5.7,5.1,5.6,5.1,5.5,5.2C5.4,5.2,5.4,5.2,5.5,5.2z"/>
			<path class="st1" d="M6.7,5.9C6.1,6.1,5.5,6.4,4.9,6.6c0,0,0,0,0,0C5.5,6.4,6.1,6.2,6.7,5.9C6.7,5.9,6.7,5.9,6.7,5.9z"/>
			<path class="st1" d="M20,2.5c0.9-0.4,1.9-0.7,2.8-1c0,0,0,0,0,0C21.8,1.7,20.9,2,20,2.5C19.9,2.5,20,2.5,20,2.5z"/>
			<path class="st1" d="M23.6,0.7c-0.8,0-1.6,0.2-2.3,0.6c0,0,0,0.1,0,0C22,1,22.8,0.8,23.6,0.7C23.6,0.8,23.6,0.7,23.6,0.7z"/>
			<path class="st1" d="M20.4,2.4C20.4,2.4,20.4,2.5,20.4,2.4c0.7-0.2,1.5-0.4,2.2-0.6c0,0,0,0,0,0C21.9,2,21.2,2.2,20.4,2.4z"/>
			<path class="st1" d="M21.1,1.7c0.4-0.1,0.9-0.1,1.3-0.3c0,0,0,0,0,0C22,1.5,21.5,1.6,21.1,1.7C21,1.7,21.1,1.7,21.1,1.7z"/>
			<path class="st1" d="M22,1.2C22,1.2,22,1.2,22,1.2c0.6-0.2,1.2-0.2,1.9-0.3c0,0,0,0,0,0C23.2,0.8,22.6,0.9,22,1.2z"/>
			<path class="st1" d="M22,3.3C22,3.3,22,3.3,22,3.3c-0.3,0-0.7,0.1-1,0.2c0,0,0,0,0,0C21.3,3.4,21.6,3.3,22,3.3z"/>
			<path class="st1" d="M22.2,3.5c-0.3,0-0.7,0.1-1,0.2C21.5,3.7,21.8,3.6,22.2,3.5C22.2,3.6,22.2,3.5,22.2,3.5z"/>
			<path class="st1" d="M20.3,3.8c0.1,0,0.1,0,0.2,0C20.5,3.8,20.4,3.8,20.3,3.8C20.3,3.8,20.3,3.8,20.3,3.8z"/>
			<path class="st1" d="M21.1,3.7c-0.2,0-0.4,0.1-0.6,0.1C20.7,3.8,20.9,3.8,21.1,3.7z"/>
			<path class="st1" d="M20.7,4.1C20.6,4.1,20.6,4.1,20.7,4.1c0.8,0,1.5-0.3,2.2-0.4c0,0,0,0,0,0C22.1,3.7,21.4,4.1,20.7,4.1z"/>
			<path class="st1" d="M23.1,4c-0.8,0-1.5,0.3-2.3,0.4c0,0,0,0.1,0,0.1C21.6,4.4,22.3,4.1,23.1,4C23.1,4,23.1,4,23.1,4z"/>
			<path class="st1" d="M23.3,5.8c-0.5,0-0.9,0-1.4,0.1c-0.1,0,0,0.1,0,0.1C22.4,5.9,22.8,5.9,23.3,5.8C23.3,5.9,23.3,5.8,23.3,5.8z
				"/>
			<path class="st1" d="M5.6,8.3c0,0-0.1,0-0.1-0.1c0,0,0,0,0,0c-0.1,0-0.1,0-0.2-0.1c0,0-0.1,0,0,0.1c0.6,0.3,1.3,0.7,2,0.7
				c0,0,0,0,0,0C6.8,8.8,6.5,8.7,6.1,8.5C5.9,8.5,5.8,8.4,5.6,8.3z"/>
			<path class="st1" d="M6.2,7.5C6.2,7.5,6.2,7.5,6.2,7.5C5.9,7.6,6.4,7.9,6.4,8c0.3,0.2,0.7,0.5,1.1,0.6c0,0,0,0,0,0
				C7.2,8.5,7,8.3,6.8,8.2C6.7,8.1,5.9,7.6,6.2,7.5z"/>
			<path class="st1" d="M6.8,7.7C6.7,7.7,6.5,7.4,6.7,7.4c0.1,0,0.1-0.1,0-0.1c0,0-0.1,0-0.1,0c0,0,0,0,0,0c0.1,0.5,0.8,0.8,1.2,1
				c0,0,0,0,0,0C7.5,8.2,7.3,8.1,7.1,8C7,7.9,6.9,7.8,6.8,7.7z"/>
			<path class="st1" d="M7.2,7c0,0.2,0.2,0.4,0.3,0.5C7.7,7.8,7.9,8,8.2,8.2c0,0,0,0,0,0C8,8,7.8,7.8,7.7,7.7C7.5,7.5,7.2,7.3,7.2,7
				C7.2,7,7.2,7,7.2,7z"/>
			<path class="st1" d="M7.9,7.2C7.9,7.2,7.9,7.2,7.9,7.2c0,0.4,0.4,0.8,0.7,1c0,0,0,0,0,0C8.4,7.9,8,7.6,7.9,7.2z"/>
			<path class="st1" d="M9.1,7.8C9.1,7.8,9.1,7.8,9.1,7.8c0-0.1,0-0.1-0.1-0.1c0,0,0,0,0,0C9.1,7.8,9.1,7.8,9.1,7.8z"/>
			<path class="st1" d="M9.3,8C9.3,8,9.3,8,9.3,8C9.3,8,9.3,8,9.3,8z"/>
			<path class="st1" d="M20.2,6.3c-0.3,0.2-0.6,0.7-1,0.6c0,0-0.1,0,0,0.1C19.6,7,20,6.6,20.2,6.3C20.2,6.3,20.2,6.3,20.2,6.3z"/>
			<path class="st1" d="M19.7,7.2C19.7,7.2,19.7,7.2,19.7,7.2c0,0,0.1,0,0.1-0.1c0,0,0,0,0,0C19.8,7.2,19.7,7.2,19.7,7.2
				C19.7,7.2,19.7,7.2,19.7,7.2C19.6,7.2,19.6,7.2,19.7,7.2c0.2,0.3,0.7-0.2,0.9-0.3c0,0,0-0.1,0,0C20.4,6.9,19.9,7.4,19.7,7.2z"/>
			<path class="st1" d="M20.7,7.2C20.7,7.2,20.7,7.2,20.7,7.2c-0.1,0.1-0.3,0.2-0.5,0.2c0,0,0,0,0,0C20.4,7.5,20.5,7.4,20.7,7.2z"/>
			<path class="st1" d="M21.1,7.3c-0.1,0.1-0.4,0.4-0.6,0.3c0,0-0.1,0,0,0.1C20.8,7.8,21,7.5,21.1,7.3C21.2,7.3,21.1,7.3,21.1,7.3z"
				/>
			<path class="st1" d="M21,7.7C21,7.7,21,7.7,21,7.7c0.1,0.1,0.3,0,0.5,0c0.2-0.1,0.4-0.3,0.6-0.4c0,0,0,0,0,0
				c-0.2,0.1-0.3,0.2-0.5,0.3C21.5,7.6,21.3,7.7,21,7.7z"/>
			<path class="st1" d="M23.4,8.3C23.4,8.3,23.4,8.3,23.4,8.3c-0.4,0-0.7,0.2-1.1,0.2c0,0,0-0.1-0.1-0.1c0,0-0.1,0-0.1,0
				c0.1-0.1,0.1-0.1,0.2-0.2c0,0,0-0.1,0,0c-0.1,0.1-0.2,0.2-0.3,0.2c0,0,0,0.1,0,0.1c0.1,0,0.1,0,0.2,0c0.1,0.1,0.3,0,0.4,0
				c0,0,0,0,0,0c0.3,0,0.7-0.1,1-0.2c0,0,0.2-0.1,0.2-0.1c-0.1,0.1-0.2,0.1-0.3,0.2c-0.2,0.1-0.4,0.2-0.6,0.3c0,0,0,0.1,0,0.1
				c0.3,0,0.5-0.1,0.7-0.1c0,0,0,0,0,0c-0.2,0.1-0.4,0.1-0.6,0.1c0.3-0.2,0.6-0.3,0.9-0.5c0,0,0,0,0,0c-0.4,0.1-0.8,0.3-1.2,0.3
				c0,0,0,0,0,0C22.9,8.4,23.2,8.4,23.4,8.3z"/>
			<path class="st1" d="M23.6,8.8c-0.1,0-0.2,0.1-0.4,0.2c0,0,0,0,0,0c0.1,0,0.1,0,0.2,0c0,0,0,0,0,0c0,0,0,0,0,0
				C23.4,8.9,23.5,8.9,23.6,8.8C23.6,8.8,23.6,8.8,23.6,8.8z"/>
			<path class="st1" d="M23.6,9.2c0.1,0,0.2,0,0.3,0c0,0,0,0,0,0c0,0-0.1,0-0.1,0c0.2-0.1,0.4-0.2,0.6-0.3c0,0,0-0.1,0,0
				C24.1,8.9,23.8,9,23.6,9.2C23.5,9.2,23.5,9.2,23.6,9.2z"/>
			<path class="st1" d="M23.4,9.6c0.1,0,0.2,0,0.3-0.1c0,0,0,0,0,0c0,0-0.1,0-0.1,0c0.2-0.1,0.5-0.3,0.7-0.4c0,0,0,0,0,0
				c-0.3,0.1-0.7,0.3-1,0.4C23.3,9.5,23.4,9.6,23.4,9.6z"/>
			<path class="st1" d="M24.3,9.5c-0.2,0.1-0.5,0.2-0.7,0.3c0,0,0,0.1,0,0.1c0.1,0,0.2,0,0.2-0.1c0,0,0,0,0,0c0,0,0,0,0,0
				C24,9.7,24.2,9.6,24.3,9.5C24.4,9.5,24.3,9.4,24.3,9.5z"/>
			<path class="st1" d="M24.5,9.8c-0.3,0.1-0.5,0.2-0.8,0.3c-0.1,0,0,0.1,0,0.1c0.1,0,0.2,0,0.4-0.1c0,0,0,0,0,0c0,0-0.1,0-0.2,0
				C24.2,10,24.4,9.9,24.5,9.8C24.6,9.8,24.6,9.7,24.5,9.8z"/>
			<path class="st1" d="M24.5,10.9c-0.3,0.1-0.6,0.2-0.9,0.3c0,0,0,0,0,0c0,0,0,0,0,0c0,0,0,0,0,0c0.1,0,0.2,0.1,0.3,0c0,0,0,0,0,0
				c-0.1,0-0.1,0-0.2,0c0,0,0,0-0.1,0c0.1,0,0.2-0.1,0.3-0.1C24.2,11.1,24.4,11.1,24.5,10.9C24.6,10.9,24.5,10.9,24.5,10.9z"/>
			<path class="st1" d="M24.5,11.4c-0.2,0.1-0.4,0.2-0.6,0.4c0,0,0,0.1,0,0.1c0.1,0,0.2,0,0.3,0.1c0.2,0.1,0.1,0.1,0,0.2
				c-0.2,0.1-0.3,0.1-0.5,0.2c-0.3,0.1-0.4,0.4-0.6,0.6c0,0,0,0.1,0,0c0.3-0.1,0.3-0.3,0.5-0.5c0.3-0.2,0.6-0.2,0.8-0.4
				c0,0,0-0.1,0-0.1c-0.1-0.1-0.2-0.1-0.4-0.2C24.2,11.7,24.4,11.6,24.5,11.4C24.5,11.5,24.5,11.4,24.5,11.4z"/>
			<path class="st1" d="M22.9,14.6C22.9,14.6,22.9,14.6,22.9,14.6c-0.1,0-0.1,0.1-0.1,0.1c0,0,0,0,0,0c0.2,0.1,0.5,0.1,0.7,0
				c0,0,0,0,0,0c-0.1,0-0.2,0.1-0.3,0.1c-0.1,0-0.1,0-0.2,0C22.8,14.7,22.9,14.7,22.9,14.6z"/>
			<polygon class="st1" points="23.7,14.9 23.7,14.9 23.6,14.9 23.6,14.9 			"/>
			<path class="st1" d="M24.5,14c-0.2,0.1-0.4,0.2-0.7,0.2c0,0,0,0.1,0,0.1C24,14.3,24.3,14.2,24.5,14C24.5,14.1,24.5,14,24.5,14z"
				/>
			<path class="st1" d="M24.6,13.8c-0.2,0.1-0.4,0.2-0.6,0.2c0,0,0,0.1,0,0.1C24.2,14,24.4,13.9,24.6,13.8
				C24.6,13.8,24.6,13.8,24.6,13.8z"/>
			<path class="st1" d="M24.8,13.4c-0.2,0-0.3,0.1-0.4,0.1c0,0,0,0.1,0,0.1C24.6,13.6,24.7,13.5,24.8,13.4
				C24.9,13.5,24.9,13.4,24.8,13.4z"/>
			<path class="st1" d="M25,13.1c-0.2,0.1-0.4,0.2-0.6,0.2c0,0,0,0.1,0,0.1C24.6,13.4,24.9,13.3,25,13.1C25,13.1,25,13.1,25,13.1z"
				/>
			<path class="st1" d="M25.2,12.9C25,12.9,24.8,13,24.6,13c0,0,0,0.1,0,0.1C24.8,13.1,25.1,13,25.2,12.9
				C25.2,12.9,25.2,12.9,25.2,12.9z"/>
			<path class="st1" d="M25.3,12.5c-0.1,0-0.2,0.1-0.4,0.1c0,0,0,0.1,0,0.1C25,12.7,25.2,12.7,25.3,12.5
				C25.3,12.6,25.3,12.5,25.3,12.5z"/>
			<path class="st1" d="M25,12.1C25,12.1,25,12.1,25,12.1c0.3,0,0.6-0.3,0.7-0.5c0,0,0,0,0,0c-0.1,0.1-0.2,0.2-0.3,0.3
				C25.2,11.9,25.1,12,25,12.1z"/>
			<path class="st1" d="M25,11.8c0.1-0.1,0.2-0.1,0.2-0.2c0.1-0.1,0.3-0.2,0.3-0.3c0,0,0,0,0,0c-0.1,0-0.2,0.2-0.3,0.3
				C25.1,11.6,25.1,11.7,25,11.8C25,11.8,25,11.9,25,11.8z"/>
			<path class="st1" d="M24.8,11.2c0.3-0.1,0.4-0.3,0.7-0.4c-0.1,0.1-0.1,0.2-0.2,0.2c0,0,0,0.1,0,0c0,0,0,0,0.1-0.1
				c-0.1,0.2-0.3,0.4-0.5,0.5c0,0,0,0,0,0c0.1,0,0.1,0,0.1-0.1c0,0,0,0,0,0c0,0-0.1,0-0.1,0c0.2-0.2,0.4-0.4,0.5-0.6c0,0,0-0.1,0,0
				c0,0,0.1-0.1,0.1-0.1c0,0,0-0.1,0,0C25.3,10.8,25,11,24.8,11.2C24.7,11.2,24.8,11.3,24.8,11.2z"/>
			<path class="st1" d="M24.9,10.5c0.2-0.1,0.3-0.2,0.5-0.2c0,0,0,0,0,0C25.2,10.3,25.1,10.3,24.9,10.5
				C24.9,10.4,24.9,10.5,24.9,10.5z"/>
			<path class="st1" d="M24.5,10.3C24.5,10.3,24.5,10.3,24.5,10.3c0.1,0.1,0.2,0,0.3-0.1c0.1-0.1,0.2-0.2,0.4-0.2
				c0.1,0,0-0.1-0.1-0.1c-0.1,0.1-0.2,0.1-0.3,0.2C24.7,10.2,24.6,10.2,24.5,10.3z"/>
			<path class="st1" d="M24.4,10.1C24.4,10.1,24.4,10.1,24.4,10.1c-0.2,0.1-0.4,0.2-0.5,0.3c0,0,0,0.1,0,0.1c0.1,0,0.2,0,0.4-0.1
				c0.1,0,0.2,0,0.2,0c0.1,0,0.1,0,0.1,0.1c0,0-0.1,0.1-0.1,0.1c-0.2,0.1-0.5,0.1-0.6,0.3c0,0,0,0.1,0,0.1c0.1,0,0.2,0,0.2,0
				c0,0,0,0,0,0c0,0-0.1,0-0.1,0c0.1-0.1,0.2-0.1,0.3-0.1c0.1-0.1,0.2-0.1,0.3-0.2c0,0,0,0,0,0c-0.2-0.1-0.4,0-0.6,0
				C24.2,10.3,24.3,10.3,24.4,10.1c0.1,0,0.2,0,0.3-0.1c0.1-0.1,0.2-0.1,0.3-0.2c0.1,0,0-0.1,0-0.1c-0.1,0-0.2,0.1-0.3,0.2
				C24.6,10,24.5,10,24.4,10.1z"/>
			<path class="st1" d="M23.8,9.9C23.7,9.9,23.7,9.9,23.8,9.9c0.4,0.1,0.6-0.2,0.9-0.4c0.1,0,0-0.1,0-0.1c-0.1,0.1-0.3,0.1-0.4,0.2
				C24.1,9.7,23.9,9.8,23.8,9.9z"/>
			<path class="st1" d="M23.5,8.9C23.5,8.8,23.5,8.8,23.5,8.9c-0.1,0-0.2,0-0.3,0C23,8.9,22.9,9,22.8,9c0,0,0,0,0,0
				c0.1,0,0.2,0,0.3-0.1C23.2,8.9,23.3,8.9,23.5,8.9z"/>
			<path class="st1" d="M21.7,9.5c-0.3,0.1-0.6,0.1-0.9,0.1c0,0,0,0,0,0C21.1,9.7,21.4,9.6,21.7,9.5C21.7,9.6,21.7,9.5,21.7,9.5z"/>
			<path class="st1" d="M21.2,10C21.1,10,21.1,10,21.2,10C21.1,10,21.1,10,21.2,10C21.1,10,21.1,10.1,21.2,10
				C21.2,10.1,21.2,10,21.2,10z"/>
			<polygon class="st1" points="22,11.4 22.1,11.4 22.1,11.4 22,11.4 			"/>
			<path class="st1" d="M22.8,11.8c-0.1,0.1-0.3,0.1-0.4,0.1c0,0,0,0.1,0,0.1C22.6,12,22.7,11.9,22.8,11.8
				C22.8,11.8,22.8,11.8,22.8,11.8z"/>
			<path class="st1" d="M23.3,11.6C23.2,11.6,23.2,11.6,23.3,11.6C23.2,11.6,23.2,11.6,23.3,11.6c-0.1,0-0.2,0-0.2,0.1
				c0,0.1,0.1,0,0.2,0c0.1,0,0.2-0.1,0.3-0.2c0,0,0-0.1,0-0.1c-0.1,0-0.2,0-0.2,0.1C23.3,11.6,23.3,11.6,23.3,11.6z"/>
			<path class="st1" d="M15.5,7.2c0.1-0.2,0.1-0.3,0.1-0.5c0,0,0,0-0.1,0c-0.1,0.1-0.2,0.2-0.3,0.3c0,0,0,0,0,0
				c0.1-0.1,0.1-0.2,0.2-0.3c0,0.1-0.1,0.1-0.1,0.2C15.4,7.1,15.4,7.2,15.5,7.2C15.4,7.3,15.5,7.3,15.5,7.2z"/>
			<path class="st1" d="M15.9,6.6c-0.1,0.2-0.1,0.3-0.2,0.4c0,0,0,0.1,0.1,0c0.2-0.1,0.3-0.3,0.4-0.5c0.1-0.1,0.1-0.2,0.2-0.3
				c0,0-0.1,0.2-0.1,0.2c0,0,0,0.1,0,0c0.2-0.1,0.3-0.2,0.4-0.4c0,0,0,0,0,0c-0.1,0.1-0.2,0.2-0.3,0.3c0-0.1,0.1-0.1,0.1-0.2
				c0,0,0,0,0,0c-0.2,0.2-0.3,0.5-0.6,0.7C15.9,6.8,16,6.7,15.9,6.6C16,6.6,16,6.6,15.9,6.6z"/>
			<path class="st1" d="M13.7,5.7c0,0.1,0,0.1,0,0.2c0,0,0,0,0,0C13.7,5.8,13.7,5.7,13.7,5.7C13.7,5.6,13.7,5.6,13.7,5.7z"/>
			<path class="st1" d="M14,5.4C14,5.4,14,5.4,14,5.4c0,0.1,0,0.2,0,0.3c0,0,0,0,0,0C14,5.6,14,5.5,14,5.4z"/>
			<path class="st1" d="M13.9,6.5C13.9,6.5,13.9,6.5,13.9,6.5C13.9,6.5,13.9,6.5,13.9,6.5z"/>
			<path class="st1" d="M14.4,5.2c0,0.1,0,0.3,0,0.4c0,0,0,0,0,0C14.3,5.5,14.4,5.4,14.4,5.2C14.4,5.2,14.4,5.2,14.4,5.2z"/>
			<path class="st1" d="M15.7,4.7c-0.1,0.2-0.2,0.3-0.3,0.5c0,0,0,0,0,0c0.1-0.1,0.1-0.3,0.2-0.4c0,0,0,0.1,0,0.1c0,0,0,0,0,0
				C15.7,4.9,15.8,4.8,15.7,4.7C15.8,4.7,15.7,4.7,15.7,4.7z"/>
			<path class="st1" d="M13.1,5.8C13.1,5.9,13.1,5.9,13.1,5.8c0-0.3,0-0.5,0-0.8c0.1,0.1,0.1,0.3,0.2,0.4c0,0,0,0,0,0
				c-0.1-0.2-0.2-0.3-0.2-0.5c0,0-0.1,0-0.1,0C13,5.2,13,5.5,13.1,5.8z"/>
			<path class="st1" d="M12.2,4.9c0,0.1,0,0.2,0.1,0.3c0,0,0.1,0,0.1,0C12.3,5.1,12.3,5,12.2,4.9c0.3-0.2,0.5,0,0.6,0.2
				c0,0,0.1,0,0.1,0c0,0,0-0.1,0-0.1c0,0.1,0.1,0.2,0.1,0.2c0,0,0,0,0,0c0-0.1-0.1-0.2-0.1-0.3c0,0-0.1,0-0.1,0c0,0,0,0.1,0,0.1
				c-0.1-0.1-0.2-0.3-0.4-0.2C12.3,4.8,12.2,4.8,12.2,4.9z"/>
			<polygon class="st1" points="14.8,19 14.8,19 14.8,19.1 14.8,19.1 			"/>
			<path class="st1" d="M14,16.2c0.1,0,0.1-0.1,0.2-0.1c0.1-0.1,0.2-0.2,0.3-0.4c0.1-0.1,0.1-0.2,0.1-0.3c0,0.1,0.1,0.2,0.1,0.3
				c0.1,0.1,0.2,0.3,0.3,0.4c0,0,0,0,0,0c-0.1-0.1-0.2-0.2-0.3-0.4c-0.1-0.1-0.1-0.2-0.2-0.3c0,0,0,0,0,0c0,0,0,0,0,0
				c0-0.1-0.1-0.2-0.1-0.4c0-0.1,0-0.2,0-0.3c0,0,0-0.1,0-0.1c0,0,0,0,0,0c0,0,0,0,0,0c0-0.1,0-0.1-0.1-0.1c0,0,0,0,0,0c0,0,0,0,0,0
				c0.1,0.1,0.2,0.1,0.3,0c0,0,0,0,0,0c-0.1,0-0.1,0-0.2,0c0,0-0.1-0.1-0.1-0.2c0-0.1,0-0.3,0-0.4c0,0,0,0,0,0c0,0.2,0,0.3,0,0.5v0
				c0,0,0,0,0,0c0,0,0,0,0,0c0,0,0,0,0,0c0,0,0,0-0.1,0c-0.1-0.1-0.2-0.2-0.3-0.3c0,0,0,0,0,0c0.1,0.1,0.2,0.3,0.4,0.3c0,0,0,0,0,0
				c0,0.1,0,0.2,0,0.3c0,0,0,0,0,0c0,0,0-0.1,0-0.2c0,0,0,0,0,0c0,0,0,0.1,0,0.1c0,0,0,0,0,0.1c0,0,0,0,0,0l0,0l0,0c0,0,0,0,0,0
				c0,0,0,0,0,0c0,0.1,0,0.1,0,0.2c0,0,0,0,0,0c0-0.1,0-0.2-0.1-0.2c0,0,0,0,0,0c0,0.1,0,0.2,0,0.3c0,0.1,0,0.2,0,0.2
				c0,0,0,0.1,0,0.1c-0.1,0.1-0.1,0.2-0.1,0.3c0,0,0,0,0,0c0-0.1,0.1-0.1,0.1-0.2c0,0,0,0.1,0,0.1c0,0.1-0.1,0.1-0.1,0.2
				c0,0.1-0.1,0.1-0.1,0.2c0,0,0,0-0.1,0c0,0,0,0,0,0c0,0,0-0.1,0,0c0,0.1-0.1,0.1-0.1,0.2C14,16,14,16.1,14,16.2
				c-0.2,0-0.3,0.1-0.4,0.1c-0.1,0-0.2,0.1-0.2,0.2c0,0,0,0,0,0c0.1,0,0.1-0.1,0.2-0.1c0,0,0,0,0,0C13.8,16.3,13.9,16.3,14,16.2z
				 M14.6,15.3c0-0.1,0-0.2,0-0.3c0,0,0,0.1,0,0.1c0,0,0,0,0,0C14.6,15.2,14.6,15.2,14.6,15.3C14.6,15.3,14.6,15.3,14.6,15.3
				C14.6,15.3,14.6,15.3,14.6,15.3C14.6,15.3,14.6,15.3,14.6,15.3C14.6,15.3,14.6,15.3,14.6,15.3C14.6,15.3,14.6,15.3,14.6,15.3
				C14.6,15.3,14.6,15.3,14.6,15.3z"/>
			<path class="st1" d="M17.8,16.7c0,0-0.1,0.1-0.1,0.1c0,0,0,0,0,0C17.7,16.8,17.8,16.8,17.8,16.7C17.8,16.7,17.8,16.7,17.8,16.7z"
				/>
			<path class="st1" d="M16.5,16.4c-0.1-0.1-0.1-0.1-0.2-0.1c0,0,0,0,0,0C16.4,16.3,16.5,16.3,16.5,16.4
				C16.5,16.4,16.5,16.4,16.5,16.4z"/>
			<path class="st1" d="M15.8,16.1c0,0-0.1-0.1-0.1-0.1c0,0,0,0,0,0C15.7,16.1,15.7,16.1,15.8,16.1C15.8,16.1,15.8,16.1,15.8,16.1z"
				/>
			<path class="st1" d="M15.5,15.7C15.5,15.7,15.5,15.7,15.5,15.7c0,0.1,0,0.2,0,0.3c0,0,0,0,0,0C15.5,15.9,15.5,15.8,15.5,15.7z"/>
			<path class="st1" d="M13.1,16.4c0.1-0.1,0.2-0.2,0.2-0.3c0,0,0,0,0,0C13.2,16.2,13.1,16.3,13.1,16.4
				C13.1,16.4,13.1,16.5,13.1,16.4z"/>
			<path class="st1" d="M13.5,16.1c-0.1,0.1-0.1,0.1-0.1,0.2c0,0,0,0,0,0C13.4,16.3,13.5,16.2,13.5,16.1
				C13.5,16.1,13.5,16.1,13.5,16.1z"/>
			<path class="st1" d="M14.1,15.4c0,0.1-0.1,0.1-0.1,0.2c0,0,0,0.1,0.1,0C14,15.6,14.1,15.5,14.1,15.4
				C14.1,15.4,14.1,15.4,14.1,15.4z"/>
			<path class="st1" d="M10.8,17.4c0.1-0.1,0.2-0.1,0.3-0.2c0,0,0,0,0,0C10.9,17.2,10.8,17.3,10.8,17.4
				C10.7,17.4,10.7,17.4,10.8,17.4z"/>
			<path class="st1" d="M11.2,17.5c0.1-0.1,0.2-0.1,0.3-0.2c0,0,0,0,0,0C11.4,17.3,11.3,17.4,11.2,17.5
				C11.2,17.5,11.2,17.5,11.2,17.5z"/>
			<path class="st1" d="M11.6,17.5c0.1-0.1,0.1-0.1,0.2-0.2c0,0,0,0,0,0C11.6,17.3,11.6,17.4,11.6,17.5
				C11.5,17.5,11.5,17.5,11.6,17.5z"/>
			<path class="st1" d="M17.1,17.2C17.1,17.2,17.1,17.2,17.1,17.2c0.1,0,0.1,0,0.2,0.1c0,0,0,0,0,0C17.2,17.2,17.2,17.2,17.1,17.2z"
				/>
			<path class="st1" d="M17.9,17.1c-0.1-0.1-0.2-0.1-0.3-0.1c0,0,0,0,0,0C17.8,17.1,17.8,17.1,17.9,17.1C18,17.2,18,17.2,17.9,17.1z
				"/>
			<path class="st1" d="M17.4,17.1C17.4,17.1,17.4,17.1,17.4,17.1c0.1,0,0.2,0.2,0.4,0.2c0,0,0,0,0,0C17.7,17.2,17.5,17.1,17.4,17.1
				z"/>
			<path class="st1" d="M16.2,15.9L16.2,15.9C16.2,15.9,16.2,15.9,16.2,15.9C16.2,15.9,16.2,15.9,16.2,15.9
				C16.2,15.9,16.2,15.9,16.2,15.9C16.2,15.9,16.2,15.9,16.2,15.9C16.2,15.9,16.2,15.9,16.2,15.9C16.2,15.9,16.2,15.9,16.2,15.9
				C16.2,15.9,16.2,15.9,16.2,15.9z"/>
			<path class="st1" d="M15.5,14.8C15.5,14.8,15.5,14.8,15.5,14.8C15.5,14.8,15.5,14.8,15.5,14.8C15.5,14.8,15.5,14.8,15.5,14.8
				C15.5,14.8,15.5,14.8,15.5,14.8C15.5,14.7,15.5,14.7,15.5,14.8C15.5,14.7,15.5,14.7,15.5,14.8c0-0.1,0-0.1,0-0.1c0,0,0,0,0,0
				c0,0-0.1-0.1-0.1,0c0,0,0,0,0,0c0,0,0,0,0,0c0,0,0,0,0,0c0,0,0,0,0,0C15.4,14.7,15.4,14.8,15.5,14.8
				C15.4,14.8,15.4,14.8,15.5,14.8L15.5,14.8C15.4,14.8,15.4,14.8,15.5,14.8C15.4,14.8,15.4,14.8,15.5,14.8
				C15.4,14.8,15.4,14.8,15.5,14.8C15.4,14.8,15.4,14.8,15.5,14.8C15.4,14.8,15.4,14.8,15.5,14.8C15.4,14.8,15.4,14.8,15.5,14.8
				C15.5,14.8,15.5,14.8,15.5,14.8C15.5,14.8,15.5,14.8,15.5,14.8C15.5,14.8,15.5,14.8,15.5,14.8C15.5,14.8,15.5,14.8,15.5,14.8
				L15.5,14.8C15.5,14.8,15.5,14.8,15.5,14.8z"/>
		</g>
	</g>
	<g>
		<path class="st1" d="M24.3,8.3C24.2,7.7,24,7.8,24,7.8L19.9,8c-4,0.1-4.6,0.7-4.6,0.7c-0.1,0.6-0.8,0.4-0.8,0.4s-0.7,0.2-0.9-0.4
			c0,0-0.7-0.6-4.7-0.5l-4.1,0c0,0-0.2-0.1-0.3,0.5c0,0,0,1.6,0.3,1.6c0,0,0.5,0,1.1,2.5c0,0,0.5,1.7,2.8,1.7c0,0,2.5,0.1,3.2-0.5
			c0,0,1.2-0.6,1.7-2.9c0,0,0.1-0.9,0.7-0.7c0.6-0.2,0.8,0.7,0.8,0.7c0.6,2.3,1.9,2.9,1.9,2.9c0.8,0.6,3.3,0.3,3.3,0.3
			c2.3-0.1,2.7-1.8,2.7-1.8c0.4-2.6,1-2.6,1-2.6C24.4,9.9,24.3,8.3,24.3,8.3z M13.2,10.7c0,0-0.2,2-1,2.6c0,0-0.6,1-3.7,0.7
			c0,0-1.8,0.1-2.2-1.6c0,0-0.4-1.3-0.3-2.4c0,0,0-1.2,1.1-1.1c0,0,4.1-0.2,5.3,0.2C12.5,9,13.7,8.9,13.2,10.7z M22.7,12
			c-0.4,1.7-2.1,1.7-2.1,1.7c-3,0.4-3.7-0.6-3.7-0.6c-0.9-0.6-1.1-2.5-1.1-2.5c-0.6-1.7,0.7-1.7,0.7-1.7c1.2-0.5,5.3-0.4,5.3-0.4
			c1.1-0.1,1.1,1.1,1.1,1.1C23.1,10.7,22.7,12,22.7,12z"/>
	</g>
	<g>
		<path class="st1" d="M12.7,18C12.7,18,12.6,18,12.7,18C12.6,18,12.7,18,12.7,18C12.7,18.1,12.7,18,12.7,18
			C12.7,18,12.7,18,12.7,18z"/>
	</g>
</g>
</svg>
