<?xml version="1.0" encoding="utf-8"?>
<!-- Generator: Adobe Illustrator 25.2.1, SVG Export Plug-In . SVG Version: 6.00 Build 0)  -->
<svg version="1.1" id="Capa_1" xmlns="http://www.w3.org/2000/svg" xmlns:xlink="http://www.w3.org/1999/xlink" x="0px" y="0px"
	 width="2500px" height="2500px" viewBox="0 0 2500 2500" style="enable-background:new 0 0 2500 2500;" xml:space="preserve">
<style type="text/css">
	.st0{fill:#2062AF;}
	.st1{fill:#3C9CD7;}
	.st2{fill:#FFFFFF;}
	.st3{fill:url(#SVGID_1_);}
	.st4{fill:url(#SVGID_2_);}
	.st5{fill:url(#SVGID_3_);}
	.st6{opacity:5.000000e-02;enable-background:new    ;}
	.st7{fill:url(#SVGID_4_);}
</style>
<path class="st0" d="M1877.4,2153l-623,167.7l-623-167.7L487.7,595.6h1533.4L1877.4,2153z"/>
<path class="st1" d="M1254.4,721.7v1465.2l1.4,0.4l504.1-135.7l116.4-1329.8L1254.4,721.7L1254.4,721.7z"/>
<path d="M900.9,366.8v-92.7h135.2V172.7H799.5v286.7h236.7v-92.6L900.9,366.8L900.9,366.8z M1279.4,274.1h94.6V172.7h-236.7v101.4
	c31.7,31.7,48.2,46.8,94,92.6c-26.8,0-94,0.1-94,0.1v92.5H1374v-92.6L1279.4,274.1L1279.4,274.1z M1614.9,274.1h94.5V172.7h-236.7
	v101.4c31.7,31.7,48.2,46.8,94,92.6c-26.8,0-94,0.1-94,0.1v92.5h236.7v-92.6L1614.9,274.1L1614.9,274.1z"/>
<path class="st2" d="M1253.9,1111.2L808,1296.8l14.8,183.8l431.1-184.3l458.6-196.1l19-188.1L1253.9,1111.2L1253.9,1111.2z"/>
<linearGradient id="SVGID_1_" gradientUnits="userSpaceOnUse" x1="65.8693" y1="1712.9196" x2="65.8693" y2="1792.5222" gradientTransform="matrix(4.6418 0 0 -4.6418 725.1978 9431.6299)">
	<stop  offset="0.387" style="stop-color:#D1D3D4;stop-opacity:0"/>
	<stop  offset="1" style="stop-color:#D1D3D4"/>
</linearGradient>
<path class="st3" d="M808,1296.8l14.8,183.8l431.1-184.3v-185.2L808,1296.8z"/>
<linearGradient id="SVGID_2_" gradientUnits="userSpaceOnUse" x1="165.3458" y1="1752.6024" x2="165.3458" y2="1835.3505" gradientTransform="matrix(4.6418 0 0 -4.6418 725.1978 9431.6299)">
	<stop  offset="0.387" style="stop-color:#D1D3D4;stop-opacity:0"/>
	<stop  offset="1" style="stop-color:#D1D3D4"/>
</linearGradient>
<path class="st4" d="M1731.5,912.3l-477.6,198.9v185.2l458.6-196.1L1731.5,912.3z"/>
<linearGradient id="SVGID_3_" gradientUnits="userSpaceOnUse" x1="17.9892" y1="1677.4269" x2="209.2081" y2="1677.4269" gradientTransform="matrix(4.6418 0 0 -4.6418 725.1978 9431.6299)">
	<stop  offset="0" style="stop-color:#E8E7E5"/>
	<stop  offset="1" style="stop-color:#FFFFFF"/>
</linearGradient>
<path class="st5" d="M808.7,1296.8l14.8,183.8l661.4,2.1l-14.8,245.1l-217.7,61.3l-209.2-52.8l-12.7-152.2H836.2l25.4,293.7
	l393.1,116.2l390.9-114.1l50.7-583.2H808.7V1296.8z"/>
<path class="st6" d="M1253.9,1296.8H808l14.8,183.8l431.1,1.4V1296.8L1253.9,1296.8z M1253.9,1788.6l-2.1,0.6l-209.2-52.8
	l-12.7-152.2H835.5l25.4,293.7l393,116.2V1788.6z"/>
<linearGradient id="SVGID_4_" gradientUnits="userSpaceOnUse" x1="9.1995" y1="1815.089" x2="216.7914" y2="1815.089" gradientTransform="matrix(4.6418 0 0 -4.6418 725.1978 9431.6299)">
	<stop  offset="0" style="stop-color:#E8E7E5"/>
	<stop  offset="1" style="stop-color:#FFFFFF"/>
</linearGradient>
<path class="st7" d="M767.9,912.3h963.6l-19,188.1H791.1L767.9,912.3L767.9,912.3z"/>
<path class="st6" d="M1253.9,912.3h-486l23.2,188.1h462.8V912.3L1253.9,912.3z"/>
</svg>
