<?xml version="1.0" encoding="utf-8"?>
<!-- Generator: Adobe Illustrator 25.2.1, SVG Export Plug-In . SVG Version: 6.00 Build 0)  -->
<svg version="1.1"
	 id="Express" xmlns:cc="http://creativecommons.org/ns#" xmlns:dc="http://purl.org/dc/elements/1.1/" xmlns:inkscape="http://www.inkscape.org/namespaces/inkscape" xmlns:rdf="http://www.w3.org/1999/02/22-rdf-syntax-ns#" xmlns:sodipodi="http://sodipodi.sourceforge.net/DTD/sodipodi-0.dtd" xmlns:svg="http://www.w3.org/2000/svg"
	 xmlns="http://www.w3.org/2000/svg" xmlns:xlink="http://www.w3.org/1999/xlink" x="0px" y="0px" width="2500px" height="2500px"
	 viewBox="0 0 2500 2500" style="enable-background:new 0 0 2500 2500;" xml:space="preserve">
<g id="original-wordmark" transform="matrix(0.85101532,0,0,0.85101532,5.5198422,-24.472693)">
	<path id="path4" inkscape:connector-curvature="0" d="M1013.5,1776.7v-528.3h28.7v83.1c3.4-3.7,6.5-7.6,9.4-11.7
		c23.9-49.7,74.4-81,129.5-80.4c65.3-2,118.4,22.2,149.6,80.4c40.3,73.3,42.6,161.5,6.2,236.8c-29.1,65.2-100.9,97.5-177.7,85.6
		c-48.6-4.1-91.8-32.6-114.7-75.7v210.1H1013.5z M1042.2,1435.3c2.5,25.7,3.5,44.1,6.4,62c11.3,70.6,53.1,112.6,118.6,120.2
		c63.5,10.4,125.5-25.4,148.1-85.6c25.5-60.8,23.6-129.5-5.1-188.8c-24-53.8-80.8-85.1-139.1-76.9c-54.6,4-100.7,42.1-114.9,95
		C1050.1,1385.6,1045.5,1410.3,1042.2,1435.3z"/>
	<path id="path6" inkscape:connector-curvature="0" d="M1947.6,1507.1c-9,76.9-73.5,135.3-151,136.6
		c-120.2,6-176.5-73.7-185.5-165.8c-6.2-50,1.9-100.7,23.4-146.3c30.8-64.1,99.5-101,169.9-91.1c66.9,5.7,122.7,53.5,138.5,118.8
		c6.1,29,10.6,58.3,13.5,87.8h-315.8c-5.9,83.5,39,150.6,102.6,166.8c79.2,19.5,146.9-14.8,171.5-90.1
		C1920,1504.4,1930,1501.6,1947.6,1507.1z M1640.5,1420.3h282.3c-1.8-89-57.2-153.3-132.3-154.3
		C1705.5,1264.6,1644.2,1326.6,1640.5,1420.3z"/>
	<path id="path8" inkscape:connector-curvature="0" d="M2005.7,1509h27.7c2.1,41.6,27.2,78.5,65.2,95.6
		c47.3,21.3,101.7,19.9,147.9-3.9c25.4-11.5,41-37.5,39-65.3c1.5-26.9-15.1-51.5-40.6-60.3c-30.4-11.3-62.8-17.6-93.8-27.5
		c-32.3-9.2-63.8-20.7-94.4-34.5c-49.9-24.4-53.1-119.4,3.5-149.4c58.9-33.2,130.5-34.3,190.4-2.9c36.5,20.2,56.7,60.9,50.7,102.2
		h-23.8c0-1.2-2.1-2.1-2.1-3.3c-2.9-75.9-66.5-99.3-134.8-92.7c-20.4,2.5-40.2,8.5-58.5,17.8c-22.6,10.3-36.2,33.8-33.9,58.5
		c0.1,24.7,15.7,46.8,39,55c30,10.9,61.4,17.9,92.3,26.5c24.8,6.8,50.5,11.3,74.5,19.5c34.7,11.4,58.7,43,60.5,79.4
		c5.9,40-14.4,79.3-50.5,97.5c-65.2,36.9-172.4,27.1-220.2-19.5C2019.1,1577.1,2005.4,1543.7,2005.7,1509z"/>
	<path id="path10" inkscape:connector-curvature="0" d="M2665.4,1362.9h-25.9c0-3.5-1.4-6.6-1.8-9.6c-0.9-40.1-29.7-74.1-69.1-81.5
		c-36.1-10.3-74.5-8.5-109.4,5.3c-28.3,8.1-47.9,33.9-48.2,63.4c-1,29.1,18.6,54.8,46.8,61.6c39,12.1,79,19.5,118.6,30.4
		c12.8,3.1,25.5,6.9,37.8,11.5c50.7,18.1,77.1,74,59,124.7c-9.2,25.6-28.6,46.3-53.7,56.9c-55.7,25.3-119.4,25.9-175.6,1.8
		c-46.8-20.2-76-67.3-73.3-118.2h10.9h14.4c15.9,76.9,91.2,126.3,168.1,110.4c17.2-3.6,33.6-10.3,48.4-19.9
		c24.1-12.5,38.8-38,37.5-65.2c1.2-26.9-15.6-51.4-41.2-59.9c-30.4-11.3-62.8-17.4-93.8-27.3c-32.5-9-64.2-20.5-95-34.1
		c-48.8-24-52.7-118.2,2.9-148.3c59.7-34.6,133.1-35.5,193.5-2.1C2651.2,1283.6,2670.4,1322.8,2665.4,1362.9z"/>
	<path id="path12" inkscape:connector-curvature="0" d="M966.1,1634.1c-21.1,8-44.9-1-55.4-21.1c-31.8-47.6-66.9-93.1-100.7-139.5
		l-14.6-19.5c-40.2,53.8-80.4,105.5-117,159.2c-9.9,19.1-32.4,28-52.7,20.7l150.8-202.3l-140.3-182.8c20.8-7.5,44,0.6,55.6,19.5
		c32.6,47.6,68.7,93.1,104.6,141.2c36.1-47.8,71.8-93.4,105.1-140.6c9.9-18.8,32.4-27.2,52.3-19.5l-54.4,72.2
		c-24.4,32.2-48.4,64.6-73.7,96c-8,7.2-8.7,19.5-1.5,27.5c0.5,0.5,1,1,1.5,1.5C872.3,1508.5,918.5,1570.5,966.1,1634.1z"/>
	<path id="path14" inkscape:connector-curvature="0" d="M1606.4,1246.9v27.3c-77.9-5.1-145.3,53.9-150.4,131.9
		c-0.3,4.7-0.4,9.5-0.2,14.2c0,64.2,0,128.5,0,192.7c0,6.8,0,13.7,0,21.8h-27.9v-386.4h27.3v79.2
		C1488.9,1269.9,1541,1248.4,1606.4,1246.9z"/>
	<path id="path16" inkscape:connector-curvature="0" d="M264.5,1429.1c4.1-19.5,6.6-40.8,12.3-60.7c33.7-120,171.3-169.9,265.9-95.6
		c55.4,43.5,69.3,105.1,66.5,174.6H297c-5.1,124.1,84.5,199,199,160.7c37.7-13.5,66.1-45.1,75.5-84.1c6-19.5,15.8-22.8,34.3-17.2
		c-6.2,48.1-34.1,90.7-75.7,115.7c-69.6,38.1-155.8,27-213.6-27.3c-27.9-31.3-44.7-70.9-48-112.8c0-6.6-2.5-13.3-3.9-19.5
		C264.5,1451.4,264.5,1440.1,264.5,1429.1z M297.4,1420.7h282.3c-1.8-89.9-58.5-153.7-134.2-154.3c-84.3-1.2-144.5,61.3-148.3,153.9
		L297.4,1420.7z"/>
</g>
</svg>
