<?xml version="1.0" encoding="utf-8"?>
<!-- Generator: Adobe Illustrator 25.2.1, SVG Export Plug-In . SVG Version: 6.00 Build 0)  -->
<svg version="1.1" id="Capa_1" xmlns="http://www.w3.org/2000/svg" xmlns:xlink="http://www.w3.org/1999/xlink" x="0px" y="0px"
	 width="2500px" height="2500px" viewBox="0 0 2500 2500" style="enable-background:new 0 0 2500 2500;" xml:space="preserve">
<style type="text/css">
	.st0{fill:#404137;}
	.st1{fill:#83CD29;}
</style>
<path class="st0" d="M1638.7,825.4c-2.1,0-4.2,0.6-6,1.6c-3.7,2.2-6,6.1-6,10.4v306.4c0,3-1.4,5.7-4,7.2s-5.8,1.5-8.4,0l-50.1-28.8
	c-7.4-4.3-16.6-4.3-24,0l-199.8,115.3c-7.5,4.3-12,12.6-12,21.2v230.7c0,8.6,4.5,16.5,12,20.8l199.8,115.3c7.4,4.3,16.6,4.3,24,0
	l199.8-115.3c7.4-4.3,12-12.2,12-20.8V914.3c0-8.8-4.8-16.9-12.4-21.2l-118.9-66.5C1642.8,825.5,1640.8,825.3,1638.7,825.4
	L1638.7,825.4z M353.2,1113.3c-3.8,0.2-7.4,0.8-10.8,2.8l-199.8,115.3c-7.5,4.3-12,12.2-12,20.8l0.4,309.6c0,4.3,2.2,8.3,6,10.4
	c3.7,2.2,8.3,2.2,12,0l118.5-68.1c7.5-4.5,12.4-12.2,12.4-20.8v-144.6c0-8.6,4.5-16.5,12-20.8l50.5-29.2c3.6-2.1,7.8-3.2,12-3.2
	c4.1,0,8.3,1,12,3.2l50.5,29.2c7.5,4.3,12,12.2,12,20.8v144.6c0,8.6,5,16.4,12.4,20.8l118.5,68.1c3.7,2.2,8.3,2.2,12,0s6-6.1,6-10.4
	l0.4-309.6c0-8.6-4.5-16.6-12-20.8l-199.8-115.3c-3.4-2-7-2.6-10.8-2.8H353.2z M2148.9,1116.1c-4.2,0-8.3,1.1-12,3.2L1937,1234.6
	c-7.4,4.3-12,12.2-12,20.8v230.7c0,8.7,4.9,16.5,12.4,20.8l198.2,112.9c7.3,4.2,16.3,4.5,23.6,0.4l120.1-66.9
	c3.8-2.1,6.4-6.1,6.4-10.4s-2.3-8.3-6-10.4l-201-115.3c-3.8-2.1-6.4-6.5-6.4-10.8v-72.1c0-4.3,2.7-8.3,6.4-10.4l62.5-36
	c3.7-2.2,8.3-2.2,12,0l62.5,36c3.7,2.1,6,6.1,6,10.4v56.9c0,4.3,2.3,8.3,6,10.4c3.7,2.2,8.3,2.2,12,0l119.7-69.7
	c7.4-4.3,12-12.2,12-20.8v-55.7c0-8.6-4.6-16.5-12-20.8l-198.6-115.3C2157.3,1117.2,2153.1,1116.1,2148.9,1116.1L2148.9,1116.1z
	 M1551.4,1288.3c1,0,2.3,0.3,3.2,0.8l68.5,39.6c1.9,1.1,3.2,3.1,3.2,5.2v79.3c0,2.2-1.3,4.1-3.2,5.2l-68.5,39.6
	c-1.9,1.1-4.1,1.1-6,0l-68.5-39.6c-1.9-1.1-3.2-3.1-3.2-5.2V1334c0-2.1,1.3-4.1,3.2-5.2l68.5-39.6
	C1549.4,1288.6,1550.4,1288.3,1551.4,1288.3L1551.4,1288.3L1551.4,1288.3z"/>
<path class="st1" d="M953.5,1114.9c-4.2,0-8.3,1.1-12,3.2L741.6,1233c-7.5,4.3-12,12.6-12,21.2v230.7c0,8.6,4.5,16.5,12,20.8
	L941.4,1621c7.4,4.3,16.6,4.3,24,0l199.8-115.3c7.4-4.3,12-12.2,12-20.8v-230.7c0-8.6-4.5-16.9-12-21.2l-199.8-114.9
	C961.8,1116,957.7,1114.9,953.5,1114.9L953.5,1114.9z M2148.5,1320.7c-0.8,0-1.7,0-2.4,0.4l-38.4,22.4c-1.5,0.8-2.4,2.3-2.4,4v44
	c0,1.7,1,3.2,2.4,4l38.4,22c1.4,0.8,3,0.8,4.4,0l38.4-22c1.5-0.8,2.4-2.3,2.4-4v-44.1c0-1.7-1-3.2-2.4-4l-38.4-22.4
	C2149.8,1320.7,2149.3,1320.8,2148.5,1320.7L2148.5,1320.7z"/>
</svg>
