<?xml version="1.0" encoding="utf-8"?>
<!-- Generator: Adobe Illustrator 25.2.1, SVG Export Plug-In . SVG Version: 6.00 Build 0)  -->
<svg version="1.1" id="Capa_1" xmlns="http://www.w3.org/2000/svg" xmlns:xlink="http://www.w3.org/1999/xlink" x="0px" y="0px"
	 width="2500px" height="2500px" viewBox="0 0 2500 2500" style="enable-background:new 0 0 2500 2500;" xml:space="preserve">
<style type="text/css">
	.st0{fill:#599636;}
	.st1{fill:#6CAC48;}
	.st2{fill:#C2BFBF;}
</style>
<path class="st0" d="M1243.1,161.5l58.4,109.7c13.1,20.2,27.4,38.2,44.1,54.9c49.1,48.5,94.9,100.3,137.1,155
	c99,130,165.7,274.3,213.4,430.4c28.6,95.4,44.1,193.2,45.3,292.1c4.8,295.7-96.6,549.6-301,760.6c-33.2,33.5-69.2,64.2-107.4,91.8
	c-20.2,0-29.8-15.5-38.2-29.8c-15.2-26.5-25.3-55.6-29.8-85.8c-7.2-35.8-11.9-71.5-9.6-108.5v-16.7
	C1253.9,1811.5,1236,169.9,1243.1,161.5L1243.1,161.5z"/>
<path class="st1" d="M1243.1,157.8c-2.4-4.8-4.8-1.2-7.2,1.2c1.2,23.9-7.2,45.3-20.2,65.7c-14.4,20.2-33.4,35.8-52.5,52.5
	c-106,91.8-189.5,202.7-256.3,326.7c-88.9,166.8-134.7,345.7-147.7,534c-6,67.9,21.5,307.6,42.9,376.8
	c58.4,183.6,163.3,337.4,299.3,471c33.4,32.1,69.1,62,106,90.6c10.7,0,11.9-9.6,14.4-16.7c4.7-15.2,8.3-30.8,10.7-46.5l23.9-178.8
	L1243.1,157.8z"/>
<path class="st2" d="M1301.6,2128.6c2.4-27.4,15.5-50.1,29.8-72.7c-14.4-6-25-17.8-33.4-31c-7.2-12.5-13.2-25.7-17.8-39.3
	c-16.7-50.1-20.2-102.6-25-153.8v-31c-6,4.8-7.2,45.3-7.2,51.3c-3.5,54.1-10.7,107.9-21.5,161c-3.6,21.5-6,42.9-19.2,62
	c0,2.4,0,4.8,1.2,8.3c21.5,63.2,27.4,127.6,31,193.2v23.9c0,28.6-1.2,22.6,22.6,32.1c9.6,3.6,20.2,4.8,29.8,11.9
	c7.2,0,8.3-6,8.3-10.7l-3.6-39.3v-109.7C1295.5,2165.6,1299.1,2146.6,1301.6,2128.6L1301.6,2128.6z"/>
</svg>
