<?xml version="1.0" encoding="utf-8"?>
<!-- Generator: Adobe Illustrator 25.2.1, SVG Export Plug-In . SVG Version: 6.00 Build 0)  -->
<svg version="1.1" id="Capa_1" xmlns="http://www.w3.org/2000/svg" xmlns:xlink="http://www.w3.org/1999/xlink" x="0px" y="0px"
	 width="2500px" height="2500px" viewBox="0 0 2500 2500" style="enable-background:new 0 0 2500 2500;" xml:space="preserve">
<style type="text/css">
	.st0{fill:#F0DB4F;}
	.st1{fill:#323330;}
</style>
<path class="st0" d="M260.5,286.8h1981.1V2196H260.5V286.8z"/>
<path class="st1" d="M2080,1818.2c-15.4-87.8-74.4-163.4-248.9-234.2c-61.6-26.8-128.3-46.3-148.8-92.7c-7.7-26.8-7.7-41.5-2.6-56.1
	c12.8-51.2,77-68.3,125.7-53.7c30.8,9.8,61.6,34.1,79.6,73.2c84.7-53.7,84.7-53.7,146.3-92.7c-23.1-34.1-33.4-48.8-48.8-63.4
	c-51.3-56.1-120.6-85.4-233.5-82.9c-20.5,2.4-38.5,4.9-59,7.3c-56.5,14.6-110.3,43.9-141.1,80.5c-92.4,107.3-66.7,290.3,48.8,365.9
	c112.9,82.9,277.1,102.4,297.7,180.5c20.5,95.1-71.9,126.8-161.7,114.6c-66.7-14.6-105.2-46.3-143.7-107.3
	c-74.4,41.5-74.4,41.5-151.4,85.4c18,39,35.9,56.1,66.7,90.2c143.7,143.9,503,136.6,567.1-80.5
	C2077.4,1942.6,2092.8,1893.8,2080,1818.2z M1338.3,1227.9h-184.8c0,158.5,0,314.7,0,470.8c0,100,5.1,192.7-10.3,219.5
	c-28.2,56.1-97.5,48.8-128.3,39c-33.4-14.6-48.8-39-69.3-70.7c-5.1-9.8-10.3-17.1-10.3-17.1c-51.3,29.3-100.1,61-151.4,90.2
	c25.7,51.2,61.6,95.1,110.3,122c71.9,41.5,166.8,53.7,264.3,31.7c64.2-19.5,120.6-56.1,148.8-114.6c41.1-75.6,33.4-168.3,33.4-270.7
	C1338.3,1564.5,1338.3,1396.2,1338.3,1227.9L1338.3,1227.9z"/>
</svg>
