<?xml version="1.0" encoding="utf-8"?>
<!-- Generator: Adobe Illustrator 25.2.1, SVG Export Plug-In . SVG Version: 6.00 Build 0)  -->
<svg version="1.1" id="Capa_1" xmlns="http://www.w3.org/2000/svg" xmlns:xlink="http://www.w3.org/1999/xlink" x="0px" y="0px"
	 width="2500px" height="2500px" viewBox="0 0 2500 2500" style="enable-background:new 0 0 2500 2500;" xml:space="preserve">
<style type="text/css">
	.st0{fill:#61DAFB;}
</style>
<path class="st0" d="M2287.4,1250.2c0-137.5-172.1-267.7-436-348.5c60.9-269,33.8-483-85.4-551.5c-27.5-16.1-59.6-23.7-94.7-23.7
	v94.3c19.5,0,35.1,3.8,48.2,11c57.5,33,82.4,158.6,63,320.1c-4.6,39.8-12.3,81.6-21.6,124.4c-82.9-20.3-173.4-35.9-268.5-46.1
	c-57.1-78.2-116.3-149.3-175.9-211.4c137.8-128.2,267.3-198.3,355.2-198.3v-94.3c-116.3,0-268.5,82.9-422.5,226.7
	c-153.9-142.9-306.2-225-422.5-225v94.2c87.5,0,217.3,69.8,355.2,197c-59.2,62.1-118.4,132.8-174.7,211.1
	c-95.6,10.2-186,25.8-269,46.5c-9.7-42.3-16.9-83.3-22-122.6C696.4,592.5,720.9,467,778,433.5c12.6-7.6,29.2-11,48.7-11v-94.2
	c-35.5,0-67.7,7.6-95.6,23.7c-118.8,68.5-145.5,282-84.2,550.1c-263,81.2-434.3,211.1-434.3,348.1c0,137.5,172.1,267.7,436,348.5
	c-60.9,269-33.8,483,85.4,551.5c27.5,16.1,59.6,23.7,95.2,23.7c116.3,0,268.5-82.9,422.5-226.7c153.9,142.9,306.2,225,422.5,225
	c35.5,0,67.7-7.6,95.6-23.7c118.8-68.5,145.5-282.1,84.1-550.2C2116.1,1517.5,2287.4,1387.2,2287.4,1250.2L2287.4,1250.2z
	 M1736.8,968.2c-15.6,54.6-35.1,110.8-57.1,167c-17.4-33.8-35.5-67.7-55.4-101.5c-19.5-33.8-40.2-66.8-60.9-99
	C1623.4,943.6,1681.4,954.6,1736.8,968.2L1736.8,968.2z M1543.1,1418.5c-33,57.1-66.8,111.3-101.9,161.6
	c-63,5.5-126.9,8.5-191.1,8.5c-63.9,0-127.7-3-190.3-8c-35.1-50.3-69.3-104.1-102.3-160.7c-32.1-55.4-61.3-111.6-88-168.3
	c26.2-56.7,55.9-113.4,87.5-168.8c33-57.1,66.8-111.3,101.9-161.6c63-5.5,126.9-8.5,191.1-8.5c63.9,0,127.7,3,190.3,8
	c35.1,50.3,69.3,104.1,102.3,160.7c32.1,55.4,61.3,111.6,88,168.3C1604,1306.5,1574.8,1363.2,1543.1,1418.5L1543.1,1418.5z
	 M1679.7,1363.5c22.8,56.7,42.3,113.4,58.4,168.3c-55.4,13.6-113.7,24.9-174.2,33.8c20.7-32.6,41.5-66,60.9-100.3
	C1644.2,1431.7,1662.3,1397.4,1679.7,1363.5L1679.7,1363.5z M1250.8,1814.8c-39.3-40.6-78.7-85.9-117.5-135.4c38,1.7,77,3,116.3,3
	c39.8,0,79.1-0.8,117.5-3C1329.1,1729,1289.8,1774.2,1250.8,1814.8z M936.2,1565.7c-60-8.9-118-19.8-173.4-33.4
	c15.6-54.6,35.1-110.8,57.1-167c17.4,33.8,35.5,67.7,55.4,101.5C895.2,1500.5,915.5,1533.6,936.2,1565.7z M1248.7,685.6
	c39.3,40.6,78.7,85.9,117.5,135.4c-38-1.7-77-3-116.3-3c-39.8,0-79.1,0.8-117.5,3C1170.5,771.5,1209.8,726.3,1248.7,685.6z
	 M935.8,934.7c-20.7,32.6-41.5,66-60.9,100.3c-19.5,33.8-37.7,67.7-54.9,101.5c-22.8-56.7-42.3-113.4-58.4-168.3
	C817,955.1,875.3,943.6,935.8,934.7L935.8,934.7z M553.1,1464.2c-149.7-63.9-246.5-147.6-246.5-214s96.9-150.6,246.5-214
	c36.4-15.6,76.1-29.6,117.2-42.8c24.1,82.9,55.9,169.1,95.2,257.5c-38.9,88-70.2,173.8-93.9,256.3
	C629.6,1494.3,589.8,1479.9,553.1,1464.2L553.1,1464.2z M780.6,2068.6c-57.5-33-82.4-158.6-63-320.1c4.6-39.8,12.3-81.6,21.6-124.4
	c82.9,20.3,173.4,35.9,268.5,46.1c57.1,78.2,116.3,149.3,175.9,211.4c-137.8,128.2-267.3,198.3-355.2,198.3
	C809.3,2079.5,793.2,2075.7,780.6,2068.6L780.6,2068.6z M1783.7,1746.3c19.8,161.6-4.6,287.1-61.8,320.6c-12.6,7.6-29.2,11-48.7,11
	c-87.5,0-217.3-69.8-355.2-197c59.2-62.1,118.4-132.8,174.7-211.1c95.6-10.2,186-25.8,269-46.5
	C1771.4,1665.9,1779,1707,1783.7,1746.3z M1946.5,1464.2c-36.4,15.6-76.1,29.6-117.2,42.8c-24.1-82.9-55.9-169.1-95.2-257.5
	c38.9-88,70.2-173.8,93.9-256.3c41.8,13.1,81.6,27.5,118.8,43.1c149.7,63.9,246.5,147.6,246.5,214
	C2193.1,1316.6,2096.2,1400.7,1946.5,1464.2L1946.5,1464.2z"/>
<circle class="st0" cx="1249.5" cy="1250.2" r="193.2"/>
</svg>
