<?xml version="1.0" encoding="utf-8"?>
<!-- Generator: Adobe Illustrator 25.2.3, SVG Export Plug-In . SVG Version: 6.00 Build 0)  -->
<svg version="1.1" id="icon" xmlns="http://www.w3.org/2000/svg" xmlns:xlink="http://www.w3.org/1999/xlink" x="0px" y="0px"
	 width="32px" height="32px" viewBox="0 0 32 32" style="enable-background:new 0 0 32 32;" xml:space="preserve">
<style type="text/css">
	.st0{fill:#FFFFFF;}
	.st1{fill:none;}
</style>
<path class="st0" d="M11.9,24.9c7,0,12.8-5.6,12.8-12.7c0-0.1,0-0.1,0-0.2c0-0.2,0-0.4,0-0.6c0.9-0.6,1.6-1.4,2.2-2.3
	c-0.8,0.4-1.7,0.6-2.6,0.7c0.9-0.6,1.7-1.5,2-2.5c-0.9,0.5-1.9,0.9-2.9,1.1c-1.7-1.8-4.6-1.9-6.4-0.2c-1.2,1.1-1.7,2.7-1.3,4.3
	c-3.6-0.2-7-1.9-9.3-4.7c-1.2,2.1-0.6,4.7,1.4,6c-0.7,0-1.4-0.2-2-0.6v0.1c0,2.1,1.5,4,3.6,4.4c-0.7,0.2-1.3,0.2-2,0.1
	c0.6,1.8,2.3,3,4.2,3.1c-1.6,1.3-3.6,2-5.6,2c-0.4,0-0.7,0-1.1-0.1C7.1,24.2,9.5,24.9,11.9,24.9"/>
<rect id="_Transparent_Rectangle_" class="st1" width="32" height="32"/>
</svg>
