<?xml version="1.0" encoding="utf-8"?>
<!-- Generator: Adobe Illustrator 25.2.3, SVG Export Plug-In . SVG Version: 6.00 Build 0)  -->
<svg version="1.1" id="icon" xmlns="http://www.w3.org/2000/svg" xmlns:xlink="http://www.w3.org/1999/xlink" x="0px" y="0px"
	 width="32px" height="32px" viewBox="0 0 32 32" style="enable-background:new 0 0 32 32;" xml:space="preserve">
<style type="text/css">
	.st0{fill:#FFFFFF;}
	.st1{fill:none;}
</style>
<path class="st0" d="M26.2,4H5.8C4.8,4,4,4.8,4,5.7v20.5c0,1,0.8,1.7,1.8,1.7h20.4c1,0,1.8-0.8,1.8-1.7V5.7C28,4.8,27.2,4,26.2,4z
	 M11.1,24.4H7.6V13h3.5L11.1,24.4z M9.4,11.4c-1.1,0-2-0.9-2.1-2c0-1.1,0.8-2,1.9-2.1c0,0,0.1,0,0.1,0c1.1,0.1,2,1.1,1.9,2.2
	C11.2,10.6,10.4,11.4,9.4,11.4L9.4,11.4z M24.5,24.3H21v-5.6c0-1.3,0-3.1-1.9-3.1S17,17.2,17,18.6v5.6h-3.6V13h3.3v1.5h0.1
	c0.7-1.2,2-1.9,3.4-1.9c3.6,0,4.3,2.4,4.3,5.4V24.3z"/>
<rect id="_Transparent_Rectangle_" class="st1" width="32" height="32"/>
</svg>
